<?xml version="1.0" encoding="UTF-8"?>
<svg width="134px" height="134px" viewBox="0 0 134 134" version="1.1" xmlns="http://www.w3.org/2000/svg" xmlns:xlink="http://www.w3.org/1999/xlink">
    <!-- Generator: Sketch 47.1 (45422) - http://www.bohemiancoding.com/sketch -->
    <title>Group 5</title>
    <desc>Created with Sketch.</desc>
    <defs></defs>
    <g id="Page-1" stroke="none" stroke-width="1" fill="none" fill-rule="evenodd">
        <g id="Group-5" fill="#FFFFFF">
            <path d="M96.118443,69.1591919 L38.8576926,71.7475249 L37.3865949,73.0397185 L22.8122267,73.0397185 L18.6911113,68.8082464 L3.89068215,68.8082464 L0.28488846,67.3940205 L3.89068215,66.0400855 L18.6911113,66.0400855 L22.8122267,61.8086135 L37.3865949,61.8086135 L38.8576926,63.100807 L95.6553606,65.6682076 C96.9667963,64.2912699 99.2966929,61.8216219 103.435813,57.3921514 C109.4283,50.9793028 124.610321,45.250713 131.206065,56.0057278 C132.979902,58.8981453 132.039566,62.6121274 128.385057,67.1476739 L133.834892,67.3940205 L133.834892,67.4543115 L128.772182,67.683159 C132.104238,71.996656 132.915532,75.5471329 131.206065,78.3345897 C124.610321,89.0896044 109.4283,83.3610147 103.435813,76.9481661 C99.7450994,72.9985569 97.4928428,70.6071412 96.118443,69.1591919 Z" id="Combined-Shape"></path>
            <path d="M96.0804338,68.9503439 L38.8196834,71.5386769 L37.3485857,72.8308705 L22.7742175,72.8308705 L18.6531021,68.5993984 L3.85267291,68.5993984 L0.246879225,67.1851725 L3.85267291,65.8312375 L18.6531021,65.8312375 L22.7742175,61.5997655 L37.3485857,61.5997655 L38.8196834,62.891959 L95.6173514,65.4593596 C96.928787,64.0824219 99.2586836,61.6127739 103.397803,57.1833034 C109.390291,50.7704548 124.572311,45.041865 131.168055,55.7968798 C132.941893,58.6892973 132.001557,62.4032794 128.347048,66.938826 L133.796882,67.1851725 L133.796882,67.2454635 L128.734173,67.474311 C132.066229,71.787808 132.877523,75.3382849 131.168055,78.1257417 C124.572311,88.8807564 109.390291,83.1521667 103.397803,76.7393181 C99.7070902,72.7897089 97.4548336,70.3982932 96.0804338,68.9503439 Z" id="Combined-Shape" transform="translate(67.021881, 66.961311) rotate(-46.000000) translate(-67.021881, -66.961311) "></path>
            <path d="M95.8335546,69.3225871 L38.5728042,71.9109201 L37.1017065,73.2031137 L22.5273383,73.2031137 L18.4062228,68.9716416 L3.60579369,68.9716416 L0,67.5574156 L3.60579369,66.2034807 L18.4062228,66.2034807 L22.5273383,61.9720086 L37.1017065,61.9720086 L38.5728042,63.2642022 L95.3704721,65.8316027 C96.6819078,64.454665 99.0118044,61.9850171 103.150924,57.5555466 C109.143412,51.1426979 124.325432,45.4141082 130.921176,56.169123 C132.695013,59.0615405 131.754678,62.7755226 128.100169,67.3110691 L133.550003,67.5574156 L133.550003,67.6177067 L128.487293,67.8465542 C131.81935,72.1600512 132.630644,75.7105281 130.921176,78.4979848 C124.325432,89.2529996 109.143412,83.5244099 103.150924,77.1115612 C99.460211,73.1619521 97.2079543,70.7705364 95.8335546,69.3225871 Z" id="Combined-Shape" transform="translate(66.775002, 67.333554) rotate(-92.000000) translate(-66.775002, -67.333554) "></path>
        </g>
    </g>
</svg>