<?xml version="1.0" encoding="UTF-8"?>
<svg width="164px" height="164px" viewBox="0 0 164 164" version="1.1" xmlns="http://www.w3.org/2000/svg" xmlns:xlink="http://www.w3.org/1999/xlink">
    <!-- Generator: Sketch 47.1 (45422) - http://www.bohemiancoding.com/sketch -->
    <title>Group 4</title>
    <desc>Created with Sketch.</desc>
    <defs></defs>
    <g id="Page-1" stroke="none" stroke-width="1" fill="none" fill-rule="evenodd">
        <g id="Group-4">
            <rect id="Rectangle-8" fill="#D8D8D8" x="0" y="0" width="164" height="164"></rect>
            <path d="M34.5792517,56.2431357 C33.8152948,56.7263709 32.9687709,57.0264598 32.1022659,57.1434023 C33.2930424,59.4546343 35.2255899,61.3560722 37.8999083,62.847716 C43.3255891,63.3530349 48.5292397,63.5245221 53.5108601,63.3621777 C53.3570471,63.6223982 53.1984668,63.8852201 53.0350691,64.1507681 C75.69293,60.5983171 91.1613746,59.261927 109.660215,57.61874 C115.571753,63.5485081 139.307777,74.453494 147.792263,68.6800553 C153.471354,64.8156031 154.815153,59.7213826 151.823658,53.3973938 C152.616626,53.3056238 153.418114,53.2121424 154.228391,53.1168827 C157.571106,51.5613377 156.834851,48.4899829 153.073923,48.7330741 C152.928543,48.7424709 152.67175,48.7392671 152.311337,48.7242573 C155.231743,45.1059813 154.120163,40.7049792 148.976598,35.5212507 C140.8394,27.3205137 126.123619,34.7185642 110.041313,44.6693134 C89.4012853,42.4793106 66.8627974,39.915865 55.9856026,38.3611763 C55.7801506,38.14937 55.5684224,37.9418743 55.35042,37.7389807 C50.4292562,37.6648212 45.0287559,37.9141194 39.1489191,38.4868752 C35.7382177,40.0703601 33.3563442,42.1881165 32.0032986,44.8401442 C32.9327138,44.9504498 33.8419468,45.2707673 34.6541476,45.8010967 L9.78554985,48.4830963 C8.76987573,48.5926335 8,49.4500021 8,50.4715658 L8,50.926168 C8,51.9279103 8.7411061,52.7751336 9.73394532,52.9083927 L34.5792517,56.2431357 Z" id="Combined-Shape" fill="#F00000"></path>
            <path d="M34.5792517,86.2431357 C33.8152948,86.7263709 32.9687709,87.0264598 32.1022659,87.1434023 C33.2930424,89.4546343 35.2255899,91.3560722 37.8999083,92.847716 C43.3255891,93.3530349 48.5292397,93.5245221 53.5108601,93.3621777 C53.3570471,93.6223982 53.1984668,93.8852201 53.0350691,94.1507681 C75.69293,90.5983171 91.1613746,89.261927 109.660215,87.61874 C115.571753,93.5485081 139.307777,104.453494 147.792263,98.6800553 C153.471354,94.8156031 154.815153,89.7213826 151.823658,83.3973938 C152.616626,83.3056238 153.418114,83.2121424 154.228391,83.1168827 C157.571106,81.5613377 156.834851,78.4899829 153.073923,78.7330741 C152.928543,78.7424709 152.67175,78.7392671 152.311337,78.7242573 C155.231743,75.1059813 154.120163,70.7049792 148.976598,65.5212507 C140.8394,57.3205137 126.123619,64.7185642 110.041313,74.6693134 C89.4012853,72.4793106 66.8627974,69.915865 55.9856026,68.3611763 C55.7801506,68.14937 55.5684224,67.9418743 55.35042,67.7389807 C50.4292562,67.6648212 45.0287559,67.9141194 39.1489191,68.4868752 C35.7382177,70.0703601 33.3563442,72.1881165 32.0032986,74.8401442 C32.9327138,74.9504498 33.8419468,75.2707673 34.6541476,75.8010967 L9.78554985,78.4830963 C8.76987573,78.5926335 8,79.4500021 8,80.4715658 L8,80.926168 C8,81.9279103 8.7411061,82.7751336 9.73394532,82.9083927 L34.5792517,86.2431357 Z" id="Combined-Shape" fill="#2AC555"></path>
            <path d="M34.5792517,116.243136 C33.8152948,116.726371 32.9687709,117.02646 32.1022659,117.143402 C33.2930424,119.454634 35.2255899,121.356072 37.8999083,122.847716 C43.3255891,123.353035 48.5292397,123.524522 53.5108601,123.362178 C53.3570471,123.622398 53.1984668,123.88522 53.0350691,124.150768 C75.69293,120.598317 91.1613746,119.261927 109.660215,117.61874 C115.571753,123.548508 139.307777,134.453494 147.792263,128.680055 C153.471354,124.815603 154.815153,119.721383 151.823658,113.397394 C152.616626,113.305624 153.418114,113.212142 154.228391,113.116883 C157.571106,111.561338 156.834851,108.489983 153.073923,108.733074 C152.928543,108.742471 152.67175,108.739267 152.311337,108.724257 C155.231743,105.105981 154.120163,100.704979 148.976598,95.5212507 C140.8394,87.3205137 126.123619,94.7185642 110.041313,104.669313 C89.4012853,102.479311 66.8627974,99.915865 55.9856026,98.3611763 C55.7801506,98.14937 55.5684224,97.9418743 55.35042,97.7389807 C50.4292562,97.6648212 45.0287559,97.9141194 39.1489191,98.4868752 C35.7382177,100.07036 33.3563442,102.188116 32.0032986,104.840144 C32.9327138,104.95045 33.8419468,105.270767 34.6541476,105.801097 L9.78554985,108.483096 C8.76987573,108.592633 8,109.450002 8,110.471566 L8,110.926168 C8,111.92791 8.7411061,112.775134 9.73394532,112.908393 L34.5792517,116.243136 Z" id="Combined-Shape" fill="#292A8A"></path>
        </g>
    </g>
</svg>