<?xml version="1.0" encoding="UTF-8"?>
<svg width="130px" height="130px" viewBox="0 0 130 130" version="1.1" xmlns="http://www.w3.org/2000/svg" xmlns:xlink="http://www.w3.org/1999/xlink">
    <!-- Generator: Sketch 47.1 (45422) - http://www.bohemiancoding.com/sketch -->
    <title>Group 3</title>
    <desc>Created with Sketch.</desc>
    <defs></defs>
    <g id="Page-1" stroke="none" stroke-width="1" fill="none" fill-rule="evenodd">
        <g id="Group-3" transform="translate(-1.000000, 0.000000)">
            <path d="M38.5867751,73.8702964 C53.3159296,63.1986926 114.489418,13.6071305 116.976904,10.7758612 C119.464391,7.94459186 122.156777,9.59575697 120.893057,13.0593498 C92.4981472,49.020202 79.7399162,61.412589 57.1407085,92.4159691 C54.3035119,80.5021143 49.1847712,76.8181358 38.5867751,73.8702964 Z" id="Path-3" fill="#A20000"></path>
            <path d="M112.949551,8.81476763 C101.939843,18.4734047 90.9301344,27.4450124 79.920426,35.729591 C84.3020693,16.9194715 89.4543576,0.749716636 101.201954,0.79540365 C109.033686,0.825861659 112.949551,3.49898299 112.949551,8.81476763 Z" id="Path-4" fill="#000000"></path>
            <path d="M121.512849,17.5470214 C115.440934,25.1029065 106.430822,36.1011212 94.4825152,50.5416657 C101.808816,51.3080007 128.183153,41.9206124 130.175279,31.4436319 C131.503364,24.4589782 128.615887,19.8267747 121.512849,17.5470214 Z" id="Path-5" fill="#000000"></path>
            <path d="M29.5707181,111.239378 C32.3659223,112.133693 35.426101,112.108863 38.7512543,111.164885 C44.0630162,106.758243 48.8161897,102.239252 53.0107748,97.6079103 C54.32794,86.7930183 44.2854172,76.777218 32.6386767,77.1952973 C28.6515508,81.0640391 24.5400069,85.5735486 20.3040449,90.7238255 C18.8456124,94.7100439 18.6348016,98.3015213 19.6716123,101.498258 C20.8627293,100.559876 22.3659816,100 24,100 C27.8659932,100 31,103.134007 31,107 C31,108.593577 30.4674949,110.062781 29.5707181,111.239378 Z" id="Combined-Shape" fill="#000000"></path>
            <rect id="Rectangle-7" fill="#000000" transform="translate(14.000000, 116.500000) rotate(-315.000000) translate(-14.000000, -116.500000) " x="12" y="99" width="4" height="35" rx="2"></rect>
        </g>
    </g>
</svg>