<?xml version="1.0" encoding="UTF-8"?>
<svg width="152px" height="152px" viewBox="0 0 152 152" version="1.1" xmlns="http://www.w3.org/2000/svg" xmlns:xlink="http://www.w3.org/1999/xlink">
    <!-- Generator: Sketch 47.1 (45422) - http://www.bohemiancoding.com/sketch -->
    <title>Group 2</title>
    <desc>Created with Sketch.</desc>
    <defs></defs>
    <g id="Page-1" stroke="none" stroke-width="1" fill="none" fill-rule="evenodd">
        <g id="Group-2">
            <rect id="Rectangle-5" fill="#FFFFFF" x="0" y="0" width="152" height="152"></rect>
            <path d="M81.7996036,71.5502525 L72.6072155,62.3578644 L67.657468,67.3076118 L76.8498561,76.5 L67.657468,85.6923882 L72.6072155,90.6421356 L81.7996036,81.4497475 L90.9919918,90.6421356 L95.9417392,85.6923882 L86.7493511,76.5 L95.9417392,67.3076118 L90.9919918,62.3578644 L81.7996036,71.5502525 Z M58.3150281,99.3956498 L40,76.0797992 L59.3154369,50.2853721 L59.9526709,50.2853721 C60.8388753,49.4863776 62.0124396,49 63.2996036,49 L107.299604,49 C110.061027,49 112.299604,51.2385763 112.299604,54 L112.299604,99 C112.299604,101.761424 110.061027,104 107.299604,104 L63.2996036,104 C60.6713431,104 58.5167198,101.972118 58.3150281,99.3956498 Z" id="Combined-Shape" fill="#FACF1E"></path>
        </g>
    </g>
</svg>