<?xml version="1.0" encoding="iso-8859-1"?>
<!-- Generator: Adobe Illustrator 19.0.0, SVG Export Plug-In . SVG Version: 6.00 Build 0)  -->
<svg version="1.1" id="Layer_1" xmlns="http://www.w3.org/2000/svg" xmlns:xlink="http://www.w3.org/1999/xlink" x="0px" y="0px"
	 viewBox="0 0 423.997 423.997" style="enable-background:new 0 0 423.997 423.997;" xml:space="preserve">
<g>
	<path style="fill:#FFD3AE;" d="M342.77,406.444c15.768-22.667,1.367-71.558,1.367-71.558c0.661-2.617,1.371-5.426,2.133-8.442
		c11.116-44-54.631-64.977-54.631-64.977l0.021,0.072c-6.992-3.041-14.487-5.296-22.342-6.632c-5.458-0.93-11.105-1.42-16.863-1.42
		h-80.913c-5.758,0-11.405,0.49-16.863,1.42c-7.855,1.336-15.35,3.59-22.342,6.632l0.021-0.072c0,0-65.747,20.977-54.631,64.977
		c0.762,3.016,1.472,5.825,2.133,8.442c0,0-14.401,48.892,1.367,71.558l-8.687,17.553h8.83h11.92h237.417h11.92h8.83L342.77,406.444
		z"/>
	<path style="fill:#FFD3AE;" d="M255.563,230.82v29.77c0,12.02-4.87,22.92-12.76,30.8c-7.88,7.88-18.78,12.76-30.81,12.76
		c-24.06,0-43.56-19.5-43.56-43.56v-29.77L255.563,230.82L255.563,230.82z"/>
	<g>
		<g>
			<circle style="fill:#E5B591;" cx="131.424" cy="140" r="27.89"/>
			<circle style="fill:#E5B591;" cx="292.559" cy="140" r="27.89"/>
		</g>
	</g>
	<path style="fill:#E5B591;" d="M255.563,230.82v24.06c-12.86,7.29-27.73,11.45-43.57,11.45s-30.7-4.16-43.56-11.45v-24.06
		L255.563,230.82L255.563,230.82z"/>
	<path style="fill:#FFD3AE;" d="M261.352,235.97c-14.1,9.49-31.08,15.03-49.36,15.03s-35.26-5.54-49.36-15.03
		c-0.19-0.13-0.39-0.26-0.58-0.4c-23.28-15.94-38.56-42.72-38.56-73.07V140V88.5c0-48.877,39.623-88.5,88.5-88.5l0,0
		c48.877,0,88.5,39.623,88.5,88.5V140v22.5c0,30.35-15.28,57.13-38.56,73.07C261.742,235.71,261.542,235.84,261.352,235.97z"/>
	<g>
		<path style="fill:#E5B591;" d="M164.861,139.333h35.044c6.522,0,11.81,5.287,11.81,11.81v21.123c0,5.092,4.128,9.22,9.22,9.22
			h6.748l-2.943,1.044c-7.666,2.72-16.214,0.773-21.946-4.999L164.861,139.333z"/>
	</g>
	<g>
		<path style="fill:#333333;" d="M177.992,160.437c-1.58,0-3.13-0.64-4.24-1.75c-1.12-1.12-1.76-2.67-1.76-4.25s0.64-3.12,1.76-4.24
			c1.39-1.39,3.46-2.03,5.41-1.64c0.39,0.08,0.76,0.19,1.13,0.34c0.36,0.15,0.71,0.34,1.03,0.55c0.33,0.22,0.64,0.47,0.91,0.75
			c0.28,0.28,0.53,0.58,0.75,0.91s0.4,0.68,0.55,1.04s0.27,0.74,0.34,1.12c0.08,0.39,0.12,0.78,0.12,1.17s-0.04,0.79-0.12,1.18
			c-0.07,0.38-0.19,0.76-0.34,1.12s-0.33,0.71-0.55,1.03c-0.22,0.33-0.47,0.64-0.75,0.92
			C181.122,159.797,179.572,160.437,177.992,160.437z"/>
		<path style="fill:#333333;" d="M245.992,160.437c-0.39,0-0.79-0.04-1.17-0.11c-0.38-0.08-0.76-0.2-1.12-0.35
			c-0.37-0.15-0.71-0.33-1.04-0.55s-0.64-0.47-0.91-0.74c-0.28-0.28-0.53-0.59-0.75-0.92c-0.22-0.32-0.4-0.67-0.55-1.03
			s-0.27-0.74-0.34-1.12c-0.08-0.39-0.12-0.79-0.12-1.18s0.04-0.78,0.12-1.17c0.07-0.38,0.19-0.76,0.34-1.12s0.33-0.71,0.55-1.04
			c0.22-0.33,0.47-0.63,0.75-0.91c0.27-0.28,0.58-0.53,0.91-0.75c0.33-0.21,0.67-0.4,1.04-0.55c0.36-0.15,0.74-0.26,1.12-0.34
			c1.95-0.39,4.02,0.25,5.41,1.64c0.28,0.28,0.53,0.58,0.75,0.91s0.4,0.68,0.55,1.04s0.27,0.74,0.34,1.12
			c0.08,0.39,0.12,0.78,0.12,1.17s-0.04,0.79-0.12,1.18c-0.07,0.38-0.19,0.76-0.34,1.12s-0.33,0.71-0.55,1.03
			c-0.22,0.33-0.47,0.64-0.75,0.92C249.122,159.797,247.572,160.437,245.992,160.437z"/>
		<path style="fill:#9B592D;" d="M188.929,142.333h-21.875c-3.087,0-5.59-2.503-5.59-5.59l0,0c0-3.087,2.503-5.59,5.59-5.59h21.875
			c3.087,0,5.59,2.503,5.59,5.59l0,0C194.519,139.831,192.017,142.333,188.929,142.333z"/>
		<path style="fill:#9B592D;" d="M256.929,142.333h-21.875c-3.087,0-5.59-2.503-5.59-5.59l0,0c0-3.087,2.503-5.59,5.59-5.59h21.875
			c3.087,0,5.59,2.503,5.59,5.59l0,0C262.519,139.831,260.017,142.333,256.929,142.333z"/>
	</g>
	<path style="fill:#FFFFFF;" d="M237.223,193.997c0,2.98-0.52,5.83-1.48,8.49c-0.45,1.28-1.01,2.51-1.65,3.68
		c-4.3,7.78-12.58,13.05-22.1,13.05c-9.53,0-17.81-5.27-22.11-13.05c-0.65-1.17-1.21-2.4-1.66-3.68c-0.96-2.66-1.47-5.51-1.47-8.49
		H237.223z"/>
	<path style="fill:#333333;" d="M235.743,202.487c-0.45,1.28-1.01,2.51-1.65,3.68c-4.3,7.78-12.58,13.05-22.1,13.05
		c-9.53,0-17.81-5.27-22.11-13.05c-0.65-1.17-1.21-2.4-1.66-3.68H235.743z"/>
	<g>
		<path style="fill:#E5B591;" d="M194.412,368.111h-46.747c-1.657,0-3-1.343-3-3s1.343-3,3-3h46.747
			c2.226,0,4.172-1.426,4.842-3.548l2.217-7.021c0.499-1.58,2.185-2.454,3.764-1.958c1.58,0.499,2.457,2.184,1.958,3.764
			l-2.217,7.021C203.513,364.999,199.268,368.111,194.412,368.111z"/>
		<path style="fill:#E5B591;" d="M276.332,368.111h-46.746c-4.855,0-9.102-3.111-10.563-7.741l-2.218-7.021
			c-0.499-1.58,0.377-3.266,1.957-3.765c1.578-0.497,3.266,0.376,3.764,1.958l2.218,7.021c0.671,2.122,2.617,3.548,4.843,3.548
			h46.746c1.657,0,3,1.343,3,3S277.989,368.111,276.332,368.111z"/>
	</g>
	<g>
		<path style="fill:#E5B591;" d="M169.002,355.447c-0.79,0-1.56-0.32-2.12-0.88c-0.14-0.14-0.27-0.29-0.38-0.46
			c-0.11-0.16-0.2-0.34-0.27-0.52c-0.08-0.18-0.14-0.37-0.17-0.56c-0.04-0.19-0.06-0.39-0.06-0.58c0-0.2,0.02-0.4,0.06-0.59
			c0.03-0.19,0.09-0.38,0.17-0.56c0.07-0.18,0.16-0.36,0.27-0.52c0.11-0.16,0.24-0.32,0.38-0.45c1.12-1.12,3.12-1.12,4.24,0
			c0.14,0.13,0.26,0.29,0.37,0.45c0.11,0.16,0.2,0.34,0.28,0.52c0.07,0.18,0.13,0.37,0.17,0.56c0.04,0.19,0.06,0.39,0.06,0.59
			c0,0.19-0.02,0.39-0.06,0.58c-0.04,0.19-0.1,0.38-0.17,0.56c-0.08,0.18-0.17,0.36-0.28,0.52c-0.11,0.17-0.23,0.32-0.37,0.46
			C170.562,355.127,169.792,355.447,169.002,355.447z"/>
		<path style="fill:#E5B591;" d="M255.002,355.447c-0.79,0-1.57-0.32-2.12-0.88c-0.561-0.56-0.88-1.33-0.88-2.12
			s0.319-1.57,0.88-2.13c0.689-0.69,1.729-1.01,2.7-0.82c0.189,0.04,0.38,0.1,0.56,0.18c0.18,0.07,0.36,0.16,0.521,0.27
			c0.17,0.11,0.319,0.24,0.46,0.37c0.56,0.56,0.88,1.34,0.88,2.13s-0.32,1.56-0.88,2.12c-0.141,0.14-0.29,0.26-0.46,0.37
			c-0.16,0.11-0.341,0.2-0.521,0.28c-0.18,0.07-0.37,0.13-0.56,0.17C255.391,355.427,255.191,355.447,255.002,355.447z"/>
	</g>
	<g>
		<rect x="126.239" y="330.151" style="fill:#E5B591;" width="5" height="93.846"/>
		<rect x="292.758" y="330.151" style="fill:#E5B591;" width="5" height="93.846"/>
	</g>
	<g>
		<path style="fill:#E5B591;" d="M206.331,295.109c-1.277,0-2.461-0.822-2.862-2.106l-2.771-8.865l-34.798-5.062
			c-1.64-0.238-2.775-1.761-2.537-3.4c0.238-1.64,1.768-2.779,3.4-2.537l36.667,5.333c1.142,0.166,2.087,0.973,2.432,2.074
			l3.333,10.667c0.494,1.582-0.387,3.264-1.968,3.758C206.929,295.065,206.627,295.109,206.331,295.109z"/>
		<path style="fill:#E5B591;" d="M217.666,295.109c-0.297,0-0.598-0.044-0.896-0.138c-1.582-0.494-2.463-2.177-1.969-3.758
			l3.334-10.667c0.344-1.102,1.29-1.908,2.432-2.074l36.666-5.333c1.641-0.242,3.162,0.897,3.4,2.537
			c0.238,1.639-0.897,3.162-2.537,3.4l-34.798,5.062l-2.771,8.865C220.127,294.286,218.943,295.109,217.666,295.109z"/>
	</g>
	<g>
		<path style="fill:#E5B591;" d="M203.665,393.644h-14.667c-1.657,0-3-1.343-3-3s1.343-3,3-3h11.917l1.095-12.593
			c0.144-1.65,1.597-2.876,3.249-2.729c1.651,0.144,2.873,1.598,2.729,3.249l-1.333,15.333
			C206.519,392.454,205.221,393.644,203.665,393.644z"/>
		<path style="fill:#E5B591;" d="M234.999,393.644h-14.667c-1.556,0-2.854-1.19-2.988-2.74l-1.333-15.333
			c-0.144-1.65,1.078-3.105,2.729-3.249c1.622-0.15,3.104,1.078,3.248,2.729l1.096,12.593H235c1.657,0,3,1.343,3,3
			S236.656,393.644,234.999,393.644z"/>
	</g>
	<g>
		<path style="fill:#E5B591;" d="M203.665,419.644h-14.667c-1.657,0-3-1.343-3-3s1.343-3,3-3h11.917l1.095-12.593
			c0.144-1.65,1.597-2.879,3.249-2.729c1.651,0.144,2.873,1.598,2.729,3.249l-1.333,15.333
			C206.519,418.454,205.221,419.644,203.665,419.644z"/>
		<path style="fill:#E5B591;" d="M234.999,419.644h-14.667c-1.556,0-2.854-1.19-2.988-2.74l-1.333-15.333
			c-0.144-1.65,1.078-3.105,2.729-3.249c1.622-0.146,3.104,1.077,3.248,2.729l1.096,12.593H235c1.657,0,3,1.343,3,3
			S236.656,419.644,234.999,419.644z"/>
	</g>
</g>
<g>
</g>
<g>
</g>
<g>
</g>
<g>
</g>
<g>
</g>
<g>
</g>
<g>
</g>
<g>
</g>
<g>
</g>
<g>
</g>
<g>
</g>
<g>
</g>
<g>
</g>
<g>
</g>
<g>
</g>
</svg>
