<?xml version="1.0" encoding="UTF-8"?>
<svg width="186px" height="186px" viewBox="0 0 186 186" version="1.1" xmlns="http://www.w3.org/2000/svg" xmlns:xlink="http://www.w3.org/1999/xlink">
    <!-- Generator: Sketch 46.2 (44496) - http://www.bohemiancoding.com/sketch -->
    <title>Group 5</title>
    <desc>Created with Sketch.</desc>
    <defs></defs>
    <g id="Icons" stroke="none" stroke-width="1" fill="none" fill-rule="evenodd">
        <g id="Group-5">
            <rect id="Rectangle-8" stroke="#979797" x="0.5" y="0.5" width="185" height="185"></rect>
            <path d="M92.3786646,30 C100.966105,30 107.663761,32.3704558 112.471833,37.1114384 C117.279905,41.8524211 119.683905,48.2929046 119.683905,56.4330824 C119.683905,60.9057075 118.699942,64.9757354 116.731987,68.643288 C114.764032,72.3108406 112.035771,75.2403661 108.547124,77.4319524 C113.109201,79.3551812 116.620159,82.3517951 119.080103,86.421884 C121.540047,90.4919729 122.77,95.4565123 122.77,101.315651 C122.77,110.439807 120.556084,117.562355 116.128185,122.683511 C111.700286,127.804667 105.550519,130.365206 97.6786989,130.365206 C92.3115487,130.365206 87.3917349,128.95635 82.9191097,126.138597 L82.9191097,156.261576 L64,156.261576 L64,60.0558906 C64,51.2448191 66.6947162,44.0328193 72.0842295,38.4196747 C77.4737428,32.8065302 84.2384869,30 92.3786646,30 Z M100.697706,57.9761304 C100.697706,54.532209 99.9485523,51.6362277 98.4502229,49.2880995 C96.9518934,46.9399713 94.9280609,45.7659248 92.3786646,45.7659248 C89.5161845,45.7659248 87.2239985,47.0629666 85.5020378,49.6570892 C83.7800772,52.2512118 82.9191097,55.6727187 82.9191097,59.9217126 L82.9191097,111.647364 C85.6474111,113.615319 89.0912808,114.599281 93.2508221,114.599281 C96.4711122,114.599281 99.0316517,113.30224 100.932517,110.708117 C102.833383,108.113994 103.783802,104.87139 103.783802,100.980206 C103.783802,90.827347 100.317569,85.7509936 93.3850002,85.7509936 L88.8900344,85.7509936 L88.8900344,71.4610277 L92.7141098,71.4610277 C98.0365337,71.1926702 100.697706,66.6977494 100.697706,57.9761304 Z" id="β" fill="#F8E71C"></path>
        </g>
    </g>
</svg>