<?xml version="1.0" encoding="UTF-8"?>
<svg width="186px" height="186px" viewBox="0 0 186 186" version="1.1" xmlns="http://www.w3.org/2000/svg" xmlns:xlink="http://www.w3.org/1999/xlink">
    <!-- Generator: Sketch 52.3 (67297) - http://www.bohemiancoding.com/sketch -->
    <title>Artboard</title>
    <desc>Created with Sketch.</desc>
    <g id="Artboard" stroke="none" stroke-width="1" fill="none" fill-rule="evenodd">
        <g id="Group" transform="translate(0.000000, 4.000000)" fill="#FFFFFF">
            <path d="M81.8387126,126.72253 C60.6107547,117.929622 50.530155,93.5929013 59.3230631,72.3649433 C68.1159712,51.1369854 92.4526916,41.0563857 113.68065,49.8492938 C134.908608,58.6422019 144.989207,82.9789223 136.196299,104.20688 C127.403391,125.434838 103.066671,135.515438 81.8387126,126.72253 Z M84.4257212,120.476939 C102.204334,127.841081 122.586565,119.398485 129.950708,101.619872 C137.314851,83.8412585 128.872254,63.4590276 111.093641,56.0948849 C93.3150278,48.7307422 72.932797,57.1733387 65.5686543,74.9519519 C58.2045115,92.7305651 66.647108,113.112796 84.4257212,120.476939 Z" id="Combined-Shape" fill-opacity="0.1"></path>
            <path d="M168.080189,34.3368598 C179.711951,49.32943 186.636538,68.1567364 186.636538,88.6013667 C186.636538,137.53455 146.968355,177.202733 98.0351713,177.202733 C66.6863889,177.202733 39.1401996,160.921897 23.3907235,136.354343 L48.1735245,118.733516 C58.3859559,135.54409 76.8698906,146.773719 97.9766457,146.773719 C130.136671,146.773719 156.207523,120.702867 156.207523,88.5428411 C156.207523,84.0955107 155.708959,79.7646263 154.764672,75.6030301 L168.080189,34.3368598 Z M40.362666,97.0494711 L17.3878012,125.344195 C12.2799008,114.150855 9.4338046,101.708482 9.4338046,88.6013667 C9.4338046,39.6681831 49.1019877,0 98.0351713,0 C115.747559,0 132.246019,5.19744112 146.088636,14.1504074 L117.99159,33.8429144 C111.750393,31.5585906 105.009102,30.3119636 97.9766457,30.3119636 C65.8166201,30.3119636 39.7457682,56.3828155 39.7457682,88.5428411 C39.7457682,91.4323719 39.9562319,94.2727463 40.362666,97.0494711 Z" id="Combined-Shape" fill-opacity="0.5"></path>
            <polygon id="Path-2" points="-1.09478612e-13 153.025344 63.8979778 75.6315249 71.2056378 105.081245 109.911346 64.3615985 91.2217891 58.1822977 170.796821 0.789430029 141.915031 90.2971036 128.374863 75.6315249 67.2259975 125.383117 60.4021588 97.2469348"></polygon>
        </g>
    </g>
</svg>