<?xml version="1.0" encoding="UTF-8"?>
<svg width="703px" height="660px" viewBox="0 0 703 660" version="1.1" xmlns="http://www.w3.org/2000/svg" xmlns:xlink="http://www.w3.org/1999/xlink">
    <!-- Generator: Sketch 47.1 (45422) - http://www.bohemiancoding.com/sketch -->
    <title>Group</title>
    <desc>Created with Sketch.</desc>
    <defs>
        <linearGradient x1="50%" y1="0%" x2="50%" y2="100%" id="linearGradient-1">
            <stop stop-color="#BEBEBE" offset="0%"></stop>
            <stop stop-color="#FDFDFD" offset="100%"></stop>
        </linearGradient>
        <linearGradient x1="50%" y1="0%" x2="50%" y2="100%" id="linearGradient-2">
            <stop stop-color="#FFFD05" offset="0%"></stop>
            <stop stop-color="#FBB203" offset="100%"></stop>
        </linearGradient>
        <linearGradient x1="50%" y1="0%" x2="50%" y2="100%" id="linearGradient-3">
            <stop stop-color="#FEB202" offset="0%"></stop>
            <stop stop-color="#FFFE0C" offset="100%"></stop>
        </linearGradient>
        <rect id="path-4" x="6" y="487" width="703" height="154" rx="77"></rect>
        <linearGradient x1="50%" y1="0%" x2="50%" y2="100%" id="linearGradient-5">
            <stop stop-color="#F91201" offset="0%"></stop>
            <stop stop-color="#A10000" offset="100%"></stop>
        </linearGradient>
        <rect id="path-6" x="83" y="487" width="549" height="154"></rect>
        <filter x="-1.7%" y="-6.2%" width="103.5%" height="112.3%" filterUnits="objectBoundingBox" id="filter-7">
            <feGaussianBlur stdDeviation="9" in="SourceAlpha" result="shadowBlurInner1"></feGaussianBlur>
            <feOffset dx="0" dy="1" in="shadowBlurInner1" result="shadowOffsetInner1"></feOffset>
            <feComposite in="shadowOffsetInner1" in2="SourceAlpha" operator="arithmetic" k2="-1" k3="1" result="shadowInnerInner1"></feComposite>
            <feColorMatrix values="0 0 0 0 0   0 0 0 0 0   0 0 0 0 0  0 0 0 0.5 0" type="matrix" in="shadowInnerInner1"></feColorMatrix>
        </filter>
    </defs>
    <g id="Page-1" stroke="none" stroke-width="1" fill="none" fill-rule="evenodd">
        <g id="Group" transform="translate(-6.000000, -54.000000)">
            <circle id="Oval" fill="#D8D8D8" cx="368" cy="387" r="327"></circle>
            <circle id="Oval" fill="url(#linearGradient-1)" cx="368" cy="381" r="327"></circle>
            <g id="rings" transform="translate(368.000000, 368.000000) rotate(22.500000) translate(-368.000000, -368.000000) translate(87.000000, 87.000000)">
                <circle id="Oval" fill="#333333" cx="281" cy="281" r="281"></circle>
                <path d="M243.668152,506.689375 L282.337123,277.732558 L244.742498,55.1368831 C256.551385,53.2560542 268.661599,52.2790698 281,52.2790698 C295.208493,52.2790698 309.114386,53.5746547 322.605986,56.0541328 L283.465876,277.732558 L323.723046,505.737692 C309.882383,508.352782 295.600965,509.72093 281,509.72093 C268.287135,509.72093 255.816518,508.683744 243.668152,506.689375 Z" id="Combined-Shape" fill="#4A4A4A"></path>
                <path d="M243.668152,506.689375 L282.337123,277.732558 L244.742498,55.1368831 C256.551385,53.2560542 268.661599,52.2790698 281,52.2790698 C295.208493,52.2790698 309.114386,53.5746547 322.605986,56.0541328 L283.465876,277.732558 L323.723046,505.737692 C309.882383,508.352782 295.600965,509.72093 281,509.72093 C268.287135,509.72093 255.816518,508.683744 243.668152,506.689375 Z" id="Combined-Shape" fill="#4A4A4A"></path>
                <path d="M243.668152,506.689375 L282.337123,277.732558 L244.742498,55.1368831 C256.551385,53.2560542 268.661599,52.2790698 281,52.2790698 C295.208493,52.2790698 309.114386,53.5746547 322.605986,56.0541328 L283.465876,277.732558 L323.723046,505.737692 C309.882383,508.352782 295.600965,509.72093 281,509.72093 C268.287135,509.72093 255.816518,508.683744 243.668152,506.689375 Z" id="Combined-Shape" fill="#4A4A4A" transform="translate(283.695599, 281.000000) rotate(135.000000) translate(-283.695599, -281.000000) "></path>
                <path d="M243.668152,506.689375 L282.337123,277.732558 L244.742498,55.1368831 C256.551385,53.2560542 268.661599,52.2790698 281,52.2790698 C295.208493,52.2790698 309.114386,53.5746547 322.605986,56.0541328 L283.465876,277.732558 L323.723046,505.737692 C309.882383,508.352782 295.600965,509.72093 281,509.72093 C268.287135,509.72093 255.816518,508.683744 243.668152,506.689375 Z" id="Combined-Shape" fill="#4A4A4A" transform="translate(283.695599, 281.000000) rotate(90.000000) translate(-283.695599, -281.000000) "></path>
                <path d="M243.668152,506.689375 L282.337123,277.732558 L244.742498,55.1368831 C256.551385,53.2560542 268.661599,52.2790698 281,52.2790698 C295.208493,52.2790698 309.114386,53.5746547 322.605986,56.0541328 L283.465876,277.732558 L323.723046,505.737692 C309.882383,508.352782 295.600965,509.72093 281,509.72093 C268.287135,509.72093 255.816518,508.683744 243.668152,506.689375 Z" id="Combined-Shape" fill="#4A4A4A" transform="translate(283.695599, 281.000000) rotate(45.000000) translate(-283.695599, -281.000000) "></path>
                <circle id="Oval" stroke="#595959" stroke-width="7" cx="281" cy="281" r="228.72093"></circle>
                <circle id="Oval" stroke="#595959" stroke-width="6" cx="281" cy="281" r="143.767442"></circle>
                <circle id="Oval" stroke="#595959" fill="#282828" cx="281" cy="281" r="26.1395349"></circle>
            </g>
            <path d="M263.546772,395.491375 L263.546772,479.801763 L172,479.801763 L172,478.887534 L263.546772,395.491375 Z" id="Combined-Shape" fill="#D8D8D8"></path>
            <path d="M361.546772,383.156919 L361.546772,479.932393 L270,479.932393 L270,377.010901 L324.506181,326 L342.034613,399.24586 L361.546772,383.156919 Z" id="Combined-Shape" fill="#D8D8D8"></path>
            <path d="M460,302.502345 L460,480 L368,480 L368,377.922082 L460,302.502345 Z" id="Combined-Shape" fill="#D8D8D8"></path>
            <path d="M557.546772,204 L557.546772,479.719511 L466,479.719511 L466,296.674565 L498.936394,269.516539 L537.692908,292.590852 L557.546772,204 Z" id="Combined-Shape" fill="#D8D8D8"></path>
            <path d="M197.794095,448.78407 L326.98371,327.878908 L344.512143,401.124768 L501.585577,271.608329 L536.366281,309.786675 L579.735775,173.57194 L602.053527,163.439083 L539.80469,320.522909 L501.877067,296.110069 L340.37926,420.065826 L325.417749,346.252852 L165.289292,485.955375 L197.794095,448.78407 Z M440.830098,256.480015 L421.822439,245.26882 L439.353769,237.309127 L454.158236,242.269756 L440.830098,256.480015 Z" id="Combined-Shape" fill="#323232"></path>
            <polygon id="Path-2" stroke="#CB4105" stroke-width="6" fill="url(#linearGradient-2)" points="171.828347 473.08473 335.96344 271.608329 354.734667 348.27367 454.158236 242.269756 406.150267 226.183416 610.555098 76.774734 536.366281 309.786675 501.585577 271.608329 344.512143 401.124768 326.98371 327.878908"></polygon>
            <g id="Rectangle-3">
                <use fill="url(#linearGradient-3)" fill-rule="evenodd" xlink:href="#path-4"></use>
                <rect stroke="#EFAE42" stroke-width="2" x="7" y="488" width="701" height="152" rx="76"></rect>
            </g>
            <g id="Rectangle-4">
                <use fill="url(#linearGradient-5)" fill-rule="evenodd" xlink:href="#path-6"></use>
                <use fill="black" fill-opacity="1" filter="url(#filter-7)" xlink:href="#path-6"></use>
                <rect stroke="#E8581D" stroke-width="3" x="84.5" y="488.5" width="546" height="151"></rect>
            </g>
            <path d="M223.710938,559.046875 L227.929688,515.6875 L269.238281,515.6875 L269.238281,529.867188 L241.523438,529.867188 L240,548.148438 C240.468752,547.835936 241.035153,547.494142 241.699219,547.123047 C242.363285,546.751951 243.124996,546.400392 243.984375,546.068359 C244.843754,545.736326 245.771479,545.462892 246.767578,545.248047 C247.763677,545.033202 248.808588,544.925781 249.902344,544.925781 C253.457049,544.925781 256.601549,545.570306 259.335938,546.859375 C262.070326,548.148444 264.365225,550.023425 266.220703,552.484375 C268.076181,554.945325 269.482417,557.953107 270.439453,561.507812 C271.396489,565.062518 271.875,569.105446 271.875,573.636719 C271.875,577.4258 271.367193,581.039045 270.351562,584.476562 C269.335932,587.91408 267.792979,590.941393 265.722656,593.558594 C263.652333,596.175794 261.054703,598.265617 257.929688,599.828125 C254.804672,601.390633 251.132834,602.171875 246.914062,602.171875 C243.749984,602.171875 240.683609,601.61524 237.714844,600.501953 C234.746079,599.388666 232.099621,597.757823 229.775391,595.609375 C227.45116,593.460927 225.585945,590.843765 224.179688,587.757812 C222.77343,584.67186 222.050781,581.15627 222.011719,577.210938 L238.417969,577.210938 C238.691408,580.765643 239.570305,583.519521 241.054688,585.472656 C242.53907,587.425791 244.453113,588.402344 246.796875,588.402344 C248.359383,588.402344 249.687495,587.992192 250.78125,587.171875 C251.875005,586.351558 252.763668,585.238288 253.447266,583.832031 C254.130863,582.425774 254.619139,580.765635 254.912109,578.851562 C255.20508,576.93749 255.351562,574.867199 255.351562,572.640625 C255.351562,570.414051 255.156252,568.382822 254.765625,566.546875 C254.374998,564.710928 253.75977,563.148444 252.919922,561.859375 C252.080074,560.570306 251.025397,559.564457 249.755859,558.841797 C248.486322,558.119137 246.972665,557.757812 245.214844,557.757812 C244.042963,557.757812 243.017583,557.89453 242.138672,558.167969 C241.259761,558.441408 240.49805,558.792967 239.853516,559.222656 C239.208981,559.652346 238.652346,560.150388 238.183594,560.716797 C237.714841,561.283206 237.285158,561.859372 236.894531,562.445312 L223.710938,559.046875 Z M382.285156,565.726562 C382.285156,572.132845 381.679694,577.630836 380.46875,582.220703 C379.257806,586.81057 377.558605,590.580063 375.371094,593.529297 C373.183583,596.47853 370.576187,598.656243 367.548828,600.0625 C364.521469,601.468757 361.191424,602.171875 357.558594,602.171875 C353.925763,602.171875 350.585953,601.468757 347.539062,600.0625 C344.492172,598.656243 341.875011,596.47853 339.6875,593.529297 C337.499989,590.580063 335.791022,586.81057 334.560547,582.220703 C333.330072,577.630836 332.714844,572.132845 332.714844,565.726562 L332.714844,550.84375 C332.714844,544.476531 333.320306,538.99807 334.53125,534.408203 C335.742194,529.818336 337.441395,526.048843 339.628906,523.099609 C341.816417,520.150376 344.423813,517.982429 347.451172,516.595703 C350.478531,515.208977 353.808576,514.515625 357.441406,514.515625 C361.074237,514.515625 364.414047,515.208977 367.460938,516.595703 C370.507828,517.982429 373.124989,520.150376 375.3125,523.099609 C377.500011,526.048843 379.208978,529.818336 380.439453,534.408203 C381.669928,538.99807 382.285156,544.476531 382.285156,550.84375 L382.285156,565.726562 Z M365.644531,548.441406 C365.644531,544.691388 365.449221,541.537122 365.058594,538.978516 C364.667967,536.419909 364.121097,534.349617 363.417969,532.767578 C362.71484,531.185539 361.855474,530.042972 360.839844,529.339844 C359.824214,528.636715 358.691412,528.285156 357.441406,528.285156 C356.1914,528.285156 355.058599,528.636715 354.042969,529.339844 C353.027339,530.042972 352.167972,531.185539 351.464844,532.767578 C350.761715,534.349617 350.214846,536.419909 349.824219,538.978516 C349.433592,541.537122 349.238281,544.691388 349.238281,548.441406 L349.238281,568.011719 C349.238281,571.8008 349.433592,574.994128 349.824219,577.591797 C350.214846,580.189466 350.771481,582.289054 351.494141,583.890625 C352.2168,585.492196 353.085932,586.644528 354.101562,587.347656 C355.117193,588.050785 356.269525,588.402344 357.558594,588.402344 C358.8086,588.402344 359.931636,588.050785 360.927734,587.347656 C361.923833,586.644528 362.773434,585.492196 363.476562,583.890625 C364.179691,582.289054 364.716795,580.189466 365.087891,577.591797 C365.458986,574.994128 365.644531,571.8008 365.644531,568.011719 L365.644531,548.441406 Z M479.921875,601 L463.28125,601 L463.28125,535.84375 L447.050781,542.113281 L447.050781,528.285156 L478.164062,515.570312 L479.921875,515.570312 L479.921875,601 Z" id="501" fill="#FFFFFF"></path>
        </g>
    </g>
</svg>