<?xml version="1.0" encoding="UTF-8"?>
<svg width="276px" height="276px" viewBox="0 0 276 276" version="1.1" xmlns="http://www.w3.org/2000/svg" xmlns:xlink="http://www.w3.org/1999/xlink">
    <!-- Generator: Sketch 46.2 (44496) - http://www.bohemiancoding.com/sketch -->
    <title>Group 7</title>
    <desc>Created with Sketch.</desc>
    <defs></defs>
    <g id="Icons" stroke="none" stroke-width="1" fill="none" fill-rule="evenodd">
        <g id="Group-7" transform="translate(138.000000, 138.000000) rotate(-270.000000) translate(-138.000000, -138.000000) ">
            <path d="M-1.0658141e-14,124.271824 L124.271824,3.55271368e-15 L275.556962,0 L2.06501483e-14,275.556962 L0,124.271824 Z" id="Combined-Shape" fill="#D8D8D8"></path>
            <path d="M3.84112353,103.381651 C3.84112353,101.933076 3.47084729,100.838523 2.73028369,100.097959 C1.98972009,99.3573959 0.642891112,98.5883606 -1.31024365,97.7908306 C-4.8747146,96.4399124 -7.43816553,94.8570831 -9.00067334,93.0422954 C-10.5631812,91.2275077 -11.3444233,89.0831606 -11.3444233,86.6091899 C-11.3444233,83.6143833 -10.2824222,81.2096222 -8.15838819,79.3948345 C-6.03435413,77.5800468 -3.3366272,76.6726665 -0.0651264665,76.6726665 C2.11587402,76.6726665 4.06084155,77.1324601 5.76983447,78.052061 C7.47882739,78.971662 8.79310461,80.2696633 9.71270556,81.946104 C10.6323065,83.6225447 11.0921001,85.5268225 11.0921001,87.6589946 L3.93877978,87.6589946 C3.93877978,85.9988301 3.58477942,84.7333805 2.87676806,83.8626079 C2.16875671,82.9918353 1.14744531,82.5564556 -0.187196779,82.5564556 C-1.44045825,82.5564556 -2.41701099,82.9267318 -3.11688428,83.6672954 C-3.81675757,84.407859 -4.16668897,85.4047566 -4.16668897,86.6580181 C-4.16668897,87.6345854 -3.77606787,88.5175519 -2.99481397,89.3069438 C-2.21356006,90.0963358 -0.830110353,90.9141987 1.15557666,91.7605571 C4.62239087,93.0138186 7.14108313,94.5518892 8.711729,96.3748149 C10.2823749,98.1977407 11.067686,100.517053 11.067686,103.332823 C11.067686,106.425286 10.0829954,108.842254 8.11358447,110.583799 C6.14417358,112.325344 3.4667915,113.196104 0.0813579085,113.196104 C-2.21357544,113.196104 -4.30502588,112.724104 -6.19305615,111.780088 C-8.08108643,110.836073 -9.55812244,109.485175 -10.6242085,107.727354 C-11.6902946,105.969533 -12.2233296,103.894358 -12.2233296,101.501768 L-5.02118115,101.501768 C-5.02118115,103.55256 -4.62242212,105.041802 -3.82489209,105.969542 C-3.02736206,106.897281 -1.72529175,107.361143 0.0813579085,107.361143 C2.58788086,107.361143 3.84112353,106.034659 3.84112353,103.381651 Z M46.8508892,83.1423931 L38.0618267,83.1423931 L38.0618267,112.707823 L30.8596782,112.707823 L30.8596782,83.1423931 L22.2171001,83.1423931 L22.2171001,77.1609478 L46.8508892,77.1609478 L46.8508892,83.1423931 Z M73.0149517,105.432432 L63.2249126,105.432432 L61.3206157,112.707823 L53.7278423,112.707823 L64.8362407,77.1609478 L71.4036235,77.1609478 L82.5852642,112.707823 L74.9192485,112.707823 L73.0149517,105.432432 Z M64.7874126,99.4509868 L71.4280376,99.4509868 L68.1077251,86.7800884 L64.7874126,99.4509868 Z M104.672178,99.7195415 L101.107725,99.7195415 L101.107725,112.707823 L93.9299907,112.707823 L93.9299907,77.1609478 L105.380186,77.1609478 C108.977209,77.1609478 111.756316,78.0927418 113.717588,79.9563579 C115.678861,81.819974 116.659483,84.4688733 116.659483,87.9031353 C116.659483,92.6232109 114.942378,95.9272144 111.508116,97.8152446 L117.733702,112.366026 L117.733702,112.707823 L110.018858,112.707823 L104.672178,99.7195415 Z M101.107725,93.7380962 L105.184874,93.7380962 C106.617172,93.7380962 107.69138,93.2620267 108.40753,92.3098735 C109.123679,91.3577203 109.481749,90.0841328 109.481749,88.4890728 C109.481749,84.9246018 108.090161,83.1423931 105.306944,83.1423931 L101.107725,83.1423931 L101.107725,93.7380962 Z M151.392881,83.1423931 L142.603819,83.1423931 L142.603819,112.707823 L135.40167,112.707823 L135.40167,83.1423931 L126.759092,83.1423931 L126.759092,77.1609478 L151.392881,77.1609478 L151.392881,83.1423931 Z M181.878233,97.3269634 L170.696592,97.3269634 L170.696592,106.750792 L183.929014,106.750792 L183.929014,112.707823 L163.518858,112.707823 L163.518858,77.1609478 L183.880186,77.1609478 L183.880186,83.1423931 L170.696592,83.1423931 L170.696592,91.5408306 L181.878233,91.5408306 L181.878233,97.3269634 Z M196.054991,112.707823 L196.054991,77.1609478 L205.454405,77.1609478 C209.604816,77.1609478 212.912889,78.4792939 215.378721,81.1160259 C217.844554,83.7527578 219.101865,87.3660029 219.150694,91.9558696 L219.150694,97.7175884 C219.150694,102.388836 217.917796,106.054977 215.451963,108.716124 C212.986131,111.37727 209.588541,112.707823 205.259092,112.707823 L196.054991,112.707823 Z M203.232725,83.1423931 L203.232725,106.750792 L205.381163,106.750792 C207.773753,106.750792 209.458306,106.120101 210.434874,104.858702 C211.411441,103.597302 211.924131,101.420403 211.972959,98.3279399 L211.972959,92.1511821 C211.972959,88.830853 211.509097,86.5156093 210.581358,85.2053813 C209.653619,83.8951534 208.074859,83.2074976 205.84503,83.1423931 L203.232725,83.1423931 Z" id="STARTED" fill="#FFFFFF" transform="translate(103.463682, 94.934385) rotate(-45.000000) translate(-103.463682, -94.934385) "></path>
        </g>
    </g>
</svg>