<?xml version="1.0" encoding="UTF-8"?>
<svg width="24px" height="24px" viewBox="0 0 24 24" version="1.1" xmlns="http://www.w3.org/2000/svg" xmlns:xlink="http://www.w3.org/1999/xlink">
    <!-- Generator: Sketch 49.3 (51167) - http://www.bohemiancoding.com/sketch -->
    <title>Group</title>
    <desc>Created with Sketch.</desc>
    <defs>
        <rect id="path-1" x="0" y="0" width="24" height="24"></rect>
    </defs>
    <g id="Page-1" stroke="none" stroke-width="1" fill="none" fill-rule="evenodd">
        <g id="Group">
            <g id="Rectangle">
                <use fill="#D8D8D8" fill-rule="evenodd" xlink:href="#path-1"></use>
                <rect stroke="#979797" stroke-width="1" x="0.5" y="0.5" width="23" height="23"></rect>
            </g>
            <path d="M13.4312759,5.87943725 L20.8309859,5.87943725 C22.0288993,5.87943725 23,6.85053793 23,8.04845134 L23,19.8309859 C23,21.0288993 22.0288993,22 20.8309859,22 L3.16901408,22 C1.97110068,22 1,21.0288993 1,19.8309859 L1,8.04845134 C1,6.85053793 1.97110068,5.87943725 3.16901408,5.87943725 L10.4654377,5.87943725 L7.24347185,2.6574714 L7.90078238,2.00016087 L11.7800588,5.87943725 L12.1166549,5.87943725 L15.9959312,2.00016087 L16.6532418,2.6574714 L13.4312759,5.87943725 Z M3.0657277,8.04951301 L3.0657277,19.9332612 L21.0375587,19.9332612 L21.0375587,8.04951301 L3.0657277,8.04951301 Z M8.84976526,10.0129149 L15.8732394,14.0460353 L8.84976526,18.0791558 L8.84976526,10.0129149 Z" id="Combined-Shape" fill="#000000"></path>
        </g>
    </g>
</svg>