<?xml version="1.0" encoding="UTF-8"?>
<svg width="792px" height="792px" viewBox="0 0 792 792" version="1.1" xmlns="http://www.w3.org/2000/svg" xmlns:xlink="http://www.w3.org/1999/xlink">
    <!-- Generator: Sketch 52.3 (67297) - http://www.bohemiancoding.com/sketch -->
    <title>Group 8</title>
    <desc>Created with Sketch.</desc>
    <defs>
        <linearGradient x1="50%" y1="0%" x2="50%" y2="100%" id="linearGradient-1">
            <stop stop-color="#D61C1E" offset="0%"></stop>
            <stop stop-color="#610E0E" offset="100%"></stop>
        </linearGradient>
        <linearGradient x1="50%" y1="0%" x2="50%" y2="100%" id="linearGradient-2">
            <stop stop-color="#1071B4" offset="0%"></stop>
            <stop stop-color="#022441" offset="100%"></stop>
        </linearGradient>
        <linearGradient x1="50%" y1="0%" x2="50%" y2="100%" id="linearGradient-3">
            <stop stop-color="#F3F4F4" offset="0%"></stop>
            <stop stop-color="#7D7E7E" offset="100%"></stop>
        </linearGradient>
        <linearGradient x1="50%" y1="0%" x2="50%" y2="100%" id="linearGradient-4">
            <stop stop-color="#D61C1E" offset="0%"></stop>
            <stop stop-color="#771212" offset="100%"></stop>
        </linearGradient>
    </defs>
    <g id="https://cdn4.iconfinder.com/data/icons/competition-soft/512/first_prize-512.png" stroke="none" stroke-width="1" fill="none" fill-rule="evenodd">
        <g id="Group-8" fill-rule="nonzero">
            <rect id="Rectangle" stroke="#979797" fill="#D8D8D8" x="0.5" y="0.5" width="791" height="791"></rect>
            <g id="Group-5" transform="translate(71.000000, 0.000000)">
                <polygon id="Rectangle" fill="url(#linearGradient-1)" opacity="0.5" points="396 -1.13686838e-13 461 -1.13686838e-13 430.808078 86 365.808078 86"></polygon>
                <polygon id="Rectangle" fill="#510A0B" points="341 -2.16004992e-12 406 -2.38742359e-12 444.914238 86 379.914238 86"></polygon>
                <path d="M241,61.5 C216.975613,61.5 197.5,80.9756134 197.5,105 L197.5,183 C197.5,207.024387 216.975613,226.5 241,226.5 L415,226.5 C439.024387,226.5 458.5,207.024387 458.5,183 L458.5,105 C458.5,80.9756134 439.024387,61.5 415,61.5 L241,61.5 Z M247,81.5 L409,81.5 C424.187831,81.5 436.5,93.8121694 436.5,109 L436.5,179 C436.5,194.187831 424.187831,206.5 409,206.5 L247,206.5 C231.812169,206.5 219.5,194.187831 219.5,179 L219.5,109 C219.5,93.8121694 231.812169,81.5 247,81.5 Z" id="Combined-Shape" stroke="#979797" fill="#C0A577"></path>
                <circle id="Oval" stroke="#979797" fill="#EFD9A6" cx="325" cy="446" r="325"></circle>
                <circle id="Oval" stroke="#979797" fill="#875F33" cx="325" cy="446" r="302"></circle>
                <circle id="Oval" stroke="#979797" fill="#E5C88C" cx="325" cy="446" r="285"></circle>
                <g id="Group-4" transform="translate(39.000000, 232.000000)" fill="#E2B94E">
                    <path d="M66,264 C60.375,245.063291 58.5800562,235.037975 49.125,216.101266 C42.8216292,203.476793 30.4466292,190.109705 12,176 C16.5,202.734177 22.125,220.556962 28.875,229.468354 C39,242.835443 49.125,249.518987 66,264 Z" id="Path"></path>
                    <path d="M68.0930285,322.466258 C62.5057719,303.470646 60.7228315,293.414157 51.3313497,274.418506 C45.0703618,261.754739 32.7786858,248.345986 14.4563218,234.192249 C18.9262452,261.009549 24.5134904,278.887776 31.2180574,287.826929 C41.274908,301.235659 51.3316904,307.940075 68.0930285,322.466258 Z" id="Path" transform="translate(41.274675, 278.329254) rotate(-20.000000) translate(-41.274675, -278.329254) "></path>
                    <path d="M108.593545,387.310503 C103.006258,368.314833 101.223299,358.258316 91.8317957,339.262598 C85.5707936,326.598786 73.2791161,313.189974 54.9567632,299.03616 C59.4267375,325.853535 65.0140105,343.731817 71.7185821,352.671007 C81.7754395,366.079791 91.8322134,372.784246 108.593545,387.310503 Z" id="Path" transform="translate(81.775154, 343.173332) rotate(-26.000000) translate(-81.775154, -343.173332) "></path>
                    <path d="M134.492604,434.561521 C128.905319,415.565616 127.122347,405.508979 117.730889,386.513014 C111.469917,373.849038 99.1783356,360.440032 80.8561451,346.285998 C85.3261561,373.103693 90.9134238,390.982197 97.6179483,399.92151 C107.674735,413.33048 117.731416,420.035044 134.492604,434.561521 Z" id="Path" transform="translate(107.674375, 390.423760) rotate(-48.000000) translate(-107.674375, -390.423760) "></path>
                    <path d="M189.665956,472.444703 C184.078769,453.44867 182.295841,443.391961 172.90451,424.395878 C166.643623,411.731823 154.352175,398.322752 136.030166,384.168663 C140.500064,410.986549 146.087236,428.865173 152.791683,437.804536 C162.848354,451.213579 172.904939,457.918165 189.665956,472.444703 Z" id="Path" transform="translate(162.848061, 428.306683) rotate(-63.000000) translate(-162.848061, -428.306683) "></path>
                    <path d="M242.148203,497.924175 C236.561072,478.928106 234.77817,468.871377 225.386904,449.875269 C219.12606,437.211196 206.834672,423.802119 188.51274,409.648036 C192.982567,436.465978 198.569687,454.344634 205.274097,463.284003 C215.330714,476.693057 225.387259,483.397637 242.148203,497.924175 Z" id="Path" transform="translate(215.330471, 453.786105) rotate(-69.000000) translate(-215.330471, -453.786105) "></path>
                    <path d="M255.76823,445.725804 C250.180974,426.730191 248.398033,416.673703 239.006552,397.678052 C232.745564,385.014284 220.453888,371.605532 202.131524,357.451794 C206.601447,384.269095 212.188692,402.147322 218.893259,411.086475 C228.95011,424.495204 239.006892,431.19962 255.76823,445.725804 Z" id="Path" transform="translate(228.949877, 401.588799) rotate(-20.000000) translate(-228.949877, -401.588799) "></path>
                    <path d="M174.568367,398.942905 C168.981315,379.947427 167.198487,369.890996 157.807196,350.895524 C151.546335,338.231877 139.254773,324.823318 120.93251,310.669848 C125.402133,337.486999 130.989187,355.365095 137.693672,364.304137 C147.750401,377.712699 157.80714,384.416972 174.568367,398.942905 Z" id="Path" transform="translate(147.750439, 354.806377) rotate(3.000000) translate(-147.750439, -354.806377) "></path>
                    <path d="M125.234083,321.869625 C119.647251,302.874106 117.864534,292.817641 108.473482,273.822167 C102.212782,261.158517 89.9214185,247.750014 71.5993928,233.596656 C76.0687215,260.4139 81.6555664,278.292031 88.3599272,287.231051 C98.4164685,300.639581 108.473089,307.343787 125.234083,321.869625 Z" id="Path" transform="translate(98.416738, 277.733141) rotate(24.000000) translate(-98.416738, -277.733141) "></path>
                    <path d="M111.385198,235.117885 C105.798514,216.122134 104.015859,206.065542 94.6250052,187.06985 C88.3644363,174.406055 76.0732881,160.99742 57.7515606,146.843944 C62.2207273,173.661528 67.8074294,191.539876 74.5116667,200.47899 C84.5680227,213.88766 94.6244831,220.591917 111.385198,235.117885 Z" id="Path" transform="translate(84.568379, 190.980914) rotate(50.000000) translate(-84.568379, -190.980914) "></path>
                    <path d="M147.021555,150.156056 C141.434771,131.160039 139.652049,121.103316 130.261139,102.107325 C124.000533,89.4433313 111.70941,76.034436 93.38777,61.8806392 C97.8571172,88.6985692 103.44391,106.577171 110.148147,115.516445 C120.204504,128.925356 130.260907,135.629776 147.021555,150.156056 Z" id="Path" transform="translate(120.204663, 106.018347) rotate(77.000000) translate(-120.204663, -106.018347) "></path>
                    <path d="M172.395608,85.3864704 C166.808879,66.3905206 165.026189,56.3338288 155.635326,37.3379193 C149.37475,24.6739795 137.083646,11.2651621 118.762013,-2.88853305 C123.231273,23.9293146 128.818014,41.8078522 135.522236,50.7470796 C145.578568,64.1559207 155.634971,70.860288 172.395608,85.3864704 Z" id="Path" transform="translate(145.578810, 41.248969) rotate(69.000000) translate(-145.578810, -41.248969) "></path>
                    <path d="M63.3985239,195.400064 C57.8115696,176.404589 56.0287919,166.348153 46.6376034,147.352702 C40.3768111,134.689068 28.085329,121.280551 9.76315717,107.127151 C14.2326459,133.944315 19.8196074,151.822407 26.5240417,160.761428 C36.5806932,174.169959 46.6373878,180.874193 63.3985239,195.400064 Z" id="Path" transform="translate(36.580841, 151.263608) rotate(12.000000) translate(-36.580841, -151.263608) "></path>
                    <path d="M91.5340315,151.455923 C85.9472516,132.460364 84.1645586,122.403875 74.7735696,103.408369 C68.5129102,90.7446973 56.2216059,77.3361817 37.8996566,63.1828219 C42.3689213,90.0001285 47.9557165,107.878297 54.660042,116.817328 C64.7165303,130.225874 74.7731105,136.930078 91.5340315,151.455923 Z" id="Path" transform="translate(64.716844, 107.319372) rotate(30.000000) translate(-64.716844, -107.319372) "></path>
                    <path d="M130.584979,94.5865494 C124.998291,75.5908202 123.215636,65.5342391 113.824775,46.5385697 C107.564201,33.8747901 95.2730417,20.4661713 76.9512964,6.31271338 C81.4204639,33.1302673 87.0071693,51.0085955 93.7114126,59.9476981 C103.767778,73.356352 113.824248,80.0605999 130.584979,94.5865494 Z" id="Path" transform="translate(103.768138, 50.449631) rotate(48.000000) translate(-103.768138, -50.449631) "></path>
                    <circle id="Oval" cx="262.5" cy="479.5" r="12.5"></circle>
                    <path d="M559,264 C553.375,245.063291 551.580056,235.037975 542.125,216.101266 C535.821629,203.476793 523.446629,190.109705 505,176 C509.5,202.734177 515.125,220.556962 521.875,229.468354 C532,242.835443 542.125,249.518987 559,264 Z" id="Path" transform="translate(532.000000, 220.000000) scale(-1, 1) translate(-532.000000, -220.000000) "></path>
                    <path d="M556.543678,322.466258 C550.956422,303.470646 549.173481,293.414157 539.781999,274.418506 C533.521011,261.754739 521.229336,248.345986 502.906972,234.192249 C507.376895,261.009549 512.96414,278.887776 519.668707,287.826929 C529.725558,301.235659 539.78234,307.940075 556.543678,322.466258 Z" id="Path" transform="translate(529.725325, 278.329254) scale(-1, 1) rotate(-20.000000) translate(-529.725325, -278.329254) "></path>
                    <path d="M516.043237,387.310503 C510.45595,368.314833 508.672991,358.258316 499.281488,339.262598 C493.020485,326.598786 480.728808,313.189974 462.406455,299.03616 C466.876429,325.853535 472.463702,343.731817 479.168274,352.671007 C489.225131,366.079791 499.281905,372.784246 516.043237,387.310503 Z" id="Path" transform="translate(489.224846, 343.173332) scale(-1, 1) rotate(-26.000000) translate(-489.224846, -343.173332) "></path>
                    <path d="M490.143855,434.561521 C484.55657,415.565616 482.773598,405.508979 473.38214,386.513014 C467.121167,373.849038 454.829586,360.440032 436.507396,346.285998 C440.977407,373.103693 446.564674,390.982197 453.269199,399.92151 C463.325986,413.33048 473.382667,420.035044 490.143855,434.561521 Z" id="Path" transform="translate(463.325625, 390.423760) scale(-1, 1) rotate(-48.000000) translate(-463.325625, -390.423760) "></path>
                    <path d="M434.969834,472.444703 C429.382647,453.44867 427.599719,443.391961 418.208388,424.395878 C411.947501,411.731823 399.656053,398.322752 381.334044,384.168663 C385.803942,410.986549 391.391115,428.865173 398.095562,437.804536 C408.152232,451.213579 418.208817,457.918165 434.969834,472.444703 Z" id="Path" transform="translate(408.151939, 428.306683) scale(-1, 1) rotate(-63.000000) translate(-408.151939, -428.306683) "></path>
                    <path d="M382.48726,497.924175 C376.900129,478.928106 375.117227,468.871377 365.725962,449.875269 C359.465118,437.211196 347.17373,423.802119 328.851797,409.648036 C333.321625,436.465978 338.908744,454.344634 345.613155,463.284003 C355.669771,476.693057 365.726316,483.397637 382.48726,497.924175 Z" id="Path" transform="translate(355.669529, 453.786105) scale(-1, 1) rotate(-69.000000) translate(-355.669529, -453.786105) "></path>
                    <path d="M368.868476,445.725804 C363.28122,426.730191 361.498279,416.673703 352.106797,397.678052 C345.845809,385.014284 333.554134,371.605532 315.23177,357.451794 C319.701693,384.269095 325.288938,402.147322 331.993505,411.086475 C342.050356,424.495204 352.107138,431.19962 368.868476,445.725804 Z" id="Path" transform="translate(342.050123, 401.588799) scale(-1, 1) rotate(-20.000000) translate(-342.050123, -401.588799) "></path>
                    <path d="M450.06749,398.942905 C444.480438,379.947427 442.69761,369.890996 433.306318,350.895524 C427.045458,338.231877 414.753896,324.823318 396.431633,310.669848 C400.901255,337.486999 406.488309,355.365095 413.192795,364.304137 C423.249523,377.712699 433.306263,384.416972 450.06749,398.942905 Z" id="Path" transform="translate(423.249561, 354.806377) scale(-1, 1) rotate(3.000000) translate(-423.249561, -354.806377) "></path>
                    <path d="M499.400607,321.869625 C493.813776,302.874106 492.031058,292.817641 482.640007,273.822167 C476.379306,261.158517 464.087943,247.750014 445.765917,233.596656 C450.235246,260.4139 455.822091,278.292031 462.526452,287.231051 C472.582993,300.639581 482.639613,307.343787 499.400607,321.869625 Z" id="Path" transform="translate(472.583262, 277.733141) scale(-1, 1) rotate(24.000000) translate(-472.583262, -277.733141) "></path>
                    <path d="M513.248439,235.117885 C507.661755,216.122134 505.8791,206.065542 496.488246,187.06985 C490.227677,174.406055 477.936529,160.99742 459.614802,146.843944 C464.083968,173.661528 469.67067,191.539876 476.374908,200.47899 C486.431264,213.88766 496.487724,220.591917 513.248439,235.117885 Z" id="Path" transform="translate(486.431621, 190.980914) scale(-1, 1) rotate(50.000000) translate(-486.431621, -190.980914) "></path>
                    <path d="M477.61223,150.156056 C472.025445,131.160039 470.242724,121.103316 460.851814,102.107325 C454.591207,89.4433313 442.300084,76.034436 423.978445,61.8806392 C428.447792,88.6985692 434.034584,106.577171 440.738822,115.516445 C450.795179,128.925356 460.851582,135.629776 477.61223,150.156056 Z" id="Path" transform="translate(450.795337, 106.018347) scale(-1, 1) rotate(77.000000) translate(-450.795337, -106.018347) "></path>
                    <path d="M452.237987,85.3864704 C446.651258,66.3905206 444.868569,56.3338288 435.477705,37.3379193 C429.21713,24.6739795 416.926025,11.2651621 398.604392,-2.88853305 C403.073652,23.9293146 408.660393,41.8078522 415.364615,50.7470796 C425.420947,64.1559207 435.477351,70.860288 452.237987,85.3864704 Z" id="Path" transform="translate(425.421190, 41.248969) scale(-1, 1) rotate(69.000000) translate(-425.421190, -41.248969) "></path>
                    <path d="M561.236843,195.400064 C555.649889,176.404589 553.867111,166.348153 544.475922,147.352702 C538.21513,134.689068 525.923648,121.280551 507.601476,107.127151 C512.070965,133.944315 517.657926,151.822407 524.362361,160.761428 C534.419012,174.169959 544.475707,180.874193 561.236843,195.400064 Z" id="Path" transform="translate(534.419159, 151.263608) scale(-1, 1) rotate(12.000000) translate(-534.419159, -151.263608) "></path>
                    <path d="M533.100343,151.455923 C527.513564,132.460364 525.730871,122.403875 516.339881,103.408369 C510.079222,90.7446973 497.787918,77.3361817 479.465969,63.1828219 C483.935233,90.0001285 489.522028,107.878297 496.226354,116.817328 C506.282842,130.225874 516.339422,136.930078 533.100343,151.455923 Z" id="Path" transform="translate(506.283156, 107.319372) scale(-1, 1) rotate(30.000000) translate(-506.283156, -107.319372) "></path>
                    <path d="M494.048704,94.5865494 C488.462016,75.5908202 486.67936,65.5342391 477.2885,46.5385697 C471.027926,33.8747901 458.736766,20.4661713 440.415021,6.31271338 C444.884188,33.1302673 450.470894,51.0085955 457.175137,59.9476981 C467.231502,73.356352 477.287972,80.0605999 494.048704,94.5865494 Z" id="Path" transform="translate(467.231862, 50.449631) scale(-1, 1) rotate(48.000000) translate(-467.231862, -50.449631) "></path>
                    <circle id="Oval" transform="translate(308.500000, 479.500000) scale(-1, 1) translate(-308.500000, -479.500000) " cx="308.5" cy="479.5" r="12.5"></circle>
                </g>
                <polygon id="Rectangle" fill="url(#linearGradient-2)" points="191 0 256 0 295.075123 86 230.075123 86"></polygon>
                <polygon id="Rectangle" fill="url(#linearGradient-3)" points="256 3.18323146e-12 321 3.18323146e-12 360.092176 86 295.092176 86"></polygon>
                <polygon id="Rectangle" fill="url(#linearGradient-4)" points="321 -2.16004992e-12 386 -2.38742359e-12 424.914238 86 359.914238 86"></polygon>
            </g>
        </g>
    </g>
</svg>