<?xml version="1.0" encoding="UTF-8"?>
<svg width="792px" height="792px" viewBox="0 0 792 792" version="1.1" xmlns="http://www.w3.org/2000/svg" xmlns:xlink="http://www.w3.org/1999/xlink">
    <!-- Generator: Sketch 52.3 (67297) - http://www.bohemiancoding.com/sketch -->
    <title>Group 10</title>
    <desc>Created with Sketch.</desc>
    <defs>
        <linearGradient x1="50%" y1="0%" x2="50%" y2="100%" id="linearGradient-1">
            <stop stop-color="#D61C1E" offset="0%"></stop>
            <stop stop-color="#610E0E" offset="100%"></stop>
        </linearGradient>
        <linearGradient x1="50%" y1="0%" x2="50%" y2="100%" id="linearGradient-2">
            <stop stop-color="#1071B4" offset="0%"></stop>
            <stop stop-color="#022441" offset="100%"></stop>
        </linearGradient>
        <linearGradient x1="50%" y1="0%" x2="50%" y2="100%" id="linearGradient-3">
            <stop stop-color="#F3F4F4" offset="0%"></stop>
            <stop stop-color="#7D7E7E" offset="100%"></stop>
        </linearGradient>
        <linearGradient x1="50%" y1="0%" x2="50%" y2="100%" id="linearGradient-4">
            <stop stop-color="#D61C1E" offset="0%"></stop>
            <stop stop-color="#771212" offset="100%"></stop>
        </linearGradient>
    </defs>
    <g id="https://cdn4.iconfinder.com/data/icons/competition-soft/512/first_prize-512.png" stroke="none" stroke-width="1" fill="none" fill-rule="evenodd">
        <g id="Group-10" fill-rule="nonzero">
            <rect id="Rectangle" stroke="#979797" fill="#D8D8D8" x="0.5" y="0.5" width="791" height="791"></rect>
            <g id="Group-7" transform="translate(126.000000, 0.000000)">
                <polygon id="Rectangle" fill="url(#linearGradient-1)" opacity="0.5" points="329.056347 0 383 0 357.943653 71 304 71"></polygon>
                <polygon id="Rectangle" fill="#510A0B" points="284 -1.68943929e-12 337.794361 -1.87715476e-12 370 71 316.205639 71"></polygon>
                <path d="M208,50.5 C183.975613,50.5 164.5,69.9756134 164.5,94 L164.5,144 C164.5,168.024387 183.975613,187.5 208,187.5 L338,187.5 C362.024387,187.5 381.5,168.024387 381.5,144 L381.5,94 C381.5,69.9756134 362.024387,50.5 338,50.5 L208,50.5 Z M210.137405,66.9578313 L335.862595,66.9578313 C351.050426,66.9578313 363.362595,79.2700007 363.362595,94.4578313 L363.362595,143.542169 C363.362595,158.729999 351.050426,171.042169 335.862595,171.042169 L210.137405,171.042169 C194.949574,171.042169 182.637405,158.729999 182.637405,143.542169 L182.637405,94.4578313 C182.637405,79.2700007 194.949574,66.9578313 210.137405,66.9578313 Z" id="Combined-Shape" stroke="#979797" fill="#C25720"></path>
                <ellipse id="Oval" stroke="#979797" fill="#B9592D" cx="270" cy="370.5" rx="270" ry="270.5"></ellipse>
                <ellipse id="Oval" stroke="#979797" fill="#964222" cx="271" cy="371.5" rx="251" ry="251.5"></ellipse>
                <ellipse id="Oval" stroke="#979797" fill="#BB4F27" cx="271" cy="370.5" rx="237" ry="236.5"></ellipse>
                <g id="Group-4" transform="translate(33.000000, 193.000000)" fill="#973D19">
                    <path d="M54.9036778,219.733333 C50.224387,203.971871 48.7312201,195.627567 40.8658056,179.866104 C35.6221959,169.358462 25.3277564,158.232724 9.98248687,146.488889 C13.7259194,168.740366 18.4052102,183.574684 24.020359,190.991842 C32.4430823,202.117581 40.8658056,207.68045 54.9036778,219.733333 Z" id="Path"></path>
                    <path d="M56.6398493,268.389966 C51.9944058,252.581281 50.5125828,244.211818 42.7023037,228.403651 C37.4954509,217.864873 27.2716168,206.706937 12.0308011,194.929842 C15.745576,217.248449 20.3911713,232.127166 25.9675872,239.565993 C34.332211,250.724233 42.6977463,256.30267 56.6398493,268.389966 Z" id="Path" transform="translate(34.335325, 231.659904) rotate(-20.000000) translate(-34.335325, -231.659904) "></path>
                    <path d="M90.3306382,322.358971 C85.6856005,306.551062 84.2040296,298.181974 76.3940352,282.374699 C71.1873724,271.836517 60.9635591,260.679384 45.7225954,248.903303 C49.4366887,271.220919 54.0819127,286.098896 59.6582672,293.537233 C68.022799,304.694737 76.3884482,310.272652 90.3306382,322.358971 Z" id="Path" transform="translate(68.026617, 285.631137) rotate(-26.000000) translate(-68.026617, -285.631137) "></path>
                    <path d="M111.877681,361.678705 C107.232622,345.873934 105.751219,337.506456 97.9406237,321.702485 C92.7335603,311.166504 82.5084604,300.011951 67.2653241,288.238826 C70.9789269,310.552163 75.624221,325.427172 81.2012063,332.863854 C89.5666843,344.018877 97.9335725,349.595331 111.877681,361.678705 Z" id="Path" transform="translate(89.571503, 324.958766) rotate(-48.000000) translate(-89.571503, -324.958766) "></path>
                    <path d="M157.779704,393.206083 C153.133328,377.403035 151.651348,369.036514 143.839048,353.234116 C138.630848,342.699185 128.403966,331.54552 113.158401,319.773122 C116.873513,342.083893 121.52008,356.957295 127.098101,364.393326 C135.465133,375.547373 143.833312,381.123536 157.779704,393.206083 Z" id="Path" transform="translate(135.469052, 356.489603) rotate(-63.000000) translate(-135.469052, -356.489603) "></path>
                    <path d="M201.440638,414.412542 C196.793517,398.609952 195.311181,390.243709 187.49801,374.441658 C182.28923,363.906957 172.061547,352.753369 156.814962,340.980894 C160.531014,363.290916 165.178293,378.163895 170.756799,385.599831 C179.124558,396.753735 187.493266,402.329976 201.440638,414.412542 Z" id="Path" transform="translate(179.127800, 377.696718) rotate(-69.000000) translate(-179.127800, -377.696718) "></path>
                    <path d="M212.761953,370.981749 C208.116509,355.173065 206.634686,346.803602 198.824407,330.995435 C193.617554,320.456657 183.39372,309.29872 168.152904,297.521626 C171.867679,319.840233 176.513275,334.71895 182.08969,342.157776 C190.454314,353.316017 198.819849,358.894453 212.761953,370.981749 Z" id="Path" transform="translate(190.457428, 334.251687) rotate(-20.000000) translate(-190.457428, -334.251687) "></path>
                    <path d="M145.219939,332.050024 C140.571763,316.239538 139.088437,307.869307 131.275609,292.058738 C126.067057,281.518358 115.841697,270.357831 100.59953,258.577157 C104.318328,280.897766 108.966479,295.77823 114.543984,303.218549 C122.910241,314.379026 131.27635,319.959376 145.219939,332.050024 Z" id="Path" transform="translate(122.909734, 295.313590) rotate(3.000000) translate(-122.909734, -295.313590) "></path>
                    <path d="M104.188328,267.900764 C99.5372015,252.090831 98.052394,243.721051 90.2363541,227.910521 C85.0256609,217.370167 74.7976442,206.208903 59.5523041,194.426727 C63.2750317,216.746095 67.9259823,231.626083 73.5051559,239.066692 C81.8739164,250.227605 90.2416231,255.808852 104.188328,267.900764 Z" id="Path" transform="translate(81.870316, 231.163746) rotate(24.000000) translate(-81.870316, -231.163746) "></path>
                    <path d="M92.6752762,195.688373 C88.0221831,179.881541 86.5365438,171.513463 78.717859,155.705838 C73.5054024,145.167422 63.2745094,134.00792 48.02518,122.227331 C51.750075,144.542146 56.4029353,159.419233 61.9837609,166.858591 C70.3549994,178.017628 78.7248413,183.598194 92.6752762,195.688373 Z" id="Path" transform="translate(70.350228, 158.957852) rotate(50.000000) translate(-70.350228, -158.957852) "></path>
                    <path d="M122.319182,124.962186 C117.667428,109.158913 116.182677,100.792583 108.364747,84.9889577 C103.152794,74.4532072 92.9215659,63.2971817 77.6710622,51.5208812 C81.3935432,73.8310673 86.0451942,88.7047665 91.6260149,96.1419787 C99.997246,107.297797 108.367856,112.876172 122.319182,124.962186 Z" id="Path" transform="translate(99.995122, 88.241534) rotate(77.000000) translate(-99.995122, -88.241534) "></path>
                    <path d="M143.428718,71.0557704 C138.776198,55.2515818 137.291008,46.8848248 129.472423,31.0800978 C124.260033,20.5436131 114.028462,9.38651691 98.7777092,-2.39119084 C102.501458,19.9201551 107.153864,34.794749 112.734927,42.232591 C121.106522,53.3893539 129.477167,58.968447 143.428718,71.0557704 Z" id="Path" transform="translate(121.103213, 34.332290) rotate(69.000000) translate(-121.103213, -34.332290) "></path>
                    <path d="M52.7441317,162.637606 C48.0946459,146.827089 46.610646,138.456917 38.7964432,122.646072 C33.5869747,112.10551 23.3605475,100.944426 8.11716166,89.1628232 C11.83775,111.483259 16.4871397,126.363774 22.0653307,133.804368 C30.4326173,144.965259 38.799327,150.546137 52.7441317,162.637606 Z" id="Path" transform="translate(30.430647, 125.900215) rotate(12.000000) translate(-30.430647, -125.900215) "></path>
                    <path d="M76.1563721,126.060543 C71.5045523,110.251145 70.0194196,101.881679 62.2025501,86.0715836 C56.9913037,75.5315202 46.7624989,64.370416 31.5161356,52.5882708 C35.23972,74.9067952 39.8913351,89.7862891 45.4709809,97.2267524 C53.8404496,108.387447 62.2086903,113.968716 76.1563721,126.060543 Z" id="Path" transform="translate(53.836254, 89.324407) rotate(30.000000) translate(-53.836254, -89.324407) "></path>
                    <path d="M108.647096,78.721469 C103.994001,62.9142658 102.508353,54.5459936 94.6896929,38.7379902 C89.4772525,28.1993212 79.2463269,17.0394604 63.9969161,5.25840781 C67.7220118,27.5738986 72.3749591,42.4514146 77.9557579,49.8909557 C86.3269562,61.0502673 94.6967442,66.6309808 108.647096,78.721469 Z" id="Path" transform="translate(86.322006, 41.989938) rotate(48.000000) translate(-86.322006, -41.989938) "></path>
                    <ellipse id="Oval" cx="218.3669" cy="399.09899" rx="10.3984238" ry="10.4040404"></ellipse>
                    <path d="M465.017513,219.733333 C460.338222,203.971871 458.845055,195.627567 450.979641,179.866104 C445.736031,169.358462 435.441592,158.232724 420.096322,146.488889 C423.839755,168.740366 428.519046,183.574684 434.134194,190.991842 C442.556918,202.117581 450.979641,207.68045 465.017513,219.733333 Z" id="Path" transform="translate(442.556918, 183.111111) scale(-1, 1) translate(-442.556918, -183.111111) "></path>
                    <path d="M462.969199,268.389966 C458.323755,252.581281 456.841932,244.211818 449.031653,228.403651 C443.8248,217.864873 433.600966,206.706937 418.360151,194.929842 C422.074926,217.248449 426.720521,232.127166 432.296937,239.565993 C440.661561,250.724233 449.027096,256.30267 462.969199,268.389966 Z" id="Path" transform="translate(440.664675, 231.659904) scale(-1, 1) rotate(-20.000000) translate(-440.664675, -231.659904) "></path>
                    <path d="M429.277405,322.358971 C424.632367,306.551062 423.150796,298.181974 415.340802,282.374699 C410.134139,271.836517 399.910325,260.679384 384.669362,248.903303 C388.383455,271.220919 393.028679,286.098896 398.605034,293.537233 C406.969565,304.694737 415.335215,310.272652 429.277405,322.358971 Z" id="Path" transform="translate(406.973383, 285.631137) scale(-1, 1) rotate(-26.000000) translate(-406.973383, -285.631137) "></path>
                    <path d="M407.734676,361.678705 C403.089617,345.873934 401.608214,337.506456 393.797618,321.702485 C388.590555,311.166504 378.365455,300.011951 363.122319,288.238826 C366.835922,310.552163 371.481216,325.427172 377.058201,332.863854 C385.423679,344.018877 393.790567,349.595331 407.734676,361.678705 Z" id="Path" transform="translate(385.428497, 324.958766) scale(-1, 1) rotate(-48.000000) translate(-385.428497, -324.958766) "></path>
                    <path d="M361.841599,393.206083 C357.195223,377.403035 355.713243,369.036514 347.900943,353.234116 C342.692743,342.699185 332.465861,331.54552 317.220296,319.773122 C320.935408,342.083893 325.581975,356.957295 331.159996,364.393326 C339.527028,375.547373 347.895207,381.123536 361.841599,393.206083 Z" id="Path" transform="translate(339.530948, 356.489603) scale(-1, 1) rotate(-63.000000) translate(-339.530948, -356.489603) "></path>
                    <path d="M318.185038,414.412542 C313.537917,398.609952 312.055581,390.243709 304.24241,374.441658 C299.03363,363.906957 288.805947,352.753369 273.559362,340.980894 C277.275414,363.290916 281.922693,378.163895 287.501199,385.599831 C295.868958,396.753735 304.237666,402.329976 318.185038,414.412542 Z" id="Path" transform="translate(295.872200, 377.696718) scale(-1, 1) rotate(-69.000000) translate(-295.872200, -377.696718) "></path>
                    <path d="M306.847096,370.981749 C302.201652,355.173065 300.719829,346.803602 292.90955,330.995435 C287.702697,320.456657 277.478863,309.29872 262.238047,297.521626 C265.952822,319.840233 270.598418,334.71895 276.174834,342.157776 C284.539457,353.316017 292.904993,358.894453 306.847096,370.981749 Z" id="Path" transform="translate(284.542572, 334.251687) scale(-1, 1) rotate(-20.000000) translate(-284.542572, -334.251687) "></path>
                    <path d="M374.40047,332.050024 C369.752294,316.239538 368.268968,307.869307 360.45614,292.058738 C355.247588,281.518358 345.022228,270.357831 329.780061,258.577157 C333.498859,280.897766 338.14701,295.77823 343.724515,303.218549 C352.090772,314.379026 360.456881,319.959376 374.40047,332.050024 Z" id="Path" transform="translate(352.090266, 295.313590) scale(-1, 1) rotate(3.000000) translate(-352.090266, -295.313590) "></path>
                    <path d="M415.447696,267.900764 C410.79657,252.090831 409.311762,243.721051 401.495722,227.910521 C396.285029,217.370167 386.057012,206.208903 370.811672,194.426727 C374.5344,216.746095 379.18535,231.626083 384.764524,239.066692 C393.133285,250.227605 401.500991,255.808852 415.447696,267.900764 Z" id="Path" transform="translate(393.129684, 231.163746) scale(-1, 1) rotate(24.000000) translate(-393.129684, -231.163746) "></path>
                    <path d="M426.97482,195.688373 C422.321727,179.881541 420.836088,171.513463 413.017403,155.705838 C407.804946,145.167422 397.574053,134.00792 382.324724,122.227331 C386.049619,144.542146 390.702479,159.419233 396.283305,166.858591 C404.654543,178.017628 413.024385,183.598194 426.97482,195.688373 Z" id="Path" transform="translate(404.649772, 158.957852) scale(-1, 1) rotate(50.000000) translate(-404.649772, -158.957852) "></path>
                    <path d="M397.328938,124.962186 C392.677183,109.158913 391.192433,100.792583 383.374503,84.9889577 C378.16255,74.4532072 367.931322,63.2971817 352.680818,51.5208812 C356.403299,73.8310673 361.05495,88.7047665 366.635771,96.1419787 C375.007002,107.297797 383.377611,112.876172 397.328938,124.962186 Z" id="Path" transform="translate(375.004878, 88.241534) scale(-1, 1) rotate(77.000000) translate(-375.004878, -88.241534) "></path>
                    <path d="M376.222291,71.0557704 C371.569771,55.2515818 370.084581,46.8848248 362.265996,31.0800978 C357.053606,20.5436131 346.822035,9.38651691 331.571282,-2.39119084 C335.295031,19.9201551 339.947437,34.794749 345.5285,42.232591 C353.900095,53.3893539 362.27074,58.968447 376.222291,71.0557704 Z" id="Path" transform="translate(353.896787, 34.332290) scale(-1, 1) rotate(69.000000) translate(-353.896787, -34.332290) "></path>
                    <path d="M466.882838,162.637606 C462.233353,146.827089 460.749353,138.456917 452.93515,122.646072 C447.725681,112.10551 437.499254,100.944426 422.255868,89.1628232 C425.976457,111.483259 430.625846,126.363774 436.204037,133.804368 C444.571324,144.965259 452.938034,150.546137 466.882838,162.637606 Z" id="Path" transform="translate(444.569353, 125.900215) scale(-1, 1) rotate(12.000000) translate(-444.569353, -125.900215) "></path>
                    <path d="M443.483864,126.060543 C438.832045,110.251145 437.346912,101.881679 429.530042,86.0715836 C424.318796,75.5315202 414.089991,64.370416 398.843628,52.5882708 C402.567212,74.9067952 407.218827,89.7862891 412.798473,97.2267524 C421.167942,108.387447 429.536183,113.968716 443.483864,126.060543 Z" id="Path" transform="translate(421.163746, 89.324407) scale(-1, 1) rotate(30.000000) translate(-421.163746, -89.324407) "></path>
                    <path d="M411.003084,78.721469 C406.349989,62.9142658 404.864341,54.5459936 397.045681,38.7379902 C391.83324,28.1993212 381.602315,17.0394604 366.352904,5.25840781 C370.078,27.5738986 374.730947,42.4514146 380.311746,49.8909557 C388.682944,61.0502673 397.052732,66.6309808 411.003084,78.721469 Z" id="Path" transform="translate(388.677994, 41.989938) scale(-1, 1) rotate(48.000000) translate(-388.677994, -41.989938) "></path>
                    <ellipse id="Oval" transform="translate(256.633100, 399.098990) scale(-1, 1) translate(-256.633100, -399.098990) " cx="256.6331" cy="399.09899" rx="10.3984238" ry="10.4040404"></ellipse>
                </g>
                <polygon id="Rectangle" fill="url(#linearGradient-2)" points="158 0 211.711202 0 244 71 190.288798 71"></polygon>
                <polygon id="Rectangle" fill="url(#linearGradient-3)" points="213 2.62801667e-12 266.702403 2.62801667e-12 299 71 245.297597 71"></polygon>
                <polygon id="Rectangle" fill="url(#linearGradient-4)" points="267 -1.68943929e-12 320.794361 -1.87715476e-12 353 71 299.205639 71"></polygon>
            </g>
        </g>
    </g>
</svg>