<?xml version="1.0" encoding="UTF-8"?>
<svg width="792px" height="792px" viewBox="0 0 792 792" version="1.1" xmlns="http://www.w3.org/2000/svg" xmlns:xlink="http://www.w3.org/1999/xlink">
    <!-- Generator: Sketch 52.3 (67297) - http://www.bohemiancoding.com/sketch -->
    <title>Group 9</title>
    <desc>Created with Sketch.</desc>
    <defs>
        <linearGradient x1="50%" y1="0%" x2="50%" y2="100%" id="linearGradient-1">
            <stop stop-color="#D61C1E" offset="0%"></stop>
            <stop stop-color="#610E0E" offset="100%"></stop>
        </linearGradient>
        <linearGradient x1="50%" y1="0%" x2="50%" y2="100%" id="linearGradient-2">
            <stop stop-color="#1071B4" offset="0%"></stop>
            <stop stop-color="#022441" offset="100%"></stop>
        </linearGradient>
        <linearGradient x1="50%" y1="0%" x2="50%" y2="100%" id="linearGradient-3">
            <stop stop-color="#F3F4F4" offset="0%"></stop>
            <stop stop-color="#7D7E7E" offset="100%"></stop>
        </linearGradient>
        <linearGradient x1="50%" y1="0%" x2="50%" y2="100%" id="linearGradient-4">
            <stop stop-color="#D61C1E" offset="0%"></stop>
            <stop stop-color="#771212" offset="100%"></stop>
        </linearGradient>
    </defs>
    <g id="https://cdn4.iconfinder.com/data/icons/competition-soft/512/first_prize-512.png" stroke="none" stroke-width="1" fill="none" fill-rule="evenodd">
        <g id="Group-9" fill-rule="nonzero">
            <rect id="Rectangle" stroke="#979797" fill="#D8D8D8" x="0.5" y="0.5" width="791" height="791"></rect>
            <g id="Group-6" transform="translate(94.000000, 0.000000)">
                <polygon id="Rectangle" fill="url(#linearGradient-1)" opacity="0.5" points="367.910868 0 428 0 400.089132 80 340 80"></polygon>
                <polygon id="Rectangle" fill="#510A0B" points="317 -1.90359356e-12 377.675035 -2.11510396e-12 414 80 353.324965 80"></polygon>
                <path d="M227,56 L383,56 C407.300529,56 427,75.699471 427,100 L427,166 C427,190.300529 407.300529,210 383,210 L227,210 C202.699471,210 183,190.300529 183,166 L183,100 C183,75.699471 202.699471,56 227,56 Z M231.419847,75.4819277 C216.508159,75.4819277 204.419847,87.5702395 204.419847,102.481928 L204.419847,163.518072 C204.419847,178.429761 216.508159,190.518072 231.419847,190.518072 L378.580153,190.518072 C393.491841,190.518072 405.580153,178.429761 405.580153,163.518072 L405.580153,102.481928 C405.580153,87.5702395 393.491841,75.4819277 378.580153,75.4819277 L231.419847,75.4819277 Z" id="Combined-Shape" fill="#E0E0E0"></path>
                <ellipse id="Oval" stroke="#979797" fill="#E8E8E8" cx="302" cy="413.5" rx="302" ry="301.5"></ellipse>
                <ellipse id="Oval" stroke="#979797" fill="#8C8C8C" cx="301.5" cy="414" rx="280.5" ry="280"></ellipse>
                <ellipse id="Oval" stroke="#979797" fill="#E7E7E7" cx="301" cy="414" rx="265" ry="264"></ellipse>
                <g id="Group-4" transform="translate(36.000000, 215.000000)" fill="#A8A8A8">
                    <path d="M61.3765324,244.8 C56.1455779,227.240506 54.4763745,217.944304 45.683669,200.38481 C39.8218653,188.678481 28.3137655,176.283544 11.1593695,163.2 C15.3441331,187.989873 20.5750876,204.516456 26.8522329,212.779747 C36.267951,225.174684 45.683669,231.372152 61.3765324,244.8 Z" id="Path"></path>
                    <path d="M63.3524899,299.051031 C58.1420536,281.426171 56.4759255,272.096384 47.7289498,254.468218 C41.8976327,242.716107 30.459339,230.267775 13.4140687,217.123221 C17.5925174,242.002406 22.8019826,258.590795 29.0424644,266.888388 C38.4031871,279.334778 47.7580832,285.562343 63.3524899,299.051031 Z" id="Path" transform="translate(38.383279, 258.087126) rotate(-20.000000) translate(-38.383279, -258.087126) "></path>
                    <path d="M101.019021,359.193416 C95.805991,341.563597 94.1382508,332.231415 85.3894547,314.597543 C79.556924,302.841628 68.1184967,290.388156 51.0741727,277.237127 C55.2569781,302.122641 60.4688178,318.715762 66.7096916,327.01649 C76.0710024,339.467581 85.4251701,345.698484 101.019021,359.193416 Z" id="Path" transform="translate(76.046597, 318.215271) rotate(-26.000000) translate(-76.046597, -318.215271) "></path>
                    <path d="M125.090146,403.057915 C119.877252,385.408039 118.20844,376.065567 109.463485,358.410576 C103.633514,346.640582 92.2033118,334.170621 75.1728766,321.000694 C79.3588177,345.91357 84.570209,362.52566 90.8070505,370.836964 C100.162313,383.303919 109.50856,389.544158 125.090146,403.057915 Z" id="Path" transform="translate(100.131511, 362.029304) rotate(-48.000000) translate(-100.131511, -362.029304) "></path>
                    <path d="M176.370183,438.207829 C171.165704,420.546943 169.500579,411.198347 160.766524,393.5333 C154.943821,381.756602 143.525012,369.280963 126.510098,356.106383 C130.686393,381.03566 135.88965,397.658031 142.119868,405.973493 C151.465197,418.446688 160.803192,424.688785 176.370183,438.207829 Z" id="Path" transform="translate(151.440141, 397.157106) rotate(-63.000000) translate(-151.440141, -397.157106) "></path>
                    <path d="M225.162086,461.838401 C219.962374,444.174582 218.299525,434.824211 209.571036,417.156949 C203.752043,405.378775 192.338352,392.902645 175.329964,379.728557 C179.500247,404.662622 184.698949,421.287691 190.926069,429.603764 C200.266749,442.077873 209.601363,448.319476 225.162086,461.838401 Z" id="Path" transform="translate(200.246025, 420.783479) rotate(-69.000000) translate(-200.246025, -420.783479) "></path>
                    <path d="M237.880567,413.346246 C232.670131,395.721386 231.004003,386.391599 222.257027,368.763433 C216.42571,357.011322 204.987417,344.56299 187.942146,331.418436 C192.120595,356.297621 197.33006,372.88601 203.570542,381.183603 C212.931265,393.629993 222.286161,399.857558 237.880567,413.346246 Z" id="Path" transform="translate(212.911357, 372.382341) rotate(-20.000000) translate(-212.911357, -372.382341) "></path>
                    <path d="M162.333043,369.92545 C157.140075,352.312103 155.483557,342.987224 146.752874,325.374415 C140.932419,313.632543 129.503876,301.200772 112.467247,288.079103 C116.61998,312.945487 121.813106,329.522708 128.046627,337.810766 C137.396908,350.242852 146.748136,356.458185 162.333043,369.92545 Z" id="Path" transform="translate(137.400145, 329.002276) rotate(3.000000) translate(-137.400145, -329.002276) "></path>
                    <path d="M116.405385,298.453803 C111.231276,280.836923 109.584226,271.509159 100.874076,253.896102 C95.0673099,242.154064 83.6557529,229.727007 66.6394053,216.614931 C70.7670161,241.489254 75.9422478,258.069517 82.1651004,266.355718 C91.4993793,278.785021 100.840395,284.99462 116.405385,298.453803 Z" id="Path" transform="translate(91.522395, 257.534367) rotate(24.000000) translate(-91.522395, -257.534367) "></path>
                    <path d="M103.48216,218.05236 C98.3206241,200.415661 96.6788916,191.07702 87.9856495,173.445386 C82.1901547,161.690963 70.7969847,149.252643 53.8061393,136.130426 C57.9198947,161.033847 63.0829185,177.632656 69.2952108,185.926853 C78.6136492,198.368149 87.9410146,204.582101 103.48216,218.05236 Z" id="Path" transform="translate(78.644150, 177.091393) rotate(50.000000) translate(-78.644150, -177.091393) "></path>
                    <path d="M136.628347,139.331976 C131.458255,121.672525 129.81084,112.322707 121.112771,94.6655105 C115.314059,82.8940461 103.923033,70.4334987 86.9396942,57.2838682 C91.0688805,82.2168841 96.2396354,98.8373494 102.451959,107.145264 C111.770444,119.607136 121.092903,125.835092 136.628347,139.331976 Z" id="Path" transform="translate(111.784021, 98.307922) rotate(77.000000) translate(-111.784021, -98.307922) "></path>
                    <path d="M160.216827,79.255454 C155.051457,61.6017209 153.406796,52.2545639 144.71263,34.6042724 C138.916519,22.8374114 127.52713,10.3835442 110.544463,-2.75732932 C114.666041,22.1686016 119.832319,38.7835432 126.043299,47.0874955 C135.359768,59.5434239 144.682302,65.7668389 160.216827,79.255454 Z" id="Path" transform="translate(135.380645, 38.249062) rotate(69.000000) translate(-135.380645, -38.249062) "></path>
                    <path d="M58.9301873,181.179666 C53.745592,163.566523 52.0933788,154.241271 43.3714854,136.63022 C37.5568899,124.889519 26.1351721,112.461302 9.1063322,99.3455699 C13.2476178,124.213064 18.4328276,140.789959 24.6619616,149.076256 C34.0056627,161.505702 43.3530507,167.717659 58.9301873,181.179666 Z" id="Path" transform="translate(34.018260, 140.262618) rotate(12.000000) translate(-34.018260, -140.262618) "></path>
                    <path d="M85.0527892,140.439401 C79.8831139,122.819105 78.2381424,113.489338 69.5332961,95.8734971 C63.7300652,84.1296032 52.3235466,71.701522 35.3137403,58.5892537 C39.4358735,83.4689667 44.6068573,100.052389 50.8266916,108.339521 C60.1564431,120.770219 69.4940448,126.97968 85.0527892,140.439401 Z" id="Path" transform="translate(60.183265, 99.514327) rotate(30.000000) translate(-60.183265, -99.514327) "></path>
                    <path d="M121.338853,87.7370574 C116.177044,70.1022065 114.535277,60.7645291 105.841407,43.1347935 C100.045494,31.3816364 88.6513511,18.944731 71.6589793,5.82407717 C75.7728002,30.7249331 80.9361113,47.3219979 87.1489127,55.6152715 C96.4681149,68.055182 105.796332,74.2683759 121.338853,87.7370574 Z" id="Path" transform="translate(96.498916, 46.780567) rotate(48.000000) translate(-96.498916, -46.780567) "></path>
                    <ellipse id="Oval" cx="244.111208" cy="444.627273" rx="11.6243433" ry="11.5909091"></ellipse>
                    <path d="M519.84063,244.8 C514.609676,227.240506 512.940473,217.944304 504.147767,200.38481 C498.285963,188.678481 486.777864,176.283544 469.623468,163.2 C473.808231,187.989873 479.039186,204.516456 485.316331,212.779747 C494.732049,225.174684 504.147767,231.372152 519.84063,244.8 Z" id="Path" transform="translate(494.732049, 204.000000) scale(-1, 1) translate(-494.732049, -204.000000) "></path>
                    <path d="M517.585931,299.051031 C512.375495,281.426171 510.709367,272.096384 501.962391,254.468218 C496.131074,242.716107 484.69278,230.267775 467.64751,217.123221 C471.825959,242.002406 477.035424,258.590795 483.275906,266.888388 C492.636628,279.334778 501.991524,285.562343 517.585931,299.051031 Z" id="Path" transform="translate(492.616721, 258.087126) scale(-1, 1) rotate(-20.000000) translate(-492.616721, -258.087126) "></path>
                    <path d="M479.925827,359.193416 C474.712797,341.563597 473.045057,332.231415 464.296261,314.597543 C458.46373,302.841628 447.025303,290.388156 429.980979,277.237127 C434.163784,302.122641 439.375624,318.715762 445.616498,327.01649 C454.977809,339.467581 464.331976,345.698484 479.925827,359.193416 Z" id="Path" transform="translate(454.953403, 318.215271) scale(-1, 1) rotate(-26.000000) translate(-454.953403, -318.215271) "></path>
                    <path d="M455.827123,403.057915 C450.61423,385.408039 448.945417,376.065567 440.200462,358.410576 C434.370492,346.640582 422.940289,334.170621 405.909854,321.000694 C410.095795,345.91357 415.307186,362.52566 421.544028,370.836964 C430.89929,383.303919 440.245537,389.544158 455.827123,403.057915 Z" id="Path" transform="translate(430.868489, 362.029304) scale(-1, 1) rotate(-48.000000) translate(-430.868489, -362.029304) "></path>
                    <path d="M404.489902,438.207829 C399.285423,420.546943 397.620298,411.198347 388.886243,393.5333 C383.063539,381.756602 371.644731,369.280963 354.629817,356.106383 C358.806111,381.03566 364.009368,397.658031 370.239587,405.973493 C379.584915,418.446688 388.92291,424.688785 404.489902,438.207829 Z" id="Path" transform="translate(379.559859, 397.157106) scale(-1, 1) rotate(-63.000000) translate(-379.559859, -397.157106) "></path>
                    <path d="M355.670036,461.838401 C350.470324,444.174582 348.807475,434.824211 340.078986,417.156949 C334.259993,405.378775 322.846302,392.902645 305.837914,379.728557 C310.008197,404.662622 315.206899,421.287691 321.434019,429.603764 C330.774699,442.077873 340.109313,448.319476 355.670036,461.838401 Z" id="Path" transform="translate(330.753975, 420.783479) scale(-1, 1) rotate(-69.000000) translate(-330.753975, -420.783479) "></path>
                    <path d="M343.057854,413.346246 C337.847417,395.721386 336.181289,386.391599 327.434314,368.763433 C321.602997,357.011322 310.164703,344.56299 293.119433,331.418436 C297.297881,356.297621 302.507346,372.88601 308.747828,381.183603 C318.108551,393.629993 327.463447,399.857558 343.057854,413.346246 Z" id="Path" transform="translate(318.088643, 372.382341) scale(-1, 1) rotate(-20.000000) translate(-318.088643, -372.382341) "></path>
                    <path d="M418.532753,369.92545 C413.339784,352.312103 411.683267,342.987224 402.952583,325.374415 C397.132128,313.632543 385.703586,301.200772 368.666957,288.079103 C372.819689,312.945487 378.012816,329.522708 384.246336,337.810766 C393.596617,350.242852 402.947846,356.458185 418.532753,369.92545 Z" id="Path" transform="translate(393.599855, 329.002276) scale(-1, 1) rotate(3.000000) translate(-393.599855, -329.002276) "></path>
                    <path d="M464.360595,298.453803 C459.186486,280.836923 457.539436,271.509159 448.829286,253.896102 C443.022519,242.154064 431.610962,229.727007 414.594615,216.614931 C418.722226,241.489254 423.897457,258.069517 430.12031,266.355718 C439.454589,278.785021 448.795604,284.99462 464.360595,298.453803 Z" id="Path" transform="translate(439.477605, 257.534367) scale(-1, 1) rotate(24.000000) translate(-439.477605, -257.534367) "></path>
                    <path d="M477.193861,218.05236 C472.032325,200.415661 470.390592,191.07702 461.69735,173.445386 C455.901855,161.690963 444.508685,149.252643 427.51784,136.130426 C431.631595,161.033847 436.794619,177.632656 443.006911,185.926853 C452.32535,198.368149 461.652715,204.582101 477.193861,218.05236 Z" id="Path" transform="translate(452.355850, 177.091393) scale(-1, 1) rotate(50.000000) translate(-452.355850, -177.091393) "></path>
                    <path d="M444.060306,139.331976 C438.890213,121.672525 437.242799,112.322707 428.54473,94.6655105 C422.746017,82.8940461 411.354991,70.4334987 394.371653,57.2838682 C398.500839,82.2168841 403.671594,98.8373494 409.883917,107.145264 C419.202402,119.607136 428.524861,125.835092 444.060306,139.331976 Z" id="Path" transform="translate(419.215979, 98.307922) scale(-1, 1) rotate(77.000000) translate(-419.215979, -98.307922) "></path>
                    <path d="M420.455537,79.255454 C415.290167,61.6017209 413.645506,52.2545639 404.95134,34.6042724 C399.155229,22.8374114 387.76584,10.3835442 370.783173,-2.75732932 C374.904751,22.1686016 380.071029,38.7835432 386.282009,47.0874955 C395.598478,59.5434239 404.921012,65.7668389 420.455537,79.255454 Z" id="Path" transform="translate(395.619355, 38.249062) scale(-1, 1) rotate(69.000000) translate(-395.619355, -38.249062) "></path>
                    <path d="M521.893668,181.179666 C516.709072,163.566523 515.056859,154.241271 506.334966,136.63022 C500.52037,124.889519 489.098653,112.461302 472.069813,99.3455699 C476.211098,124.213064 481.396308,140.789959 487.625442,149.076256 C496.969143,161.505702 506.316531,167.717659 521.893668,181.179666 Z" id="Path" transform="translate(496.981740, 140.262618) scale(-1, 1) rotate(12.000000) translate(-496.981740, -140.262618) "></path>
                    <path d="M495.68626,140.439401 C490.516584,122.819105 488.871613,113.489338 480.166767,95.8734971 C474.363536,84.1296032 462.957017,71.701522 445.947211,58.5892537 C450.069344,83.4689667 455.240328,100.052389 461.460162,108.339521 C470.789914,120.770219 480.127515,126.97968 495.68626,140.439401 Z" id="Path" transform="translate(470.816735, 99.514327) scale(-1, 1) rotate(30.000000) translate(-470.816735, -99.514327) "></path>
                    <path d="M459.341021,87.7370574 C454.179212,70.1022065 452.537445,60.7645291 443.843575,43.1347935 C438.047661,31.3816364 426.653519,18.944731 409.661147,5.82407717 C413.774968,30.7249331 418.938279,47.3219979 425.15108,55.6152715 C434.470282,68.055182 443.7985,74.2683759 459.341021,87.7370574 Z" id="Path" transform="translate(434.501084, 46.780567) scale(-1, 1) rotate(48.000000) translate(-434.501084, -46.780567) "></path>
                    <ellipse id="Oval" transform="translate(286.888792, 444.627273) scale(-1, 1) translate(-286.888792, -444.627273) " cx="286.888792" cy="444.627273" rx="11.6243433" ry="11.5909091"></ellipse>
                </g>
                <polygon id="Rectangle" fill="url(#linearGradient-2)" points="177 0 237.58124 0 274 80 213.41876 80"></polygon>
                <polygon id="Rectangle" fill="url(#linearGradient-3)" points="237 2.96114554e-12 297.571315 2.96114554e-12 334 80 273.428685 80"></polygon>
                <polygon id="Rectangle" fill="url(#linearGradient-4)" points="298 -1.90359356e-12 358.675035 -2.11510396e-12 395 80 334.324965 80"></polygon>
            </g>
        </g>
    </g>
</svg>