<?xml version="1.0" encoding="UTF-8"?>
<svg width="72px" height="72px" viewBox="0 0 72 72" version="1.1" xmlns="http://www.w3.org/2000/svg" xmlns:xlink="http://www.w3.org/1999/xlink">
    <!-- Generator: Sketch 52.3 (67297) - http://www.bohemiancoding.com/sketch -->
    <title>Group 10</title>
    <desc>Created with Sketch.</desc>
    <defs>
        <linearGradient x1="50%" y1="0%" x2="50%" y2="100%" id="linearGradient-1">
            <stop stop-color="#D61C1E" offset="0%"></stop>
            <stop stop-color="#610E0E" offset="100%"></stop>
        </linearGradient>
        <linearGradient x1="50%" y1="0%" x2="50%" y2="100%" id="linearGradient-2">
            <stop stop-color="#1071B4" offset="0%"></stop>
            <stop stop-color="#022441" offset="100%"></stop>
        </linearGradient>
        <linearGradient x1="50%" y1="0%" x2="50%" y2="100%" id="linearGradient-3">
            <stop stop-color="#F3F4F4" offset="0%"></stop>
            <stop stop-color="#7D7E7E" offset="100%"></stop>
        </linearGradient>
        <linearGradient x1="50%" y1="0%" x2="50%" y2="100%" id="linearGradient-4">
            <stop stop-color="#D61C1E" offset="0%"></stop>
            <stop stop-color="#771212" offset="100%"></stop>
        </linearGradient>
    </defs>
    <g id="https://cdn4.iconfinder.com/data/icons/competition-soft/512/first_prize-512.png" stroke="none" stroke-width="1" fill="none" fill-rule="evenodd">
        <g id="Group-10" fill-rule="nonzero">
            <rect id="Rectangle" stroke="#979797" fill="#D8D8D8" x="0.5" y="0.5" width="71" height="71"></rect>
            <g id="Group-7" transform="translate(8.181818, 0.000000)">
                <polygon id="Rectangle" fill="url(#linearGradient-1)" opacity="0.5" points="33.867746 0 39.4545455 0 36.8595267 7.36363636 31.2727273 7.36363636"></polygon>
                <polygon id="Rectangle" fill="#510A0B" points="29.2727273 -1.75217135e-13 34.7886395 -1.94685705e-13 38.0909091 7.36363636 32.5749969 7.36363636"></polygon>
                <path d="M24.0454545,5.59090909 C20.3802921,5.59090909 17.4090909,8.5621103 17.4090909,12.2272727 C17.4090909,15.8924352 20.3802921,18.8636364 24.0454545,18.8636364 L32.2272727,18.8636364 C35.8924352,18.8636364 38.8636364,15.8924352 38.8636364,12.2272727 C38.8636364,8.5621103 35.8924352,5.59090909 32.2272727,5.59090909 L24.0454545,5.59090909 Z M24.2110691,6.39649507 L32.0616582,6.39649507 C35.2819077,6.39649507 37.8924358,9.00702315 37.8924358,12.2272727 C37.8924358,15.4475223 35.2819077,18.0580504 32.0616582,18.0580504 L24.2110691,18.0580504 C20.9908195,18.0580504 18.3802915,15.4475223 18.3802915,12.2272727 C18.3802915,9.00702315 20.9908195,6.39649507 24.2110691,6.39649507 Z" id="Combined-Shape" stroke="#979797" fill="#C25720"></path>
                <ellipse id="Oval" fill="#B9592D" cx="27.8181818" cy="38.1818182" rx="27.8181818" ry="27.9090909"></ellipse>
                <ellipse id="Oval" fill="#964222" cx="27.9545455" cy="38.2727273" rx="25.8636364" ry="25.9090909"></ellipse>
                <ellipse id="Oval" fill="#BB4F27" cx="27.9545455" cy="38.1818182" rx="24.4090909" ry="24.3636364"></ellipse>
                <g id="Group-4" transform="translate(3.454545, 19.909091)" fill="#973D19">
                    <path d="M5.65323993,22.6424242 C5.17142971,21.0182841 5.01768353,20.1584452 4.20780927,18.5343051 C3.66789309,17.451545 2.60791061,16.3050931 1.02786181,15.0949495 C1.41330998,17.3878532 1.8951202,18.9164557 2.47329247,19.6807569 C3.34055087,20.8272088 4.20780927,21.4004347 5.65323993,22.6424242 Z" id="Path"></path>
                    <path d="M5.83128553,27.6553475 C5.35331666,26.0266038 5.20093608,25.1642866 4.39706605,23.5356761 C3.86115271,22.4499357 2.80862785,21.3005264 1.23949149,20.0874483 C1.62145987,22.3869707 2.09946785,23.9198945 2.67351543,24.6862195 C3.5345868,25.8357069 4.39589282,26.4102747 5.83128553,27.6553475 Z" id="Path" transform="translate(3.535389, 23.871398) rotate(-20.000000) translate(-3.535389, -23.871398) "></path>
                    <path d="M9.30023073,33.2162404 C8.82236632,31.5876964 8.67005066,30.7254757 7.86625394,29.0970949 C7.33038946,28.0115078 6.27786999,26.8623055 4.70869552,25.6494881 C5.09048845,27.9487556 5.5684008,29.4814888 6.1424326,30.2476876 C7.00348029,31.3969858 7.86481564,31.9714191 9.30023073,33.2162404 Z" id="Path" transform="translate(7.004463, 29.432864) rotate(-26.000000) translate(-7.004463, -29.432864) "></path>
                    <path d="M11.5191877,37.2667241 C11.0413178,35.6389879 10.8890453,34.7771815 10.0850939,33.1496513 C9.54912632,32.0646311 8.49627563,30.9160928 6.92654184,29.7040365 C7.30820849,32.0022021 7.78613891,33.5341714 8.36033309,34.2999443 C9.22162436,35.4486036 10.0832787,36.0226609 11.5191877,37.2667241 Z" id="Path" transform="translate(9.222865, 33.485380) rotate(-48.000000) translate(-9.222865, -33.485380) "></path>
                    <path d="M16.2462495,40.5149292 C15.7680407,38.8876363 15.6156198,38.0260766 14.8112294,36.3989513 C14.2749692,35.3142011 13.2216596,34.1658915 11.6513008,32.9540225 C12.0333559,35.2515277 12.5116139,36.783083 13.0860748,37.5486883 C13.9477661,38.6970964 14.8097528,39.2710789 16.2462495,40.5149292 Z" id="Path" transform="translate(13.948775, 36.734476) rotate(-63.000000) translate(-13.948775, -36.734476) "></path>
                    <path d="M20.7422013,42.7000475 C20.2638006,41.0728728 20.1112879,40.2113846 19.3066734,38.5843484 C18.7702638,37.4996577 17.7167481,36.3513679 16.1461265,35.1394791 C16.5284237,37.4367914 17.0068651,38.968238 17.5814508,39.7338188 C18.4433293,40.88219 19.3054521,41.4561925 20.7422013,42.7000475 Z" id="Path" transform="translate(18.444164, 38.919763) rotate(-69.000000) translate(-18.444164, -38.919763) "></path>
                    <path d="M21.9066332,38.2269192 C21.4286643,36.5981755 21.2762837,35.7358583 20.4724137,34.1072477 C19.9365004,33.0215074 18.8839755,31.8720981 17.3148392,30.6590199 C17.6968075,32.9585424 18.1748155,34.4914661 18.7488631,35.2577911 C19.6099345,36.4072786 20.4712405,36.9818464 21.9066332,38.2269192 Z" id="Path" transform="translate(19.610736, 34.442970) rotate(-20.000000) translate(-19.610736, -34.442970) "></path>
                    <path d="M14.9529454,34.2161827 C14.4742731,32.5869754 14.3215055,31.7244605 13.5169794,30.0952316 C12.9806286,29.0090789 11.927711,27.8590027 10.3582267,26.6450029 C10.7412307,28.9450409 11.2198966,30.4784143 11.7942246,31.2451233 C12.6557164,32.3951868 13.5171701,32.9702472 14.9529454,34.2161827 Z" id="Path" transform="translate(12.655586, 30.430593) rotate(3.000000) translate(-12.655586, -30.430593) "></path>
                    <path d="M10.7292697,27.6060116 C10.2498379,25.9769466 10.096689,25.1145479 9.29133596,23.4853289 C8.75443393,22.3991829 7.70083236,21.2489169 6.13053125,20.0345308 C6.51454692,22.334249 6.99393352,23.8675 7.56869105,24.6342838 C8.43082735,25.7844594 9.29269237,26.3597507 10.7292697,27.6060116 Z" id="Path" transform="translate(8.429900, 23.820271) rotate(24.000000) translate(-8.429900, -23.820271) "></path>
                    <path d="M9.54489787,20.1638819 C9.06495972,18.535615 8.9115967,17.6736543 8.10556277,16.0451835 C7.56820681,14.9595362 6.51386478,13.8097237 4.94253666,12.595746 C5.32711031,14.8942925 5.80698854,16.4267966 6.38217134,17.1932584 C7.24494555,18.342951 8.10736026,18.9180669 9.54489787,20.1638819 Z" id="Path" transform="translate(7.243717, 16.379814) rotate(50.000000) translate(-7.243717, -16.379814) "></path>
                    <path d="M12.5970747,12.8743773 C12.1174811,11.2470267 11.9643469,10.3855162 11.1585074,8.75807471 C10.621281,7.67311375 9.56685264,6.5241964 7.99522222,5.31132267 C8.37917445,7.60867729 8.85874134,9.14030927 9.43392289,9.90621861 C10.2966952,11.0550826 11.1593075,11.6296346 12.5970747,12.8743773 Z" id="Path" transform="translate(10.296148, 9.092850) rotate(77.000000) translate(-10.296148, -9.092850) "></path>
                    <path d="M14.7708462,7.32001644 C14.2910576,5.69243167 14.137811,4.83081195 13.3318061,3.20308858 C12.7944696,2.11793966 11.7399687,0.968752164 10.1683036,-0.244473923 C10.5525578,2.05316829 11.0323057,3.58502475 11.6075472,4.35109547 C12.4704095,5.50020155 13.3330275,6.07493779 14.7708462,7.32001644 Z" id="Path" transform="translate(12.469575, 3.537771) rotate(69.000000) translate(-12.469575, -3.537771) "></path>
                    <path d="M5.43154127,16.7592259 C4.95253175,15.1300104 4.7995908,14.2675105 3.99471069,12.6382108 C3.45812394,11.5520109 2.40493155,10.4017916 0.835133525,9.18755272 C1.2185985,11.487546 1.69758327,13.0209326 2.27208784,13.7877125 C3.1338447,14.9378823 3.99545307,15.5130786 5.43154127,16.7592259 Z" id="Path" transform="translate(3.133337, 12.973389) rotate(12.000000) translate(-3.133337, -12.973389) "></path>
                    <path d="M7.84324251,12.9899481 C7.36363215,11.3610206 7.21039956,10.4987026 6.40483294,8.86959572 C5.86778853,7.78352446 4.81398406,6.63329966 3.24341952,5.41892131 C3.62765578,7.7184225 4.10721345,9.25154624 4.68209253,10.0182925 C5.54441115,11.1684119 6.40641364,11.7437088 7.84324251,12.9899481 Z" id="Path" transform="translate(5.543331, 9.204435) rotate(30.000000) translate(-5.543331, -9.204435) "></path>
                    <path d="M11.1894138,8.11113381 C10.7094793,6.48277878 10.5561153,5.62077209 9.75009429,3.99221106 C9.21274694,2.9065037 8.15842786,1.75662459 6.58713707,0.542573711 C6.97171398,2.84124279 7.45158801,4.37383003 8.02675916,5.14033543 C8.88951587,6.29009353 9.75190954,6.86524487 11.1894138,8.11113381 Z" id="Path" transform="translate(8.888275, 4.326854) rotate(48.000000) translate(-8.888275, -4.326854) "></path>
                    <ellipse id="Oval" cx="22.484477" cy="41.1251607" rx="1.07068938" ry="1.07208448"></ellipse>
                    <path d="M47.8812291,22.6424242 C47.3994189,21.0182841 47.2456727,20.1584452 46.4357984,18.5343051 C45.8958823,17.451545 44.8358998,16.3050931 43.255851,15.0949495 C43.6412992,17.3878532 44.1231094,18.9164557 44.7012816,19.6807569 C45.56854,20.8272088 46.4357984,21.4004347 47.8812291,22.6424242 Z" id="Path" transform="translate(45.568540, 18.868687) scale(-1, 1) translate(-45.568540, -18.868687) "></path>
                    <path d="M47.6695994,27.6553475 C47.1916305,26.0266038 47.03925,25.1642866 46.2353799,23.5356761 C45.6994666,22.4499357 44.6469417,21.3005264 43.0778054,20.0874483 C43.4597738,22.3869707 43.9377817,23.9198945 44.5118293,24.6862195 C45.3729007,25.8357069 46.2342067,26.4102747 47.6695994,27.6553475 Z" id="Path" transform="translate(45.373702, 23.871398) scale(-1, 1) rotate(-20.000000) translate(-45.373702, -23.871398) "></path>
                    <path d="M44.2003954,33.2162404 C43.722531,31.5876964 43.5702153,30.7254757 42.7664186,29.0970949 C42.2305541,28.0115078 41.1780346,26.8623055 39.6088602,25.6494881 C39.9906531,27.9487556 40.4685655,29.4814888 41.0425973,30.2476876 C41.9036449,31.3969858 42.7649803,31.9714191 44.2003954,33.2162404 Z" id="Path" transform="translate(41.904628, 29.432864) scale(-1, 1) rotate(-26.000000) translate(-41.904628, -29.432864) "></path>
                    <path d="M41.9825491,37.2667241 C41.5046792,35.6389879 41.3524067,34.7771815 40.5484553,33.1496513 C40.0124877,32.0646311 38.959637,30.9160928 37.3899032,29.7040365 C37.7715699,32.0022021 38.2495003,33.5341714 38.8236945,34.2999443 C39.6849857,35.4486036 40.5466401,36.0226609 41.9825491,37.2667241 Z" id="Path" transform="translate(39.686226, 33.485380) scale(-1, 1) rotate(-48.000000) translate(-39.686226, -33.485380) "></path>
                    <path d="M37.2577901,40.5149292 C36.7795813,38.8876363 36.6271604,38.0260766 35.82277,36.3989513 C35.2865098,35.3142011 34.2332002,34.1658915 32.6628414,32.9540225 C33.0448965,35.2515277 33.5231545,36.783083 34.0976154,37.5486883 C34.9593067,38.6970964 35.8212934,39.2710789 37.2577901,40.5149292 Z" id="Path" transform="translate(34.960316, 36.734476) scale(-1, 1) rotate(-63.000000) translate(-34.960316, -36.734476) "></path>
                    <path d="M32.7629644,42.7000475 C32.2845637,41.0728728 32.132051,40.2113846 31.3274365,38.5843484 C30.7910269,37.4996577 29.7375112,36.3513679 28.1668896,35.1394791 C28.5491868,37.4367914 29.0276282,38.968238 29.6022139,39.7338188 C30.4640924,40.88219 31.3262152,41.4561925 32.7629644,42.7000475 Z" id="Path" transform="translate(30.464927, 38.919763) scale(-1, 1) rotate(-69.000000) translate(-30.464927, -38.919763) "></path>
                    <path d="M31.5942518,38.2269192 C31.1162829,36.5981755 30.9639023,35.7358583 30.1600323,34.1072477 C29.6241189,33.0215074 28.5715941,31.8720981 27.0024577,30.6590199 C27.3844261,32.9585424 27.8624341,34.4914661 28.4364817,35.2577911 C29.297553,36.4072786 30.158859,36.9818464 31.5942518,38.2269192 Z" id="Path" transform="translate(29.298355, 34.442970) scale(-1, 1) rotate(-20.000000) translate(-29.298355, -34.442970) "></path>
                    <path d="M38.5508642,34.2161827 C38.0721919,32.5869754 37.9194243,31.7244605 37.1148982,30.0952316 C36.5785474,29.0090789 35.5256298,27.8590027 33.9561455,26.6450029 C34.3391495,28.9450409 34.8178154,30.4784143 35.3921433,31.2451233 C36.2536352,32.3951868 37.1150889,32.9702472 38.5508642,34.2161827 Z" id="Path" transform="translate(36.253505, 30.430593) scale(-1, 1) rotate(3.000000) translate(-36.253505, -30.430593) "></path>
                    <path d="M42.7785597,27.6060116 C42.2991278,25.9769466 42.145979,25.1145479 41.3406259,23.4853289 C40.8037239,22.3991829 39.7501223,21.2489169 38.1798212,20.0345308 C38.5638369,22.334249 39.0432235,23.8675 39.617981,24.6342838 C40.4801173,25.7844594 41.3419823,26.3597507 42.7785597,27.6060116 Z" id="Path" transform="translate(40.479190, 23.820271) scale(-1, 1) rotate(24.000000) translate(-40.479190, -23.820271) "></path>
                    <path d="M43.9665542,20.1638819 C43.4866161,18.535615 43.3332531,17.6736543 42.5272191,16.0451835 C41.9898632,14.9595362 40.9355212,13.8097237 39.364193,12.595746 C39.7487667,14.8942925 40.2286449,16.4267966 40.8038277,17.1932584 C41.6666019,18.342951 42.5290166,18.9180669 43.9665542,20.1638819 Z" id="Path" transform="translate(41.665374, 16.379814) scale(-1, 1) rotate(50.000000) translate(-41.665374, -16.379814) "></path>
                    <path d="M40.9138687,12.8743773 C40.4342751,11.2470267 40.2811409,10.3855162 39.4753014,8.75807471 C38.938075,7.67311375 37.8836466,6.5241964 36.3120162,5.31132267 C36.6959684,7.60867729 37.1755353,9.14030927 37.7507169,9.90621861 C38.6134892,11.0550826 39.4761015,11.6296346 40.9138687,12.8743773 Z" id="Path" transform="translate(38.612942, 9.092850) scale(-1, 1) rotate(77.000000) translate(-38.612942, -9.092850) "></path>
                    <path d="M38.7407874,7.32001644 C38.2609988,5.69243167 38.1077521,4.83081195 37.3017473,3.20308858 C36.7644107,2.11793966 35.7099098,0.968752164 34.1382447,-0.244473923 C34.5224989,2.05316829 35.0022468,3.58502475 35.5774883,4.35109547 C36.4403506,5.50020155 37.3029686,6.07493779 38.7407874,7.32001644 Z" id="Path" transform="translate(36.439516, 3.537771) scale(-1, 1) rotate(69.000000) translate(-36.439516, -3.537771) "></path>
                    <path d="M48.0739574,16.7592259 C47.5949479,15.1300104 47.4420069,14.2675105 46.6371268,12.6382108 C46.1005401,11.5520109 45.0473477,10.4017916 43.4775496,9.18755272 C43.8610146,11.487546 44.3399994,13.0209326 44.914504,13.7877125 C45.7762608,14.9378823 46.6378692,15.5130786 48.0739574,16.7592259 Z" id="Path" transform="translate(45.775754, 12.973389) scale(-1, 1) rotate(12.000000) translate(-45.775754, -12.973389) "></path>
                    <path d="M45.6656714,12.9899481 C45.186061,11.3610206 45.0328284,10.4987026 44.2272618,8.86959572 C43.6902174,7.78352446 42.6364129,6.63329966 41.0658484,5.41892131 C41.4500847,7.7184225 41.9296423,9.25154624 42.5045214,10.0182925 C43.36684,11.1684119 44.2288425,11.7437088 45.6656714,12.9899481 Z" id="Path" transform="translate(43.365760, 9.204435) scale(-1, 1) rotate(30.000000) translate(-43.365760, -9.204435) "></path>
                    <path d="M42.3219538,8.11113381 C41.8420193,6.48277878 41.6886553,5.62077209 40.8826343,3.99221106 C40.3452869,2.9065037 39.2909679,1.75662459 37.7196771,0.542573711 C38.104254,2.84124279 38.584128,4.37383003 39.1592992,5.14033543 C40.0220559,6.29009353 40.8844495,6.86524487 42.3219538,8.11113381 Z" id="Path" transform="translate(40.020815, 4.326854) scale(-1, 1) rotate(48.000000) translate(-40.020815, -4.326854) "></path>
                    <ellipse id="Oval" transform="translate(26.424614, 41.125161) scale(-1, 1) translate(-26.424614, -41.125161) " cx="26.4246139" cy="41.1251607" rx="1.07068938" ry="1.07208448"></ellipse>
                </g>
                <polygon id="Rectangle" fill="url(#linearGradient-2)" points="16.2727273 0 21.7801127 0 25.0909091 7.36363636 19.5835236 7.36363636"></polygon>
                <polygon id="Rectangle" fill="url(#linearGradient-3)" points="22 2.72559987e-13 27.5064832 2.72559987e-13 30.8181818 7.36363636 25.3116986 7.36363636"></polygon>
                <polygon id="Rectangle" fill="url(#linearGradient-4)" points="27.5454545 -1.75217135e-13 33.0613668 -1.94685705e-13 36.3636364 7.36363636 30.8477241 7.36363636"></polygon>
            </g>
        </g>
    </g>
</svg>