<?xml version="1.0" encoding="UTF-8"?>
<svg width="72px" height="72px" viewBox="0 0 72 72" version="1.1" xmlns="http://www.w3.org/2000/svg" xmlns:xlink="http://www.w3.org/1999/xlink">
    <!-- Generator: Sketch 52.3 (67297) - http://www.bohemiancoding.com/sketch -->
    <title>Group 9</title>
    <desc>Created with Sketch.</desc>
    <defs>
        <linearGradient x1="50%" y1="0%" x2="50%" y2="100%" id="linearGradient-1">
            <stop stop-color="#D61C1E" offset="0%"></stop>
            <stop stop-color="#610E0E" offset="100%"></stop>
        </linearGradient>
        <linearGradient x1="50%" y1="0%" x2="50%" y2="100%" id="linearGradient-2">
            <stop stop-color="#1071B4" offset="0%"></stop>
            <stop stop-color="#022441" offset="100%"></stop>
        </linearGradient>
        <linearGradient x1="50%" y1="0%" x2="50%" y2="100%" id="linearGradient-3">
            <stop stop-color="#F3F4F4" offset="0%"></stop>
            <stop stop-color="#7D7E7E" offset="100%"></stop>
        </linearGradient>
        <linearGradient x1="50%" y1="0%" x2="50%" y2="100%" id="linearGradient-4">
            <stop stop-color="#D61C1E" offset="0%"></stop>
            <stop stop-color="#771212" offset="100%"></stop>
        </linearGradient>
    </defs>
    <g id="https://cdn4.iconfinder.com/data/icons/competition-soft/512/first_prize-512.png" stroke="none" stroke-width="1" fill="none" fill-rule="evenodd">
        <g id="Group-9" fill-rule="nonzero">
            <rect id="Rectangle" stroke="#979797" fill="#D8D8D8" x="0.5" y="0.5" width="71" height="71"></rect>
            <g id="Group-6" transform="translate(6.818182, 0.000000)">
                <polygon id="Rectangle" fill="url(#linearGradient-1)" opacity="0.5" points="35.5285347 0 41.3636364 0 38.6532835 7.72727273 32.8181818 7.72727273"></polygon>
                <polygon id="Rectangle" fill="#510A0B" points="30.6363636 -1.83869833e-13 36.4934663 -2.04299814e-13 40 7.72727273 34.1428973 7.72727273"></polygon>
                <path d="M25.1818182,5.45454545 L33.8181818,5.45454545 C37.9352136,5.45454545 41.2727273,8.79205914 41.2727273,12.9090909 C41.2727273,17.0261227 37.9352136,20.3636364 33.8181818,20.3636364 L25.1818182,20.3636364 C21.0647864,20.3636364 17.7272727,17.0261227 17.7272727,12.9090909 C17.7272727,8.79205914 21.0647864,5.45454545 25.1818182,5.45454545 Z M25.3626958,7.34063527 C22.2873226,7.34063527 19.7942401,9.83371778 19.7942401,12.9090909 C19.7942401,15.984464 22.2873226,18.4775465 25.3626958,18.4775465 L33.6373042,18.4775465 C36.7126774,18.4775465 39.2057599,15.984464 39.2057599,12.9090909 C39.2057599,9.83371778 36.7126774,7.34063527 33.6373042,7.34063527 L25.3626958,7.34063527 Z" id="Combined-Shape" fill="#E0E0E0"></path>
                <circle id="Oval" fill="#E8E8E8" cx="29.1818182" cy="40" r="29.1818182"></circle>
                <circle id="Oval" fill="#8C8C8C" cx="29.0909091" cy="40.0909091" r="27.0909091"></circle>
                <ellipse id="Oval" fill="#E7E7E7" cx="29.0454545" cy="40.0909091" rx="25.5909091" ry="25.5454545"></ellipse>
                <ellipse id="Oval" fill="#B0B0B0" cx="29.0454545" cy="40.0909091" rx="13.5909091" ry="13.5454545"></ellipse>
                <g id="Group-4" transform="translate(3.454545, 20.818182)" fill="#A8A8A8">
                    <path d="M5.92644483,23.7090909 C5.4213501,22.0084388 5.26017381,21.1080936 4.41116064,19.4074415 C3.84515187,18.2736734 2.73394346,17.0732131 1.07753542,15.8060606 C1.48161121,18.2069812 1.98670594,19.8075949 2.59281961,20.6079018 C3.50199013,21.8083621 4.41116064,22.4085923 5.92644483,23.7090909 Z" id="Path"></path>
                    <path d="M6.11424894,28.9596068 C5.61261175,27.2537151 5.45255122,26.3505924 4.60930949,24.6447126 C4.04714834,23.5074594 2.94345801,22.3033266 1.29823849,21.0323142 C1.699512,23.4406425 2.20115268,25.0461866 2.80316052,25.8489464 C3.70617228,27.0530862 4.60920495,27.6551404 6.11424894,28.9596068 Z" id="Path" transform="translate(3.706244, 24.995961) rotate(-20.000000) translate(-3.706244, -24.995961) "></path>
                    <path d="M9.75096247,34.7830183 C9.24933459,33.0771445 9.08927984,32.1740303 8.24604465,30.468171 C7.68388785,29.3309315 6.580198,28.1268171 4.93497509,26.855828 C5.33623296,29.2641336 5.83786512,30.8696606 6.43987155,31.6724092 C7.3428812,32.8765321 8.24591648,33.4785743 9.75096247,34.7830183 Z" id="Path" transform="translate(7.342969, 30.819423) rotate(-26.000000) translate(-7.342969, -30.819423) "></path>
                    <path d="M12.0766226,39.0262641 C11.5749942,37.3204622 11.4149433,36.417385 10.5716943,34.7116015 C10.0095284,33.5744124 8.905809,32.3703573 7.26053624,31.099436 C7.66178287,33.5076433 8.16341663,35.1131024 8.76543753,35.915813 C9.66846889,37.1198789 10.5715326,37.7218876 12.0766226,39.0262641 Z" id="Path" transform="translate(9.668579, 35.062850) rotate(-48.000000) translate(-9.668579, -35.062850) "></path>
                    <path d="M17.0310253,42.4283426 C16.5293667,40.7225803 16.3693026,39.819525 15.5260145,38.1137775 C14.9638225,36.9766126 13.8600622,35.7725778 12.2147338,34.5016732 C12.616015,36.9098217 13.1176779,38.5152438 13.7197226,39.3179395 C14.6227896,40.5219831 15.5258829,41.1239851 17.0310253,42.4283426 Z" id="Path" transform="translate(14.622880, 38.465008) rotate(-63.000000) translate(-14.622880, -38.465008) "></path>
                    <path d="M21.7437135,44.7165622 C21.2420378,43.0108103 21.0819655,42.1077614 20.2386575,40.4020219 C19.6764521,39.2648623 18.5726735,38.0608292 16.9273216,36.7899229 C17.3286244,39.1980542 17.8303037,40.8034666 18.4323595,41.6061601 C19.3354432,42.8102004 20.2385486,43.4122042 21.7437135,44.7165622 Z" id="Path" transform="translate(19.335518, 40.753243) rotate(-69.000000) translate(-19.335518, -40.753243) "></path>
                    <path d="M22.9664721,40.0291968 C22.464835,38.3233052 22.3047744,37.4201824 21.4615327,35.7143026 C20.8993715,34.5770494 19.7956812,33.3729166 18.1504617,32.1019043 C18.5517352,34.5102326 19.0533759,36.1157766 19.6553837,36.9185365 C20.5583955,38.1226762 21.4614281,38.7247304 22.9664721,40.0291968 Z" id="Path" transform="translate(20.558467, 36.065551) rotate(-20.000000) translate(-20.558467, -36.065551) "></path>
                    <path d="M15.6753298,35.8279464 C15.17363,34.1220134 15.0135349,33.218873 14.1702348,31.5129381 C13.6080346,30.3756482 12.5043093,29.171456 10.8590588,27.9003615 C11.2604246,30.3087357 11.7621239,31.9143198 12.3641567,32.7171139 C13.2672059,33.921305 14.1702518,34.5234031 15.6753298,35.8279464 Z" id="Path" transform="translate(13.267194, 31.864154) rotate(3.000000) translate(-13.267194, -31.864154) "></path>
                    <path d="M11.2456081,28.9062312 C10.7438405,27.2003109 10.5837115,26.2971809 9.74033764,24.5912468 C9.17808839,23.4539575 8.07430211,22.2497484 6.4289788,20.9786195 C6.83043475,23.3869652 7.33219827,24.9925384 7.93426937,25.7953391 C8.83737603,26.9995402 9.74045851,27.6016589 11.2456081,28.9062312 Z" id="Path" transform="translate(8.837293, 24.942425) rotate(24.000000) translate(-8.837293, -24.942425) "></path>
                    <path d="M10.0022614,21.1151108 C9.50044875,19.4092617 9.34030068,18.5061707 8.49686613,16.8003033 C7.93457643,15.6630584 6.83072417,14.4588897 5.18530935,13.1877972 C5.58681501,15.5960385 6.08862234,17.2015452 6.69073134,18.0043172 C7.59389484,19.2084752 8.4970263,19.8105783 10.0022614,21.1151108 Z" id="Path" transform="translate(7.593785, 17.151454) rotate(50.000000) translate(-7.593785, -17.151454) "></path>
                    <path d="M13.2021852,13.4846374 C12.7004033,11.7788699 12.5402756,10.875819 11.6968583,9.17004336 C11.1345802,8.03285962 10.0307202,6.82877068 8.38527847,5.55777653 C8.78672876,7.96591164 9.28850835,9.57134059 9.89061724,10.3740634 C10.7937806,11.5781476 11.6969296,12.1802004 13.2021852,13.4846374 Z" id="Path" transform="translate(10.793732, 9.521207) rotate(77.000000) translate(-10.793732, -9.521207) "></path>
                    <path d="M15.4806746,7.66794778 C14.9788759,5.96215994 14.8187385,5.0590996 13.9753076,3.35329941 C13.4130204,2.21609928 12.3091555,1.01198665 10.6637129,-0.259038494 C11.0651896,2.14912148 11.5669846,3.75456993 12.169098,4.55730685 C13.0722681,5.76141223 13.9754165,6.36348124 15.4806746,7.66794778 Z" id="Path" transform="translate(13.072194, 3.704455) rotate(69.000000) translate(-13.072194, -3.704455) "></path>
                    <path d="M5.69297341,17.5483698 C5.19124349,15.8424361 5.03113303,14.9392971 4.18780129,13.2333559 C3.62558013,12.0960617 2.52183032,10.8918568 0.87655184,9.62074097 C1.27795871,12.0291112 1.77968643,13.6346965 2.38173499,14.4374969 C3.28480783,15.6416974 4.18786744,16.2438076 5.69297341,17.5483698 Z" id="Path" transform="translate(3.284763, 13.584555) rotate(12.000000) translate(-3.284763, -13.584555) "></path>
                    <path d="M8.21958728,13.6018339 C7.71780382,11.8959259 7.55766737,10.9928031 6.71427446,9.28687905 C6.15201252,8.14959638 5.04820816,6.94539093 3.40286138,5.6742627 C3.80433698,8.08258909 4.30611575,9.68815097 4.90819768,10.4909483 C5.81132058,11.6951444 6.71441531,12.2972636 8.21958728,13.6018339 Z" id="Path" transform="translate(5.811224, 9.638048) rotate(30.000000) translate(-5.811224, -9.638048) "></path>
                    <path d="M11.7262895,8.49441113 C11.2244778,6.78855533 11.0643298,5.88546087 10.2208975,4.17958672 C9.65860935,3.04233728 8.55476058,1.8381635 6.90935124,0.567065364 C7.31085667,2.97531588 7.81266297,4.58082881 8.41477014,5.38360414 C9.3179309,6.58776714 10.2210593,7.1898729 11.7262895,8.49441113 Z" id="Path" transform="translate(9.317820, 4.530738) rotate(48.000000) translate(-9.317820, -4.530738) "></path>
                    <ellipse id="Oval" cx="23.5710874" cy="43.0625344" rx="1.12243273" ry="1.12258953"></ellipse>
                    <path d="M50.1951918,23.7090909 C49.6900971,22.0084388 49.5289208,21.1080936 48.6799077,19.4074415 C48.1138989,18.2736734 47.0026905,17.0732131 45.3462824,15.8060606 C45.7503582,18.2069812 46.255453,19.8075949 46.8615666,20.6079018 C47.7707371,21.8083621 48.6799077,22.4085923 50.1951918,23.7090909 Z" id="Path" transform="translate(47.770737, 19.757576) scale(-1, 1) translate(-47.770737, -19.757576) "></path>
                    <path d="M49.9744888,28.9596068 C49.4728516,27.2537151 49.3127911,26.3505924 48.4695493,24.6447126 C47.9073882,23.5074594 46.8036978,22.3033266 45.1584783,21.0323142 C45.5597518,23.4406425 46.0613925,25.0461866 46.6634004,25.8489464 C47.5664121,27.0530862 48.4694448,27.6551404 49.9744888,28.9596068 Z" id="Path" transform="translate(47.566484, 24.995961) scale(-1, 1) rotate(-20.000000) translate(-47.566484, -24.995961) "></path>
                    <path d="M46.3377522,34.7830183 C45.8361243,33.0771445 45.6760696,32.1740303 44.8328344,30.468171 C44.2706776,29.3309315 43.1669877,28.1268171 41.5217648,26.855828 C41.9230227,29.2641336 42.4246548,30.8696606 43.0266613,31.6724092 C43.9296709,32.8765321 44.8327062,33.4785743 46.3377522,34.7830183 Z" id="Path" transform="translate(43.929758, 30.819423) scale(-1, 1) rotate(-26.000000) translate(-43.929758, -30.819423) "></path>
                    <path d="M44.012191,39.0262641 C43.5105627,37.3204622 43.3505118,36.417385 42.5072628,34.7116015 C41.9450968,33.5744124 40.8413774,32.3703573 39.1961047,31.099436 C39.5973513,33.5076433 40.0989851,35.1131024 40.701006,35.915813 C41.6040373,37.1198789 42.507101,37.7218876 44.012191,39.0262641 Z" id="Path" transform="translate(41.604148, 35.062850) scale(-1, 1) rotate(-48.000000) translate(-41.604148, -35.062850) "></path>
                    <path d="M39.0579935,42.4283426 C38.556335,40.7225803 38.3962708,39.819525 37.5529827,38.1137775 C36.9907907,36.9766126 35.8870304,35.7725778 34.241702,34.5016732 C34.6429832,36.9098217 35.1446462,38.5152438 35.7466908,39.3179395 C36.6497578,40.5219831 37.5528511,41.1239851 39.0579935,42.4283426 Z" id="Path" transform="translate(36.649848, 38.465008) scale(-1, 1) rotate(-63.000000) translate(-36.649848, -38.465008) "></path>
                    <path d="M34.3454057,44.7165622 C33.84373,43.0108103 33.6836577,42.1077614 32.8403496,40.4020219 C32.2781443,39.2648623 31.1743656,38.0608292 29.5290138,36.7899229 C29.9303166,39.1980542 30.4319959,40.8034666 31.0340517,41.6061601 C31.9371353,42.8102004 32.8402408,43.4122042 34.3454057,44.7165622 Z" id="Path" transform="translate(31.937210, 40.753243) scale(-1, 1) rotate(-69.000000) translate(-31.937210, -40.753243) "></path>
                    <path d="M33.1222656,40.0291968 C32.6206284,38.3233052 32.4605679,37.4201824 31.6173261,35.7143026 C31.055165,34.5770494 29.9514746,33.3729166 28.3062551,32.1019043 C28.7075286,34.5102326 29.2091693,36.1157766 29.8111772,36.9185365 C30.7141889,38.1226762 31.6172216,38.7247304 33.1222656,40.0291968 Z" id="Path" transform="translate(30.714260, 36.065551) scale(-1, 1) rotate(-20.000000) translate(-30.714260, -36.065551) "></path>
                    <path d="M40.4136685,35.8279464 C39.9119686,34.1220134 39.7518736,33.218873 38.9085734,31.5129381 C38.3463733,30.3756482 37.242648,29.171456 35.5973974,27.9003615 C35.9987632,30.3087357 36.5004625,31.9143198 37.1024954,32.7171139 C38.0055446,33.921305 38.9085904,34.5234031 40.4136685,35.8279464 Z" id="Path" transform="translate(38.005533, 31.864154) scale(-1, 1) rotate(3.000000) translate(-38.005533, -31.864154) "></path>
                    <path d="M44.8437485,28.9062312 C44.3419809,27.2003109 44.1818519,26.2971809 43.338478,24.5912468 C42.7762288,23.4539575 41.6724425,22.2497484 40.0271192,20.9786195 C40.4285752,23.3869652 40.9303387,24.9925384 41.5324098,25.7953391 C42.4355164,26.9995402 43.3385989,27.6016589 44.8437485,28.9062312 Z" id="Path" transform="translate(42.435434, 24.942425) scale(-1, 1) rotate(24.000000) translate(-42.435434, -24.942425) "></path>
                    <path d="M46.0874179,21.1151108 C45.5856053,19.4092617 45.4254572,18.5061707 44.5820226,16.8003033 C44.0197329,15.6630584 42.9158807,14.4588897 41.2704658,13.1877972 C41.6719715,15.5960385 42.1737788,17.2015452 42.7758878,18.0043172 C43.6790513,19.2084752 44.5821828,19.8105783 46.0874179,21.1151108 Z" id="Path" transform="translate(43.678942, 17.151454) scale(-1, 1) rotate(50.000000) translate(-43.678942, -17.151454) "></path>
                    <path d="M42.8874488,13.4846374 C42.3856668,11.7788699 42.2255391,10.875819 41.3821219,9.17004336 C40.8198438,8.03285962 39.7159838,6.82877068 38.0705421,5.55777653 C38.4719923,7.96591164 38.9737719,9.57134059 39.5758808,10.3740634 C40.4790441,11.5781476 41.3821932,12.1802004 42.8874488,13.4846374 Z" id="Path" transform="translate(40.478995, 9.521207) scale(-1, 1) rotate(77.000000) translate(-40.478995, -9.521207) "></path>
                    <path d="M40.6090144,7.66794778 C40.1072157,5.96215994 39.9470782,5.0590996 39.1036474,3.35329941 C38.5413602,2.21609928 37.4374953,1.01198665 35.7920527,-0.259038494 C36.1935293,2.14912148 36.6953244,3.75456993 37.2974378,4.55730685 C38.2006079,5.76141223 39.1037562,6.36348124 40.6090144,7.66794778 Z" id="Path" transform="translate(38.200534, 3.704455) scale(-1, 1) rotate(69.000000) translate(-38.200534, -3.704455) "></path>
                    <path d="M50.3961754,17.5483698 C49.8944455,15.8424361 49.734335,14.9392971 48.8910033,13.2333559 C48.3287822,12.0960617 47.2250323,10.8918568 45.5797539,9.62074097 C45.9811607,12.0291112 46.4828884,13.6346965 47.084937,14.4374969 C47.9880099,15.6416974 48.8910695,16.2438076 50.3961754,17.5483698 Z" id="Path" transform="translate(47.987965, 13.584555) scale(-1, 1) rotate(12.000000) translate(-47.987965, -13.584555) "></path>
                    <path d="M47.8698659,13.6018339 C47.3680824,11.8959259 47.207946,10.9928031 46.3645531,9.28687905 C45.8022911,8.14959638 44.6984868,6.94539093 43.05314,5.6742627 C43.4546156,8.08258909 43.9563944,9.68815097 44.5584763,10.4909483 C45.4615992,11.6951444 46.3646939,12.2972636 47.8698659,13.6018339 Z" id="Path" transform="translate(45.461503, 9.638048) scale(-1, 1) rotate(30.000000) translate(-45.461503, -9.638048) "></path>
                    <path d="M44.363376,8.49441113 C43.8615643,6.78855533 43.7014164,5.88546087 42.8579841,4.17958672 C42.2956959,3.04233728 41.1918471,1.8381635 39.5464378,0.567065364 C39.9479432,2.97531588 40.4497495,4.58082881 41.0518567,5.38360414 C41.9550174,6.58776714 42.8581458,7.1898729 44.363376,8.49441113 Z" id="Path" transform="translate(41.954907, 4.530738) scale(-1, 1) rotate(48.000000) translate(-41.954907, -4.530738) "></path>
                    <ellipse id="Oval" transform="translate(27.701640, 43.062534) scale(-1, 1) translate(-27.701640, -43.062534) " cx="27.7016399" cy="43.0625344" rx="1.12243273" ry="1.12258953"></ellipse>
                </g>
                <polygon id="Rectangle" fill="url(#linearGradient-2)" points="17.0909091 0 22.9389576 0 26.4545455 7.72727273 20.606497 7.72727273"></polygon>
                <polygon id="Rectangle" fill="url(#linearGradient-3)" points="22.9090909 2.8601974e-13 28.7561813 2.8601974e-13 32.2727273 7.72727273 26.4256368 7.72727273"></polygon>
                <polygon id="Rectangle" fill="url(#linearGradient-4)" points="28.8181818 -1.83869833e-13 34.6752845 -2.04299814e-13 38.1818182 7.72727273 32.3247155 7.72727273"></polygon>
            </g>
        </g>
    </g>
</svg>