<?xml version="1.0" encoding="UTF-8"?>
<svg width="72px" height="72px" viewBox="0 0 72 72" version="1.1" xmlns="http://www.w3.org/2000/svg" xmlns:xlink="http://www.w3.org/1999/xlink">
    <!-- Generator: Sketch 52.3 (67297) - http://www.bohemiancoding.com/sketch -->
    <title>Group 8</title>
    <desc>Created with Sketch.</desc>
    <defs>
        <linearGradient x1="50%" y1="0%" x2="50%" y2="100%" id="linearGradient-1">
            <stop stop-color="#D61C1E" offset="0%"></stop>
            <stop stop-color="#610E0E" offset="100%"></stop>
        </linearGradient>
        <linearGradient x1="50%" y1="0%" x2="50%" y2="100%" id="linearGradient-2">
            <stop stop-color="#1071B4" offset="0%"></stop>
            <stop stop-color="#022441" offset="100%"></stop>
        </linearGradient>
        <linearGradient x1="50%" y1="0%" x2="50%" y2="100%" id="linearGradient-3">
            <stop stop-color="#F3F4F4" offset="0%"></stop>
            <stop stop-color="#7D7E7E" offset="100%"></stop>
        </linearGradient>
        <linearGradient x1="50%" y1="0%" x2="50%" y2="100%" id="linearGradient-4">
            <stop stop-color="#D61C1E" offset="0%"></stop>
            <stop stop-color="#771212" offset="100%"></stop>
        </linearGradient>
    </defs>
    <g id="https://cdn4.iconfinder.com/data/icons/competition-soft/512/first_prize-512.png" stroke="none" stroke-width="1" fill="none" fill-rule="evenodd">
        <g id="Group-8" fill-rule="nonzero">
            <rect id="Rectangle" stroke="#979797" fill="#D8D8D8" x="0.5" y="0.5" width="71" height="71"></rect>
            <g id="Group-5" transform="translate(6.454545, 0.000000)">
                <polygon id="Rectangle" fill="url(#linearGradient-1)" opacity="0.5" points="36 -1.13686838e-13 41.9090909 -1.13686838e-13 39.1643707 7.81818182 33.2552798 7.81818182"></polygon>
                <polygon id="Rectangle" fill="#510A0B" points="31 -2.99719845e-13 36.9090909 -3.20390179e-13 40.4467489 7.81818182 34.537658 7.81818182"></polygon>
                <path d="M25.4545455,6.04545455 C21.5634484,6.04545455 18.4090909,9.19981199 18.4090909,13.0909091 C18.4090909,16.9820062 21.5634484,20.1363636 25.4545455,20.1363636 L34.1818182,20.1363636 C38.0729153,20.1363636 41.2272727,16.9820062 41.2272727,13.0909091 C41.2272727,9.19981199 38.0729153,6.04545455 34.1818182,6.04545455 L25.4545455,6.04545455 Z M25.6363636,6.95454545 L34,6.95454545 C37.3890201,6.95454545 40.1363636,9.70188904 40.1363636,13.0909091 C40.1363636,16.4799291 37.3890201,19.2272727 34,19.2272727 L25.6363636,19.2272727 C22.2473436,19.2272727 19.5,16.4799291 19.5,13.0909091 C19.5,9.70188904 22.2473436,6.95454545 25.6363636,6.95454545 Z" id="Combined-Shape" stroke="#979797" fill="#C0A577"></path>
                <circle id="Oval" fill="#EFD9A6" cx="29.5454545" cy="40.5454545" r="29.5454545"></circle>
                <circle id="Oval" fill="#875F33" cx="29.5454545" cy="40.5454545" r="27.4545455"></circle>
                <circle id="Oval" fill="#E5C88C" cx="29.5454545" cy="40.5454545" r="25.9090909"></circle>
                <g id="Group-4" transform="translate(3.545455, 21.090909)" fill="#E2B94E">
                    <path d="M6,24 C5.48863636,22.278481 5.32545965,21.3670886 4.46590909,19.6455696 C3.89287538,18.4978903 2.76787538,17.2827004 1.09090909,16 C1.5,18.4303797 2.01136364,20.0506329 2.625,20.8607595 C3.54545455,22.0759494 4.46590909,22.6835443 6,24 Z" id="Path"></path>
                    <path d="M6.19027532,29.3151144 C5.6823429,27.5882405 5.52025741,26.6740143 4.66648633,24.9471369 C4.09730562,23.7958853 2.97988053,22.5769078 1.31421107,21.2902044 C1.72056774,23.7281408 2.22849913,25.3534342 2.83800522,26.1660845 C3.75226436,27.3850599 4.66651731,27.9945523 6.19027532,29.3151144 Z" id="Path" transform="translate(3.752243, 25.302659) rotate(-20.000000) translate(-3.752243, -25.302659) "></path>
                    <path d="M9.87214046,35.2100457 C9.36420528,33.4831666 9.20211807,32.5689378 8.34834506,30.8420544 C7.77916306,29.6907987 6.66173783,28.4718158 4.99606938,27.1851055 C5.40243068,29.6230486 5.91036459,31.248347 6.5198711,32.0610006 C7.43413087,33.279981 8.34838304,33.8894769 9.87214046,35.2100457 Z" id="Path" transform="translate(7.434105, 31.197576) rotate(-26.000000) translate(-7.434105, -31.197576) "></path>
                    <path d="M12.2266004,39.5055928 C11.7186654,37.7786924 11.556577,36.8644526 10.7028081,35.1375468 C10.1336288,33.9862762 9.01621233,32.7672757 7.35055864,31.4805453 C7.75692328,33.9185175 8.26485671,35.5438361 8.87435893,36.3565009 C9.78861227,37.5754982 10.702856,38.185004 12.2266004,39.5055928 Z" id="Path" transform="translate(9.788580, 35.493069) rotate(-48.000000) translate(-9.788580, -35.493069) "></path>
                    <path d="M17.2423597,42.9495185 C16.7344336,41.2226063 16.5723491,40.3083601 15.7185918,38.5814435 C15.1494202,37.4301658 14.0320159,36.2111592 12.3663787,34.9244239 C12.7727331,37.3624136 13.2806579,38.987743 13.890153,39.8004123 C14.8043958,41.0194163 15.7186308,41.6289241 17.2423597,42.9495185 Z" id="Path" transform="translate(14.804369, 38.936971) rotate(-63.000000) translate(-14.804369, -38.936971) "></path>
                    <path d="M22.013473,45.265834 C21.505552,43.5389188 21.34347,42.6246706 20.4897186,40.8977517 C19.9205509,39.7464724 18.803152,38.5274654 17.1375218,37.2407305 C17.5438698,39.6787253 18.0517897,41.3040576 18.6612816,42.1167276 C19.5755194,43.3357325 20.4897508,43.9452398 22.013473,45.265834 Z" id="Path" transform="translate(19.575497, 41.253282) rotate(-69.000000) translate(-19.575497, -41.253282) "></path>
                    <path d="M23.2516573,40.5205276 C22.7437249,38.7936538 22.5816394,37.8794275 21.7278683,36.1525501 C21.1586876,35.0012986 20.0412625,33.7823211 18.3755931,32.4956177 C18.7819497,34.9335541 19.2898811,36.5588474 19.8993872,37.3714977 C20.8136464,38.5904731 21.7278993,39.1999655 23.2516573,40.5205276 Z" id="Path" transform="translate(20.813625, 36.508073) rotate(-20.000000) translate(-20.813625, -36.508073) "></path>
                    <path d="M15.8698516,36.2675368 C15.3619377,34.5406752 15.1998625,33.6264542 14.3461087,31.8995931 C13.7769395,30.7483524 12.6595248,29.5293925 10.9938646,28.2427135 C11.4001939,30.6806363 11.9081079,32.3059177 12.5176066,33.1185579 C13.4318546,34.3375181 14.3461037,34.9469974 15.8698516,36.2675368 Z" id="Path" transform="translate(13.431858, 32.255125) rotate(3.000000) translate(-13.431858, -32.255125) "></path>
                    <path d="M11.3849166,29.260875 C10.8770228,27.5340097 10.7149576,26.6197856 9.86122568,24.8929243 C9.29207107,23.7416834 8.17467441,22.5227285 6.50903571,21.2360597 C6.91533832,23.6739909 7.42323331,25.2992756 8.03272066,26.1119138 C8.94695168,27.330871 9.86118987,27.9403443 11.3849166,29.260875 Z" id="Path" transform="translate(8.946976, 25.248467) rotate(24.000000) translate(-8.946976, -25.248467) "></path>
                    <path d="M10.1259271,21.3743532 C9.61804669,19.6474667 9.45598714,18.733231 8.6022732,17.00635 C8.03313057,15.855096 6.91575346,14.6361291 5.25014187,13.3494494 C5.65642976,15.7874116 6.16431176,17.412716 6.77378788,18.2253627 C7.68800206,19.4443327 8.60222574,20.0538106 10.1259271,21.3743532 Z" id="Path" transform="translate(7.688034, 17.361901) rotate(50.000000) translate(-7.688034, -17.361901) "></path>
                    <path d="M13.3655959,13.6505505 C12.8577064,11.9236399 12.6956408,11.0093923 11.8419218,9.2824841 C11.2727757,8.13121194 10.1554009,6.91222146 8.48979727,5.62551265 C8.89610156,8.06350629 9.40399178,9.68883374 10.0134679,10.501495 C10.9276822,11.7204869 11.8419006,12.3299797 13.3655959,13.6505505 Z" id="Path" transform="translate(10.927697, 9.638032) rotate(77.000000) translate(-10.927697, -9.638032) "></path>
                    <path d="M15.672328,7.7624064 C15.1644435,6.03550187 15.0023809,5.12125717 14.148666,3.3943563 C13.5795227,2.24308905 12.4621496,1.02410565 10.7965466,-0.262593913 C11.202843,2.17539224 11.7107285,3.80071384 12.3202032,4.61337087 C13.2344153,5.83235642 14.1486337,6.44184436 15.672328,7.7624064 Z" id="Path" transform="translate(13.234437, 3.749906) rotate(69.000000) translate(-13.234437, -3.749906) "></path>
                    <path d="M5.76350217,17.7636422 C5.25559723,16.0367808 5.09352653,15.1225594 4.23978213,13.3957002 C3.67061919,12.2444608 2.55321173,11.0255047 0.887559742,9.7388319 C1.2938769,12.1767559 1.80178249,13.802037 2.41127652,14.6146753 C3.32551756,15.8336327 4.23976253,16.4431084 5.76350217,17.7636422 Z" id="Path" transform="translate(3.325531, 13.751237) rotate(12.000000) translate(-3.325531, -13.751237) "></path>
                    <path d="M8.32127559,13.7687203 C7.81338651,12.0418513 7.65132351,11.127625 6.79759723,9.40076078 C6.22844638,8.24951794 5.11105508,7.03056198 3.44542333,5.7438929 C3.85172012,8.18182986 4.35961059,9.80711792 4.96909473,10.6197571 C5.88332094,11.8387158 6.7975555,12.4481889 8.32127559,13.7687203 Z" id="Path" transform="translate(5.883349, 9.756307) rotate(30.000000) translate(-5.883349, -9.756307) "></path>
                    <path d="M11.8713617,8.59877722 C11.363481,6.87189274 11.2014214,5.9576581 10.3477068,4.23077906 C9.77856375,3.07952637 8.66118561,1.86056103 6.9955724,0.573883035 C7.40186035,3.01184248 7.90974266,4.63714504 8.51921933,5.44979074 C9.43343432,6.66875928 10.3476589,7.27823636 11.8713617,8.59877722 Z" id="Path" transform="translate(9.433467, 4.586330) rotate(48.000000) translate(-9.433467, -4.586330) "></path>
                    <circle id="Oval" cx="23.8636364" cy="43.5909091" r="1.13636364"></circle>
                    <path d="M50.8181818,24 C50.3068182,22.278481 50.1436415,21.3670886 49.2840909,19.6455696 C48.7110572,18.4978903 47.5860572,17.2827004 45.9090909,16 C46.3181818,18.4303797 46.8295455,20.0506329 47.4431818,20.8607595 C48.3636364,22.0759494 49.2840909,22.6835443 50.8181818,24 Z" id="Path" transform="translate(48.363636, 20.000000) scale(-1, 1) translate(-48.363636, -20.000000) "></path>
                    <path d="M50.5948798,29.3151144 C50.0869474,27.5882405 49.9248619,26.6740143 49.0710909,24.9471369 C48.5019101,23.7958853 47.384485,22.5769078 45.7188156,21.2902044 C46.1251723,23.7281408 46.6331036,25.3534342 47.2426097,26.1660845 C48.1568689,27.3850599 49.0711218,27.9945523 50.5948798,29.3151144 Z" id="Path" transform="translate(48.156848, 25.302659) scale(-1, 1) rotate(-20.000000) translate(-48.156848, -25.302659) "></path>
                    <path d="M46.9130215,35.2100457 C46.4050864,33.4831666 46.2429991,32.5689378 45.3892261,30.8420544 C44.8200441,29.6907987 43.7026189,28.4718158 42.0369505,27.1851055 C42.4433118,29.6230486 42.9512457,31.248347 43.5607522,32.0610006 C44.4750119,33.279981 45.3892641,33.8894769 46.9130215,35.2100457 Z" id="Path" transform="translate(44.474986, 31.197576) scale(-1, 1) rotate(-26.000000) translate(-44.474986, -31.197576) "></path>
                    <path d="M44.5585323,39.5055928 C44.0505972,37.7786924 43.8885089,36.8644526 43.03474,35.1375468 C42.4655607,33.9862762 41.3481442,32.7672757 39.6824905,31.4805453 C40.0888551,33.9185175 40.5967886,35.5438361 41.2062908,36.3565009 C42.1205441,37.5754982 43.0347879,38.185004 44.5585323,39.5055928 Z" id="Path" transform="translate(42.120511, 35.493069) scale(-1, 1) rotate(-48.000000) translate(-42.120511, -35.493069) "></path>
                    <path d="M39.5427122,42.9495185 C39.0347861,41.2226063 38.8727017,40.3083601 38.0189444,38.5814435 C37.4497728,37.4301658 36.3323684,36.2111592 34.6667313,34.9244239 C35.0730856,37.3624136 35.5810104,38.987743 36.1905056,39.8004123 C37.1047484,41.0194163 38.0189834,41.6289241 39.5427122,42.9495185 Z" id="Path" transform="translate(37.104722, 38.936971) scale(-1, 1) rotate(-63.000000) translate(-37.104722, -38.936971) "></path>
                    <path d="M34.7715691,45.265834 C34.2636481,43.5389188 34.1015661,42.6246706 33.2478147,40.8977517 C32.6786471,39.7464724 31.5612482,38.5274654 29.8956179,37.2407305 C30.3019659,39.6787253 30.8098858,41.3040576 31.4193777,42.1167276 C32.3336156,43.3357325 33.2478469,43.9452398 34.7715691,45.265834 Z" id="Path" transform="translate(32.333594, 41.253282) scale(-1, 1) rotate(-69.000000) translate(-32.333594, -41.253282) "></path>
                    <path d="M33.5334978,40.5205276 C33.0255654,38.7936538 32.8634799,37.8794275 32.0097089,36.1525501 C31.4405281,35.0012986 30.323103,33.7823211 28.6574336,32.4956177 C29.0637903,34.9335541 29.5717216,36.5588474 30.1812277,37.3714977 C31.0954869,38.5904731 32.0097398,39.1999655 33.5334978,40.5205276 Z" id="Path" transform="translate(31.095466, 36.508073) scale(-1, 1) rotate(-20.000000) translate(-31.095466, -36.508073) "></path>
                    <path d="M40.9152264,36.2675368 C40.4073125,34.5406752 40.2452372,33.6264542 39.3914835,31.8995931 C38.8223143,30.7483524 37.7048996,29.5293925 36.0392393,28.2427135 C36.4455687,30.6806363 36.9534827,32.3059177 37.5629814,33.1185579 C38.4772294,34.3375181 39.3914784,34.9469974 40.9152264,36.2675368 Z" id="Path" transform="translate(38.477233, 32.255125) scale(-1, 1) rotate(3.000000) translate(-38.477233, -32.255125) "></path>
                    <path d="M45.4000552,29.260875 C44.8921614,27.5340097 44.7300962,26.6197856 43.8763643,24.8929243 C43.3072097,23.7416834 42.189813,22.5227285 40.5241743,21.2360597 C40.9304769,23.6739909 41.4383719,25.2992756 42.0478593,26.1119138 C42.9620903,27.330871 43.8763285,27.9403443 45.4000552,29.260875 Z" id="Path" transform="translate(42.962115, 25.248467) scale(-1, 1) rotate(24.000000) translate(-42.962115, -25.248467) "></path>
                    <path d="M46.658949,21.3743532 C46.1510686,19.6474667 45.9890091,18.733231 45.1352951,17.00635 C44.5661525,15.855096 43.4487754,14.6361291 41.7831638,13.3494494 C42.1894517,15.7874116 42.6973337,17.412716 43.3068098,18.2253627 C44.221024,19.4443327 45.1352477,20.0538106 46.658949,21.3743532 Z" id="Path" transform="translate(44.221056, 17.361901) scale(-1, 1) rotate(50.000000) translate(-44.221056, -17.361901) "></path>
                    <path d="M43.4192936,13.6505505 C42.9114041,11.9236399 42.7493385,11.0093923 41.8956195,9.2824841 C41.3264734,8.13121194 40.2090986,6.91222146 38.543495,5.62551265 C38.9497993,8.06350629 39.4576895,9.68883374 40.0671656,10.501495 C40.9813799,11.7204869 41.8955983,12.3299797 43.4192936,13.6505505 Z" id="Path" transform="translate(40.981394, 9.638032) scale(-1, 1) rotate(77.000000) translate(-40.981394, -9.638032) "></path>
                    <path d="M41.1125443,7.7624064 C40.6046598,6.03550187 40.4425972,5.12125717 39.5888823,3.3943563 C39.0197391,2.24308905 37.9023659,1.02410565 36.2367629,-0.262593913 C36.6430593,2.17539224 37.1509449,3.80071384 37.7604195,4.61337087 C38.6746316,5.83235642 39.5888501,6.44184436 41.1125443,7.7624064 Z" id="Path" transform="translate(38.674654, 3.749906) scale(-1, 1) rotate(69.000000) translate(-38.674654, -3.749906) "></path>
                    <path d="M51.0215312,17.7636422 C50.5136262,16.0367808 50.3515555,15.1225594 49.4978111,13.3957002 C48.9286482,12.2444608 47.8112407,11.0255047 46.1455887,9.7388319 C46.5519059,12.1767559 47.0598115,13.802037 47.6693055,14.6146753 C48.5835466,15.8336327 49.4977915,16.4431084 51.0215312,17.7636422 Z" id="Path" transform="translate(48.583560, 13.751237) scale(-1, 1) rotate(12.000000) translate(-48.583560, -13.751237) "></path>
                    <path d="M48.4636676,13.7687203 C47.9557785,12.0418513 47.7937155,11.127625 46.9399892,9.40076078 C46.3708384,8.24951794 45.2534471,7.03056198 43.5878153,5.7438929 C43.9941121,8.18182986 44.5020026,9.80711792 45.1114867,10.6197571 C46.0257129,11.8387158 46.9399475,12.4481889 48.4636676,13.7687203 Z" id="Path" transform="translate(46.025741, 9.756307) scale(-1, 1) rotate(30.000000) translate(-46.025741, -9.756307) "></path>
                    <path d="M44.9135185,8.59877722 C44.4056378,6.87189274 44.2435782,5.9576581 43.3898636,4.23077906 C42.8207205,3.07952637 41.7033424,1.86056103 40.0377292,0.573883035 C40.4440171,3.01184248 40.9518994,4.63714504 41.5613761,5.44979074 C42.4755911,6.66875928 43.3898157,7.27823636 44.9135185,8.59877722 Z" id="Path" transform="translate(42.475624, 4.586330) scale(-1, 1) rotate(48.000000) translate(-42.475624, -4.586330) "></path>
                    <circle id="Oval" transform="translate(28.045455, 43.590909) scale(-1, 1) translate(-28.045455, -43.590909) " cx="28.0454545" cy="43.5909091" r="1.13636364"></circle>
                </g>
                <polygon id="Rectangle" fill="url(#linearGradient-2)" points="17.3636364 0 23.2727273 0 26.8250112 7.81818182 20.9159203 7.81818182"></polygon>
                <polygon id="Rectangle" fill="url(#linearGradient-3)" points="23.2727273 2.89384678e-13 29.1818182 2.89384678e-13 32.7356523 7.81818182 26.8265614 7.81818182"></polygon>
                <polygon id="Rectangle" fill="url(#linearGradient-4)" points="29.1818182 -2.99719845e-13 35.0909091 -3.20390179e-13 38.6285671 7.81818182 32.7194762 7.81818182"></polygon>
            </g>
        </g>
    </g>
</svg>