<?xml version="1.0" encoding="UTF-8"?>
<svg width="511px" height="482px" viewBox="0 0 511 482" version="1.1" xmlns="http://www.w3.org/2000/svg" xmlns:xlink="http://www.w3.org/1999/xlink">
    <!-- Generator: Sketch 52.3 (67297) - http://www.bohemiancoding.com/sketch -->
    <title>Group</title>
    <desc>Created with Sketch.</desc>
    <g id="https://cdn4.iconfinder.com/data/icons/competition-soft/512/first_prize-512.png" stroke="none" stroke-width="1" fill="none" fill-rule="evenodd">
        <g id="Group" transform="translate(0.000000, 16.000000)">
            <g id="Group-4" transform="translate(0.000000, 26.000000)" fill="#66BE00" fill-rule="nonzero">
                <path d="M59,236 C54,219 52.4044944,210 44,193 C38.3970037,181.666667 27.3970037,169.666667 11,157 C15,181 20,197 26,205 C35,217 44,223 59,236 Z" id="Path"></path>
                <path d="M60.9375814,288.590625 C55.9375814,271.590625 54.3420758,262.590625 45.9375814,245.590625 C40.3345852,234.257292 29.3345852,222.257292 12.9375814,209.590625 C16.9375814,233.590625 21.9375814,249.590625 27.9375814,257.590625 C36.9375814,269.590625 45.9375814,275.590625 60.9375814,288.590625 Z" id="Path" transform="translate(36.937581, 249.090625) rotate(-20.000000) translate(-36.937581, -249.090625) "></path>
                <path d="M97.1823183,346.6228 C92.1823183,329.6228 90.5868127,320.6228 82.1823183,303.6228 C76.579322,292.289466 65.579322,280.289466 49.1823183,267.6228 C53.1823183,291.6228 58.1823183,307.6228 64.1823183,315.6228 C73.1823183,327.6228 82.1823183,333.6228 97.1823183,346.6228 Z" id="Path" transform="translate(73.182318, 307.122800) rotate(-26.000000) translate(-73.182318, -307.122800) "></path>
                <path d="M120.36008,388.909547 C115.36008,371.909547 113.764574,362.909547 105.36008,345.909547 C99.7570834,334.576213 88.7570834,322.576213 72.3600797,309.909547 C76.3600797,333.909547 81.3600797,349.909547 87.3600797,357.909547 C96.3600797,369.909547 105.36008,375.909547 120.36008,388.909547 Z" id="Path" transform="translate(96.360080, 349.409547) rotate(-48.000000) translate(-96.360080, -349.409547) "></path>
                <path d="M169.736181,422.81285 C164.736181,405.81285 163.140675,396.81285 154.736181,379.81285 C149.133184,368.479516 138.133184,356.479516 121.736181,343.81285 C125.736181,367.81285 130.736181,383.81285 136.736181,391.81285 C145.736181,403.81285 154.736181,409.81285 169.736181,422.81285 Z" id="Path" transform="translate(145.736181, 383.312850) rotate(-63.000000) translate(-145.736181, -383.312850) "></path>
                <path d="M216.703802,445.615646 C211.703802,428.615646 210.108296,419.615646 201.703802,402.615646 C196.100806,391.282312 185.100806,379.282312 168.703802,366.615646 C172.703802,390.615646 177.703802,406.615646 183.703802,414.615646 C192.703802,426.615646 201.703802,432.615646 216.703802,445.615646 Z" id="Path" transform="translate(192.703802, 406.115646) rotate(-69.000000) translate(-192.703802, -406.115646) "></path>
                <path d="M228.892097,398.901693 C223.892097,381.901693 222.296591,372.901693 213.892097,355.901693 C208.2891,344.56836 197.2891,332.56836 180.892097,319.901693 C184.892097,343.901693 189.892097,359.901693 195.892097,367.901693 C204.892097,379.901693 213.892097,385.901693 228.892097,398.901693 Z" id="Path" transform="translate(204.892097, 359.401693) rotate(-20.000000) translate(-204.892097, -359.401693) "></path>
                <path d="M156.224999,357.033787 C151.224999,340.033787 149.629493,331.033787 141.224999,314.033787 C135.622002,302.700454 124.622002,290.700454 108.224999,278.033787 C112.224999,302.033787 117.224999,318.033787 123.224999,326.033787 C132.224999,338.033787 141.224999,344.033787 156.224999,357.033787 Z" id="Path" transform="translate(132.224999, 317.533787) rotate(3.000000) translate(-132.224999, -317.533787) "></path>
                <path d="M112.075224,288.057134 C107.075224,271.057134 105.479718,262.057134 97.0752241,245.057134 C91.4722278,233.723801 80.4722278,221.723801 64.0752241,209.057134 C68.0752241,233.057134 73.0752241,249.057134 79.0752241,257.057134 C88.0752241,269.057134 97.0752241,275.057134 112.075224,288.057134 Z" id="Path" transform="translate(88.075224, 248.557134) rotate(24.000000) translate(-88.075224, -248.557134) "></path>
                <path d="M99.6820348,210.418273 C94.6820348,193.418273 93.0865292,184.418273 84.6820348,167.418273 C79.0790386,156.084939 68.0790386,144.084939 51.6820348,131.418273 C55.6820348,155.418273 60.6820348,171.418273 66.6820348,179.418273 C75.6820348,191.418273 84.6820348,197.418273 99.6820348,210.418273 Z" id="Path" transform="translate(75.682035, 170.918273) rotate(50.000000) translate(-75.682035, -170.918273) "></path>
                <path d="M131.5737,134.381066 C126.5737,117.381066 124.978194,108.381066 116.5737,91.3810665 C110.970704,80.0477331 99.9707036,68.0477331 83.5736999,55.3810665 C87.5736999,79.3810665 92.5736999,95.3810665 98.5736999,103.381066 C107.5737,115.381066 116.5737,121.381066 131.5737,134.381066 Z" id="Path" transform="translate(107.573700, 94.881066) rotate(77.000000) translate(-107.573700, -94.881066) "></path>
                <path d="M154.281562,76.4157437 C149.281562,59.4157437 147.686057,50.4157437 139.281562,33.4157437 C133.678566,22.0824104 122.678566,10.0824104 106.281562,-2.5842563 C110.281562,21.4157437 115.281562,37.4157437 121.281562,45.4157437 C130.281562,57.4157437 139.281562,63.4157437 154.281562,76.4157437 Z" id="Path" transform="translate(130.281562, 36.915744) rotate(69.000000) translate(-130.281562, -36.915744) "></path>
                <path d="M56.7369694,174.873289 C51.7369694,157.873289 50.1414638,148.873289 41.7369694,131.873289 C36.1339731,120.539956 25.1339731,108.539956 8.73696937,95.8732892 C12.7369694,119.873289 17.7369694,135.873289 23.7369694,143.873289 C32.7369694,155.873289 41.7369694,161.873289 56.7369694,174.873289 Z" id="Path" transform="translate(32.736969, 135.373289) rotate(12.000000) translate(-32.736969, -135.373289) "></path>
                <path d="M81.9164751,135.545418 C76.9164751,118.545418 75.3209695,109.545418 66.9164751,92.5454182 C61.3134789,81.2120848 50.3134789,69.2120848 33.9164751,56.5454182 C37.9164751,80.5454182 42.9164751,96.5454182 48.9164751,104.545418 C57.9164751,116.545418 66.9164751,122.545418 81.9164751,135.545418 Z" id="Path" transform="translate(57.916475, 96.045418) rotate(30.000000) translate(-57.916475, -96.045418) "></path>
                <path d="M116.864305,84.6498721 C111.864305,67.6498721 110.2688,58.6498721 101.864305,41.6498721 C96.2613092,30.3165388 85.2613092,18.3165388 68.8643054,5.64987214 C72.8643054,29.6498721 77.8643054,45.6498721 83.8643054,53.6498721 C92.8643054,65.6498721 101.864305,71.6498721 116.864305,84.6498721 Z" id="Path" transform="translate(92.864305, 45.149872) rotate(48.000000) translate(-92.864305, -45.149872) "></path>
                <circle id="Oval" cx="235" cy="429" r="11"></circle>
                <path d="M500,236 C495,219 493.404494,210 485,193 C479.397004,181.666667 468.397004,169.666667 452,157 C456,181 461,197 467,205 C476,217 485,223 500,236 Z" id="Path" transform="translate(476.000000, 196.500000) scale(-1, 1) translate(-476.000000, -196.500000) "></path>
                <path d="M498.062419,288.590625 C493.062419,271.590625 491.466913,262.590625 483.062419,245.590625 C477.459422,234.257292 466.459422,222.257292 450.062419,209.590625 C454.062419,233.590625 459.062419,249.590625 465.062419,257.590625 C474.062419,269.590625 483.062419,275.590625 498.062419,288.590625 Z" id="Path" transform="translate(474.062419, 249.090625) scale(-1, 1) rotate(-20.000000) translate(-474.062419, -249.090625) "></path>
                <path d="M461.817682,346.6228 C456.817682,329.6228 455.222176,320.6228 446.817682,303.6228 C441.214685,292.289466 430.214685,280.289466 413.817682,267.6228 C417.817682,291.6228 422.817682,307.6228 428.817682,315.6228 C437.817682,327.6228 446.817682,333.6228 461.817682,346.6228 Z" id="Path" transform="translate(437.817682, 307.122800) scale(-1, 1) rotate(-26.000000) translate(-437.817682, -307.122800) "></path>
                <path d="M438.63992,388.909547 C433.63992,371.909547 432.044415,362.909547 423.63992,345.909547 C418.036924,334.576213 407.036924,322.576213 390.63992,309.909547 C394.63992,333.909547 399.63992,349.909547 405.63992,357.909547 C414.63992,369.909547 423.63992,375.909547 438.63992,388.909547 Z" id="Path" transform="translate(414.639920, 349.409547) scale(-1, 1) rotate(-48.000000) translate(-414.639920, -349.409547) "></path>
                <path d="M389.263819,422.81285 C384.263819,405.81285 382.668314,396.81285 374.263819,379.81285 C368.660823,368.479516 357.660823,356.479516 341.263819,343.81285 C345.263819,367.81285 350.263819,383.81285 356.263819,391.81285 C365.263819,403.81285 374.263819,409.81285 389.263819,422.81285 Z" id="Path" transform="translate(365.263819, 383.312850) scale(-1, 1) rotate(-63.000000) translate(-365.263819, -383.312850) "></path>
                <path d="M342.296198,445.615646 C337.296198,428.615646 335.700693,419.615646 327.296198,402.615646 C321.693202,391.282312 310.693202,379.282312 294.296198,366.615646 C298.296198,390.615646 303.296198,406.615646 309.296198,414.615646 C318.296198,426.615646 327.296198,432.615646 342.296198,445.615646 Z" id="Path" transform="translate(318.296198, 406.115646) scale(-1, 1) rotate(-69.000000) translate(-318.296198, -406.115646) "></path>
                <path d="M330.107903,398.901693 C325.107903,381.901693 323.512398,372.901693 315.107903,355.901693 C309.504907,344.56836 298.504907,332.56836 282.107903,319.901693 C286.107903,343.901693 291.107903,359.901693 297.107903,367.901693 C306.107903,379.901693 315.107903,385.901693 330.107903,398.901693 Z" id="Path" transform="translate(306.107903, 359.401693) scale(-1, 1) rotate(-20.000000) translate(-306.107903, -359.401693) "></path>
                <path d="M402.775001,357.033787 C397.775001,340.033787 396.179496,331.033787 387.775001,314.033787 C382.172005,302.700454 371.172005,290.700454 354.775001,278.033787 C358.775001,302.033787 363.775001,318.033787 369.775001,326.033787 C378.775001,338.033787 387.775001,344.033787 402.775001,357.033787 Z" id="Path" transform="translate(378.775001, 317.533787) scale(-1, 1) rotate(3.000000) translate(-378.775001, -317.533787) "></path>
                <path d="M446.924776,288.057134 C441.924776,271.057134 440.32927,262.057134 431.924776,245.057134 C426.32178,233.723801 415.32178,221.723801 398.924776,209.057134 C402.924776,233.057134 407.924776,249.057134 413.924776,257.057134 C422.924776,269.057134 431.924776,275.057134 446.924776,288.057134 Z" id="Path" transform="translate(422.924776, 248.557134) scale(-1, 1) rotate(24.000000) translate(-422.924776, -248.557134) "></path>
                <path d="M459.317965,210.418273 C454.317965,193.418273 452.72246,184.418273 444.317965,167.418273 C438.714969,156.084939 427.714969,144.084939 411.317965,131.418273 C415.317965,155.418273 420.317965,171.418273 426.317965,179.418273 C435.317965,191.418273 444.317965,197.418273 459.317965,210.418273 Z" id="Path" transform="translate(435.317965, 170.918273) scale(-1, 1) rotate(50.000000) translate(-435.317965, -170.918273) "></path>
                <path d="M427.4263,134.381066 C422.4263,117.381066 420.830795,108.381066 412.4263,91.3810665 C406.823304,80.0477331 395.823304,68.0477331 379.4263,55.3810665 C383.4263,79.3810665 388.4263,95.3810665 394.4263,103.381066 C403.4263,115.381066 412.4263,121.381066 427.4263,134.381066 Z" id="Path" transform="translate(403.426300, 94.881066) scale(-1, 1) rotate(77.000000) translate(-403.426300, -94.881066) "></path>
                <path d="M404.718438,76.4157437 C399.718438,59.4157437 398.122932,50.4157437 389.718438,33.4157437 C384.115441,22.0824104 373.115441,10.0824104 356.718438,-2.5842563 C360.718438,21.4157437 365.718438,37.4157437 371.718438,45.4157437 C380.718438,57.4157437 389.718438,63.4157437 404.718438,76.4157437 Z" id="Path" transform="translate(380.718438, 36.915744) scale(-1, 1) rotate(69.000000) translate(-380.718438, -36.915744) "></path>
                <path d="M502.263031,174.873289 C497.263031,157.873289 495.667525,148.873289 487.263031,131.873289 C481.660034,120.539956 470.660034,108.539956 454.263031,95.8732892 C458.263031,119.873289 463.263031,135.873289 469.263031,143.873289 C478.263031,155.873289 487.263031,161.873289 502.263031,174.873289 Z" id="Path" transform="translate(478.263031, 135.373289) scale(-1, 1) rotate(12.000000) translate(-478.263031, -135.373289) "></path>
                <path d="M477.083525,135.545418 C472.083525,118.545418 470.488019,109.545418 462.083525,92.5454182 C456.480529,81.2120848 445.480529,69.2120848 429.083525,56.5454182 C433.083525,80.5454182 438.083525,96.5454182 444.083525,104.545418 C453.083525,116.545418 462.083525,122.545418 477.083525,135.545418 Z" id="Path" transform="translate(453.083525, 96.045418) scale(-1, 1) rotate(30.000000) translate(-453.083525, -96.045418) "></path>
                <path d="M442.135695,84.6498721 C437.135695,67.6498721 435.540189,58.6498721 427.135695,41.6498721 C421.532698,30.3165388 410.532698,18.3165388 394.135695,5.64987214 C398.135695,29.6498721 403.135695,45.6498721 409.135695,53.6498721 C418.135695,65.6498721 427.135695,71.6498721 442.135695,84.6498721 Z" id="Path" transform="translate(418.135695, 45.149872) scale(-1, 1) rotate(48.000000) translate(-418.135695, -45.149872) "></path>
                <circle id="Oval" transform="translate(276.000000, 429.000000) scale(-1, 1) translate(-276.000000, -429.000000) " cx="276" cy="429" r="11"></circle>
            </g>
            <polygon id="Star" stroke="#437708" stroke-width="14" fill="#FFB600" fill-rule="nonzero" points="255 349.5 118.046036 421.50096 144.201916 269.00048 33.4038317 160.99904 186.523018 138.74952 255 0 323.476982 138.74952 476.596168 160.99904 365.798084 269.00048 391.953964 421.50096"></polygon>
            <g id="Group-4" transform="translate(50.000000, 302.000000)" fill="#66BE00" fill-rule="nonzero">
                <path d="M70.3600797,112.909547 C65.3600797,95.9095465 63.764574,86.9095465 55.3600797,69.9095465 C49.7570834,58.5762132 38.7570834,46.5762132 22.3600797,33.9095465 C26.3600797,57.9095465 31.3600797,73.9095465 37.3600797,81.9095465 C46.3600797,93.9095465 55.3600797,99.9095465 70.3600797,112.909547 Z" id="Path" transform="translate(46.360080, 73.409547) rotate(-48.000000) translate(-46.360080, -73.409547) "></path>
                <path d="M119.736181,146.81285 C114.736181,129.81285 113.140675,120.81285 104.736181,103.81285 C99.1331844,92.4795164 88.1331844,80.4795164 71.7361806,67.8128497 C75.7361806,91.8128497 80.7361806,107.81285 86.7361806,115.81285 C95.7361806,127.81285 104.736181,133.81285 119.736181,146.81285 Z" id="Path" transform="translate(95.736181, 107.312850) rotate(-63.000000) translate(-95.736181, -107.312850) "></path>
                <path d="M178.892097,122.901693 C173.892097,105.901693 172.296591,96.9016929 163.892097,79.9016929 C158.2891,68.5683596 147.2891,56.5683596 130.892097,43.9016929 C134.892097,67.9016929 139.892097,83.9016929 145.892097,91.9016929 C154.892097,103.901693 163.892097,109.901693 178.892097,122.901693 Z" id="Path" transform="translate(154.892097, 83.401693) rotate(-20.000000) translate(-154.892097, -83.401693) "></path>
                <path d="M106.224999,81.0337875 C101.224999,64.0337875 99.6294929,55.0337875 91.2249986,38.0337875 C85.6220023,26.7004541 74.6220023,14.7004541 58.2249986,2.03378747 C62.2249986,26.0337875 67.2249986,42.0337875 73.2249986,50.0337875 C82.2249986,62.0337875 91.2249986,68.0337875 106.224999,81.0337875 Z" id="Path" transform="translate(82.224999, 41.533787) rotate(3.000000) translate(-82.224999, -41.533787) "></path>
                <circle id="Oval" cx="185" cy="153" r="11"></circle>
                <path d="M388.63992,112.909547 C383.63992,95.9095465 382.044415,86.9095465 373.63992,69.9095465 C368.036924,58.5762132 357.036924,46.5762132 340.63992,33.9095465 C344.63992,57.9095465 349.63992,73.9095465 355.63992,81.9095465 C364.63992,93.9095465 373.63992,99.9095465 388.63992,112.909547 Z" id="Path" transform="translate(364.639920, 73.409547) scale(-1, 1) rotate(-48.000000) translate(-364.639920, -73.409547) "></path>
                <path d="M339.263819,146.81285 C334.263819,129.81285 332.668314,120.81285 324.263819,103.81285 C318.660823,92.4795164 307.660823,80.4795164 291.263819,67.8128497 C295.263819,91.8128497 300.263819,107.81285 306.263819,115.81285 C315.263819,127.81285 324.263819,133.81285 339.263819,146.81285 Z" id="Path" transform="translate(315.263819, 107.312850) scale(-1, 1) rotate(-63.000000) translate(-315.263819, -107.312850) "></path>
                <path d="M280.107903,122.901693 C275.107903,105.901693 273.512398,96.9016929 265.107903,79.9016929 C259.504907,68.5683596 248.504907,56.5683596 232.107903,43.9016929 C236.107903,67.9016929 241.107903,83.9016929 247.107903,91.9016929 C256.107903,103.901693 265.107903,109.901693 280.107903,122.901693 Z" id="Path" transform="translate(256.107903, 83.401693) scale(-1, 1) rotate(-20.000000) translate(-256.107903, -83.401693) "></path>
                <path d="M352.775001,81.0337875 C347.775001,64.0337875 346.179496,55.0337875 337.775001,38.0337875 C332.172005,26.7004541 321.172005,14.7004541 304.775001,2.03378747 C308.775001,26.0337875 313.775001,42.0337875 319.775001,50.0337875 C328.775001,62.0337875 337.775001,68.0337875 352.775001,81.0337875 Z" id="Path" transform="translate(328.775001, 41.533787) scale(-1, 1) rotate(3.000000) translate(-328.775001, -41.533787) "></path>
                <circle id="Oval" transform="translate(226.000000, 153.000000) scale(-1, 1) translate(-226.000000, -153.000000) " cx="226" cy="153" r="11"></circle>
            </g>
            <polygon id="1" fill="#A3760B" points="266.275391 327 231.851562 327 255.289062 191.746094 212.076172 204.807617 217.447266 174.65625 291.666016 149.021484 296.182617 148.899414"></polygon>
        </g>
    </g>
</svg>