<?xml version="1.0" encoding="UTF-8"?>
<svg width="240px" height="240px" viewBox="0 0 240 240" version="1.1" xmlns="http://www.w3.org/2000/svg" xmlns:xlink="http://www.w3.org/1999/xlink">
    <!-- Generator: Sketch 46.2 (44496) - http://www.bohemiancoding.com/sketch -->
    <title>Group 2</title>
    <desc>Created with Sketch.</desc>
    <defs></defs>
    <g id="Page-1" stroke="none" stroke-width="1" fill="none" fill-rule="evenodd">
        <g id="Group-2">
            <rect id="Rectangle" fill="#D8D8D8" x="0" y="0" width="240" height="240"></rect>
            <rect id="Rectangle-path" fill="#FFD3AE" fill-rule="nonzero" x="109.166038" y="178.097642" width="20.6367925" height="15.0943396"></rect>
            <path d="M134.991509,187.361792 L134.991509,239.998585 L107.868868,239.998585 L107.868868,189.475 C111.420755,191.234434 115.425472,192.225 119.656604,192.225 C125.368868,192.225 130.661321,190.423113 134.991509,187.361792 Z" id="Shape" fill="#333333" fill-rule="nonzero"></path>
            <path d="M134.991509,187.361792 L134.991509,239.998585 L107.868868,239.998585 L107.868868,189.475 C111.420755,191.234434 115.425472,192.225 119.656604,192.225 C125.368868,192.225 130.661321,190.423113 134.991509,187.361792 Z" id="Shape" fill="#5FBA49" fill-rule="nonzero"></path>
            <path d="M113.411792,159.566038 L113.411792,239.995283 L64.2278302,239.995283 L64.2278302,197.830189 C64.2278302,179.141509 77.6240566,163.584906 95.3363208,160.235849 C97.6523585,159.79717 100.048585,159.566038 102.491981,159.566038 L113.411792,159.566038 L113.411792,159.566038 Z" id="Shape" fill="#77D661" fill-rule="nonzero"></path>
            <path d="M175.091038,197.830189 L175.091038,239.995283 L125.911792,239.995283 L125.911792,159.566038 L136.826887,159.566038 C139.270283,159.566038 141.666509,159.79717 143.982547,160.235849 C161.694811,163.584906 175.091038,179.141509 175.091038,197.830189 Z" id="Shape" fill="#77D661" fill-rule="nonzero"></path>
            <rect id="Rectangle-path" fill="#FFD3AE" fill-rule="nonzero" x="64.2283019" y="215.856604" width="19.1037736" height="24.1415094"></rect>
            <rect id="Rectangle-path" fill="#FFD3AE" fill-rule="nonzero" x="155.987736" y="215.856604" width="19.1037736" height="24.1415094"></rect>
            <path d="M102.491981,159.566038 L113.411792,159.566038 L113.411792,186.419811 C103.015566,183.660377 95.3363208,174.165094 95.3363208,162.915094 L95.3363208,160.235849 C97.6523585,159.79717 100.048585,159.566038 102.491981,159.566038 Z" id="Shape" fill="#5FBA49" fill-rule="nonzero"></path>
            <path d="M143.982547,160.235849 L143.982547,162.915094 C143.982547,169.419811 141.454245,175.523585 136.855189,180.113208 C133.779717,183.193396 130.015566,185.34434 125.911792,186.429245 L125.911792,159.566038 L136.826887,159.566038 C139.270283,159.566038 141.666509,159.79717 143.982547,160.235849 Z" id="Shape" fill="#5FBA49" fill-rule="nonzero"></path>
            <path d="M140.209434,148.875472 L140.209434,162.917925 C140.209434,168.587736 137.912264,173.729245 134.190566,177.446226 C130.473585,181.163208 125.332075,183.465094 119.657547,183.465094 C108.308491,183.465094 99.1103774,174.266981 99.1103774,162.917925 L99.1103774,148.875472 L140.209434,148.875472 Z" id="Shape" fill="#FFD3AE" fill-rule="nonzero"></path>
            <path d="M140.209434,148.875472 L140.209434,160.224528 C134.143396,163.663208 127.129245,165.625472 119.657547,165.625472 C112.185849,165.625472 105.176415,163.663208 99.1103774,160.224528 L99.1103774,148.875472 L140.209434,148.875472 L140.209434,148.875472 Z" id="Shape" fill="#E5B591" fill-rule="nonzero"></path>
            <rect id="Rectangle-path" fill="#5FBA49" fill-rule="nonzero" x="109.756132" y="182.495755" width="3.65566038" height="57.4995283"></rect>
            <rect id="Rectangle-path" fill="#5FBA49" fill-rule="nonzero" x="125.911792" y="182.495755" width="3.65566038" height="57.4995283"></rect>
            <rect id="Rectangle-path" fill="#5FBA49" fill-rule="nonzero" x="64.2278302" y="212.613208" width="19.104717" height="3.24339623"></rect>
            <rect id="Rectangle-path" fill="#5FBA49" fill-rule="nonzero" x="155.986321" y="212.613208" width="19.104717" height="3.24339623"></rect>
            <path d="M145.605189,228.57217 L139.630189,228.57217 C136.591038,228.57217 134.126887,226.108491 134.126887,223.068868 L134.126887,212.849057 L151.108019,212.849057 L151.108019,223.06934 C151.108019,226.108491 148.64434,228.57217 145.605189,228.57217 Z" id="Shape" fill="#5FBA49" fill-rule="nonzero"></path>
            <g id="Group" transform="translate(68.716981, 92.830189)" fill-rule="nonzero" fill="#E5B591">
                <circle id="Oval" cx="13.4075472" cy="13.2075472" r="13.1556604"></circle>
                <circle id="Oval" cx="89.4146226" cy="13.2075472" r="13.1556604"></circle>
            </g>
            <path d="M143.179245,151.306604 C136.528302,155.783019 128.518868,158.396226 119.896226,158.396226 C111.273585,158.396226 103.264151,155.783019 96.6132075,151.306604 C96.5235849,151.245283 96.4292453,151.183962 96.3396226,151.117925 C85.3584906,143.599057 78.1509434,130.966981 78.1509434,116.650943 L78.1509434,106.037736 L78.1509434,81.745283 C78.1509434,58.6900943 96.8410377,40 119.896226,40 L119.896226,40 C142.951415,40 161.641509,58.6900943 161.641509,81.745283 L161.641509,106.037736 L161.641509,116.650943 C161.641509,130.966981 154.433962,143.599057 143.45283,151.117925 C143.363208,151.183962 143.268868,151.245283 143.179245,151.306604 Z" id="Shape" fill="#FFD3AE" fill-rule="nonzero"></path>
            <path d="M97.9622642,105.566038 L114.492453,105.566038 C117.568868,105.566038 120.063208,108.059906 120.063208,111.136792 L120.063208,121.100472 C120.063208,123.502358 122.010377,125.449528 124.412264,125.449528 L127.595283,125.449528 L126.207075,125.941981 C122.591038,127.225 118.558962,126.306604 115.855189,123.583962 L97.9622642,105.566038 Z" id="Shape" fill="#E5B591" fill-rule="nonzero"></path>
            <g id="Group" transform="translate(96.075472, 101.792453)" fill-rule="nonzero">
                <path d="M8.01509434,13.8853774 C7.26981132,13.8853774 6.53867925,13.5834906 6.01509434,13.0599057 C5.48679245,12.5316038 5.18490566,11.8004717 5.18490566,11.0551887 C5.18490566,10.3099057 5.48679245,9.58349057 6.01509434,9.05518868 C6.67075472,8.3995283 7.64716981,8.09764151 8.56698113,8.28160377 C8.7509434,8.31933962 8.9254717,8.37122642 9.1,8.44198113 C9.26981132,8.51273585 9.43490566,8.60235849 9.58584906,8.70141509 C9.74150943,8.80518868 9.88773585,8.92311321 10.0150943,9.05518868 C10.1471698,9.18726415 10.2650943,9.32877358 10.3688679,9.48443396 C10.4726415,9.64009434 10.5575472,9.80518868 10.6283019,9.975 C10.6990566,10.1448113 10.7556604,10.3240566 10.7886792,10.5033019 C10.8264151,10.6872642 10.845283,10.8712264 10.845283,11.0551887 C10.845283,11.2391509 10.8264151,11.4278302 10.7886792,11.6117925 C10.7556604,11.7910377 10.6990566,11.970283 10.6283019,12.1400943 C10.5575472,12.3099057 10.4726415,12.475 10.3688679,12.6259434 C10.2650943,12.7816038 10.1471698,12.9278302 10.0150943,13.0599057 C9.49150943,13.5834906 8.76037736,13.8853774 8.01509434,13.8853774 Z" id="Shape" fill="#333333"></path>
                <path d="M40.090566,13.8853774 C39.9066038,13.8853774 39.7179245,13.8665094 39.5386792,13.8334906 C39.359434,13.7957547 39.1801887,13.7391509 39.0103774,13.6683962 C38.8358491,13.5976415 38.6754717,13.5127358 38.5198113,13.4089623 C38.3641509,13.3051887 38.2179245,13.1872642 38.090566,13.0599057 C37.9584906,12.9278302 37.840566,12.7816038 37.7367925,12.6259434 C37.6330189,12.475 37.5481132,12.3099057 37.4773585,12.1400943 C37.4066038,11.970283 37.35,11.7910377 37.3169811,11.6117925 C37.2792453,11.4278302 37.2603774,11.2391509 37.2603774,11.0551887 C37.2603774,10.8712264 37.2792453,10.6872642 37.3169811,10.5033019 C37.35,10.3240566 37.4066038,10.1448113 37.4773585,9.975 C37.5481132,9.80518868 37.6330189,9.64009434 37.7367925,9.48443396 C37.840566,9.32877358 37.9584906,9.18726415 38.090566,9.05518868 C38.2179245,8.92311321 38.3641509,8.80518868 38.5198113,8.70141509 C38.6754717,8.60235849 38.8358491,8.51273585 39.0103774,8.44198113 C39.1801887,8.37122642 39.359434,8.31933962 39.5386792,8.28160377 C40.4584906,8.09764151 41.4349057,8.3995283 42.090566,9.05518868 C42.2226415,9.18726415 42.340566,9.32877358 42.4443396,9.48443396 C42.5481132,9.64009434 42.6330189,9.80518868 42.7037736,9.975 C42.7745283,10.1448113 42.8311321,10.3240566 42.8641509,10.5033019 C42.9018868,10.6872642 42.9207547,10.8712264 42.9207547,11.0551887 C42.9207547,11.2391509 42.9018868,11.4278302 42.8641509,11.6117925 C42.8311321,11.7910377 42.7745283,11.970283 42.7037736,12.1400943 C42.6330189,12.3099057 42.5481132,12.475 42.4443396,12.6259434 C42.340566,12.7816038 42.2226415,12.9278302 42.090566,13.0599057 C41.5669811,13.5834906 40.8358491,13.8853774 40.090566,13.8853774 Z" id="Shape" fill="#333333"></path>
                <path d="M13.1740566,5.34575472 L2.85566038,5.34575472 C1.3995283,5.34575472 0.218867925,4.16509434 0.218867925,2.70896226 L0.218867925,2.70896226 C0.218867925,1.25283019 1.3995283,0.0721698113 2.85566038,0.0721698113 L13.1740566,0.0721698113 C14.6301887,0.0721698113 15.8108491,1.25283019 15.8108491,2.70896226 L15.8108491,2.70896226 C15.8108491,4.16556604 14.6306604,5.34575472 13.1740566,5.34575472 Z" id="Shape" fill="#9B592D"></path>
                <path d="M45.2495283,5.34575472 L34.9311321,5.34575472 C33.475,5.34575472 32.2943396,4.16509434 32.2943396,2.70896226 L32.2943396,2.70896226 C32.2943396,1.25283019 33.475,0.0721698113 34.9311321,0.0721698113 L45.2495283,0.0721698113 C46.7056604,0.0721698113 47.8863208,1.25283019 47.8863208,2.70896226 L47.8863208,2.70896226 C47.8863208,4.16556604 46.7061321,5.34575472 45.2495283,5.34575472 Z" id="Shape" fill="#9B592D"></path>
            </g>
            <path d="M132.146226,131.509434 C132.146226,132.915094 131.900943,134.259434 131.448113,135.514151 C131.235849,136.117925 130.971698,136.698113 130.669811,137.25 C128.641509,140.919811 124.735849,143.40566 120.245283,143.40566 C115.75,143.40566 111.84434,140.919811 109.816038,137.25 C109.509434,136.698113 109.245283,136.117925 109.033019,135.514151 C108.580189,134.259434 108.339623,132.915094 108.339623,131.509434 L132.146226,131.509434 Z" id="Shape" fill="#FFFFFF" fill-rule="nonzero"></path>
            <path d="M131.226415,135.283019 C131.014151,135.886792 130.75,136.466981 130.448113,137.018868 C128.419811,140.688679 124.514151,143.174528 120.023585,143.174528 C115.528302,143.174528 111.622642,140.688679 109.59434,137.018868 C109.287736,136.466981 109.023585,135.886792 108.811321,135.283019 L131.226415,135.283019 Z" id="Shape" fill="#333333" fill-rule="nonzero"></path>
        </g>
    </g>
</svg>