<?xml version="1.0" encoding="UTF-8"?>
<svg width="240px" height="240px" viewBox="0 0 240 240" version="1.1" xmlns="http://www.w3.org/2000/svg" xmlns:xlink="http://www.w3.org/1999/xlink">
    <!-- Generator: Sketch 46.2 (44496) - http://www.bohemiancoding.com/sketch -->
    <title>Group 3</title>
    <desc>Created with Sketch.</desc>
    <defs></defs>
    <g id="Page-1" stroke="none" stroke-width="1" fill="none" fill-rule="evenodd">
        <g id="Group-3">
            <rect id="Rectangle" fill="#D8D8D8" x="0" y="0" width="240" height="240"></rect>
            <path d="M163.555556,197.590062 L163.555556,239.012346 L73.1851852,239.012346 L73.1851852,197.590062 C73.1851852,179.230616 84.1051465,163.948069 98.5433349,160.658011 C100.431258,160.22706 102.384547,160 104.376286,160 L132.364455,160 C134.356194,160 136.309483,160.22706 138.197406,160.658011 C152.635594,163.948069 163.555556,179.230616 163.555556,197.590062 Z" id="Shape" fill="#808080" fill-rule="nonzero"></path>
            <rect id="Rectangle-path" fill="#FFD3AE" fill-rule="nonzero" x="61.8271605" y="220.740741" width="18.7654321" height="17.7777778"></rect>
            <rect id="Rectangle-path" fill="#FFD3AE" fill-rule="nonzero" x="152.197531" y="220.740741" width="18.7654321" height="17.7777778"></rect>
            <path d="M136.888889,149.62963 L136.888889,160.671277 C130.91218,164.016813 124.001321,165.925926 116.639652,165.925926 C109.277983,165.925926 102.37177,164.016813 96.3950617,160.671277 L96.3950617,149.62963 L136.888889,149.62963 L136.888889,149.62963 Z" id="Shape" fill="#E5B591" fill-rule="nonzero"></path>
            <g id="Group" transform="translate(87.506173, 158.518519)" fill-rule="nonzero" fill="#666666">
                <path d="M29.0479326,6.67949833 L19.5533608,22.7319381 L16.0205291,28.7070899 L0.261297276,3.50277092 C-0.0624338624,2.98526357 0.156315893,2.30357829 0.718683128,2.06632961 C1.84665491,1.59136978 3.24239859,1.08773663 4.46055262,0.670123457 C6.1754027,0.0823202038 8.06275524,0.284883402 9.61296492,1.22509112 C15.3323692,4.69456398 21.9683951,6.67949833 29.0479326,6.67949833 Z" id="Shape"></path>
                <path d="M57.8304056,3.50739565 L42.0753361,28.7075524 L38.5425044,22.7324005 L29.0479326,6.67996081 C36.1260827,6.67996081 42.7584088,4.69548893 48.4759632,1.22740349 C50.0275603,0.286270821 51.9163002,0.083707623 53.6325377,0.673360768 C54.8502293,1.09189888 56.2455105,1.59599451 57.3730198,2.07141681 C57.9358495,2.30820302 58.1541368,2.9898883 57.8304056,3.50739565 Z" id="Shape"></path>
            </g>
            <rect id="Rectangle-path" fill="#666666" fill-rule="nonzero" x="115.654321" y="165.432099" width="4.9382716" height="34.0740741"></rect>
            <rect id="Rectangle-path" fill="#666666" fill-rule="nonzero" x="73.1851852" y="215.308642" width="15.308642" height="5.43209877"></rect>
            <rect id="Rectangle-path" fill="#666666" fill-rule="nonzero" x="147.753086" y="215.308642" width="15.308642" height="5.43209877"></rect>
            <rect id="Rectangle-path" fill="#666666" fill-rule="nonzero" x="128.987654" y="203.45679" width="16.7901235" height="5.43209877"></rect>
            <rect id="Rectangle-path" fill="#FF5050" fill-rule="nonzero" x="132.444444" y="195.555556" width="12.345679" height="7.90123457"></rect>
            <rect id="Rectangle-path" fill="#FFFFFF" fill-rule="nonzero" x="130.469136" y="197.530864" width="12.345679" height="5.92592593"></rect>
            <path d="M138.97002,175.802469 L151.703704,162.177402 C144.510425,157.587901 145.403001,143.928171 145.403001,140.740741 L87.5061728,140.740741 C91.6602703,152.575269 119.13513,172.880393 138.97002,175.802469 Z" id="Shape" fill="#F0C891" fill-rule="nonzero"></path>
            <path d="M188.596296,201.004393 L188.558173,201.025169 L188.558173,199.583196 C188.558173,185.518663 179.465009,170.504401 168.351326,166.218436 L153.775743,160.596778 L154.081722,160.08975 L147.904801,152.644949 C146.907305,151.442706 145.303818,151.391963 144.25527,152.52908 L144.081561,152.717268 C143.546845,149.56842 143.447062,146.364035 143.444742,143.988715 C147.571971,138.57682 150.730876,131.879576 152.93107,124.718454 C157.90032,127.004675 162.037494,114.554321 162.037494,108.947047 C162.037494,104.663479 159.971228,102.179881 156.67939,102.274574 C156.714198,101.29488 156.733425,100.321578 156.733425,99.3578649 C156.733425,73.7607422 140.110471,64.1975309 119.604938,64.1975309 C99.0994056,64.1975309 82.4764518,73.7607422 82.4764518,99.3578649 C82.4764518,100.331966 82.496342,101.316056 82.531813,102.306139 C79.254561,101.938953 77.1723823,104.453316 77.1723823,108.947047 C77.1723823,114.813229 81.3211591,128.168562 86.1515089,124.302124 C88.3550183,131.615074 91.5540352,138.463748 95.7575103,143.978326 C95.7475652,146.344857 95.6348537,149.536856 95.0921811,152.677712 L94.9549383,152.52868 C93.90639,151.391563 92.3029035,151.442306 91.305407,152.64455 L85.1284865,160.089351 L85.434465,160.596379 L70.858882,166.218037 C59.7451989,170.504002 50.6520348,185.518263 50.6520348,199.582797 L50.6520348,201.02477 L50.6139118,201.003993 C49.3899977,200.33355 48,201.411933 48,203.032505 L48,207.298093 C48,209.008563 48.8294239,210.560812 50.1212963,211.268813 L53.3040695,213.012446 L53.3040695,230.410818 C53.3040695,235.706843 56.8660837,240 61.2601738,240 L177.949703,240 C182.343793,240 185.905807,235.706843 185.905807,230.410818 L185.905807,213.012446 L189.08858,211.268813 C190.380453,210.561211 191.209877,209.008563 191.209877,207.298093 L191.209877,203.032904 C191.209877,201.412333 189.82021,200.333949 188.596296,201.004393 Z" id="Shape" fill="#FAD7A5" fill-rule="nonzero"></path>
            <path d="M162.533679,102.333759 C162.575606,101.352542 162.598765,100.377727 162.598765,99.412516 C162.598765,73.7756066 142.575988,64.1975309 117.876543,64.1975309 C93.1770988,64.1975309 73.154321,73.7756066 73.154321,99.412516 C73.154321,100.388131 73.1782793,101.373751 73.221005,102.365372 C69.2734703,101.997616 66.7654321,104.515888 66.7654321,109.016603 C66.7654321,114.891903 71.7627411,128.267995 77.5810224,124.395547 C83.9830883,142.063465 97.3570293,157.037037 117.876543,157.037037 C138.234338,157.037037 151.557967,142.298365 158.018731,124.812524 C164.004321,127.102299 168.987654,114.632593 168.987654,109.016603 C168.987654,104.725977 166.498783,102.238919 162.533679,102.333759 Z" id="Shape" fill="#FFE1B4" fill-rule="nonzero"></path>
            <path d="M94.9135802,104.197531 L111.166407,104.197531 C114.191202,104.197531 116.643689,106.666842 116.643689,109.713431 L116.643689,119.578999 C116.643689,121.957235 118.558187,123.885231 120.919772,123.885231 L124.049383,123.885231 L122.684468,124.372835 C119.129104,125.64322 115.164684,124.733867 112.506277,122.038035 L94.9135802,104.197531 Z" id="Shape" fill="#E5B591" fill-rule="nonzero"></path>
            <g id="Group" transform="translate(92.938272, 100.740741)" fill-rule="nonzero" fill="#333333">
                <path d="M7.89798112,13.5658272 C7.16363108,13.5658272 6.4432244,13.2708477 5.92732026,12.7592428 C5.40676834,12.2430288 5.10931009,11.5286255 5.10931009,10.8003951 C5.10931009,10.0721646 5.40676834,9.36237037 5.92732026,8.84615638 C6.57336238,8.20549794 7.53545389,7.91051852 8.44177197,8.0902716 C8.62303558,8.12714403 8.79500363,8.17784362 8.96697168,8.24697942 C9.13429194,8.31611523 9.29696442,8.40368724 9.44569354,8.50047737 C9.59907044,8.60187654 9.74315178,8.71710288 9.86864198,8.84615638 C9.99877996,8.97520988 10.1149746,9.11348148 10.2172259,9.26558025 C10.3194771,9.41767901 10.4031373,9.57899588 10.472854,9.74492181 C10.5425708,9.91084774 10.5983442,10.0859918 10.6308787,10.2611358 C10.668061,10.4408889 10.6866521,10.620642 10.6866521,10.8003951 C10.6866521,10.9801481 10.668061,11.1645103 10.6308787,11.3442634 C10.5983442,11.5194074 10.5425708,11.6945514 10.472854,11.8604774 C10.4031373,12.0264033 10.3194771,12.1877202 10.2172259,12.3352099 C10.1149746,12.4873086 9.99877996,12.6301893 9.86864198,12.7592428 C9.35227306,13.2708477 8.63233115,13.5658272 7.89798112,13.5658272 Z" id="Shape"></path>
                <path d="M39.5029194,13.5658272 C39.3216558,13.5658272 39.1357444,13.5473909 38.9591285,13.5151276 C38.7825127,13.4782551 38.6058969,13.4229465 38.4385766,13.3538107 C38.2666086,13.2846749 38.1085839,13.2017119 37.955207,13.1003128 C37.8018301,12.9989136 37.6577487,12.8836872 37.5322585,12.7592428 C37.4021206,12.6301893 37.2859259,12.4873086 37.1836747,12.3352099 C37.0814234,12.1877202 36.9977633,12.0264033 36.9280465,11.8604774 C36.8583297,11.6945514 36.8025563,11.5194074 36.7700218,11.3442634 C36.7328395,11.1645103 36.7142484,10.9801481 36.7142484,10.8003951 C36.7142484,10.620642 36.7328395,10.4408889 36.7700218,10.2611358 C36.8025563,10.0859918 36.8583297,9.91084774 36.9280465,9.74492181 C36.9977633,9.57899588 37.0814234,9.41767901 37.1836747,9.26558025 C37.2859259,9.11348148 37.4021206,8.97520988 37.5322585,8.84615638 C37.6577487,8.71710288 37.8018301,8.60187654 37.955207,8.50047737 C38.1085839,8.40368724 38.2666086,8.31611523 38.4385766,8.24697942 C38.6058969,8.17784362 38.7825127,8.12714403 38.9591285,8.0902716 C39.8654466,7.91051852 40.8275381,8.20549794 41.4735802,8.84615638 C41.6037182,8.97520988 41.7199129,9.11348148 41.8221641,9.26558025 C41.9244154,9.41767901 42.0080755,9.57899588 42.0777923,9.74492181 C42.1475091,9.91084774 42.2032825,10.0859918 42.235817,10.2611358 C42.2729993,10.4408889 42.2915904,10.620642 42.2915904,10.8003951 C42.2915904,10.9801481 42.2729993,11.1645103 42.235817,11.3442634 C42.2032825,11.5194074 42.1475091,11.6945514 42.0777923,11.8604774 C42.0080755,12.0264033 41.9244154,12.1877202 41.8221641,12.3352099 C41.7199129,12.4873086 41.6037182,12.6301893 41.4735802,12.7592428 C40.9572113,13.2708477 40.2372694,13.5658272 39.5029194,13.5658272 Z" id="Shape"></path>
                <path d="M12.9812636,5.22159671 L2.81423384,5.22159671 C1.3794626,5.22159671 0.216122004,4.06795062 0.216122004,2.6451358 L0.216122004,2.6451358 C0.216122004,1.22232099 1.3794626,0.0686748971 2.81423384,0.0686748971 L12.9812636,0.0686748971 C14.4160349,0.0686748971 15.5793755,1.22232099 15.5793755,2.6451358 L15.5793755,2.6451358 C15.5793755,4.06841152 14.4160349,5.22159671 12.9812636,5.22159671 Z" id="Shape"></path>
                <path d="M44.5862019,5.22159671 L34.4191721,5.22159671 C32.9844009,5.22159671 31.8210603,4.06795062 31.8210603,2.6451358 L31.8210603,2.6451358 C31.8210603,1.22232099 32.9844009,0.0686748971 34.4191721,0.0686748971 L44.5862019,0.0686748971 C46.0209731,0.0686748971 47.1843137,1.22232099 47.1843137,2.6451358 L47.1843137,2.6451358 C47.1843137,4.06841152 46.0209731,5.22159671 44.5862019,5.22159671 Z" id="Shape"></path>
            </g>
            <path d="M128,129.876543 C128,131.27696 127.760865,132.616285 127.319385,133.866322 C127.112442,134.467843 126.854912,135.045868 126.560592,135.595696 C124.583131,139.251819 120.775368,141.728395 116.397361,141.728395 C112.014755,141.728395 108.206993,139.251819 106.229531,135.595696 C105.930613,135.045868 105.673083,134.467843 105.466139,133.866322 C105.02466,132.616285 104.790123,131.27696 104.790123,129.876543 L128,129.876543 Z" id="Shape" fill="#FFFFFF" fill-rule="nonzero"></path>
            <path d="M127.506173,133.333333 C127.295735,133.937851 127.033857,134.518755 126.734568,135.071322 C124.723719,138.745655 120.851665,141.234568 116.399738,141.234568 C111.943135,141.234568 108.071081,138.745655 106.060232,135.071322 C105.756266,134.518755 105.494388,133.937851 105.283951,133.333333 L127.506173,133.333333 Z" id="Shape" fill="#333333" fill-rule="nonzero"></path>
            <path d="M162.567901,92.5337528 C150.949728,71.2103906 138.039627,68.6645878 138.039627,68.6645878 C138.039627,68.6645878 107.937104,55.8701449 85.1799724,77.9402181 C79.0699654,83.8657584 73.9578894,92.2742298 73.6801151,97.2839506 C73.533725,59.1248003 87.9625584,40.0452251 116.966615,40.0452251 C128.28129,40.0452251 132.502693,38.5994124 145.938478,52.0574327 C154.895668,61.0294463 160.438809,74.5215529 162.567901,92.5337528 Z" id="Shape" fill="#FFE1B4" fill-rule="nonzero"></path>
            <path d="M77.4586895,240 L77.4586895,220.864773 L50.962963,204.91875 L50.962963,199.674502 C50.962963,185.641603 60.0476852,170.661112 71.1510506,166.384787 L87.7274395,160 C96.645901,168.208215 109.390677,179.405114 119.851852,179.405114 C130.313027,179.405114 143.057803,168.208215 151.976264,160 L168.552653,166.384787 C179.656019,170.661112 188.740741,185.641603 188.740741,199.674502 L188.740741,204.91875 L162.245014,224.053977 L162.245014,240 L77.4586895,240 Z" id="Shape" fill="#1C1714" fill-rule="nonzero"></path>
            <path d="M119.604938,179.426713 L108.509972,192.651815 C107.354606,194.029001 105.440408,193.849919 104.479155,192.275031 L85.037037,160.409585 L91.2303419,153.02722 C92.2304843,151.835059 93.8382241,151.784742 94.8895537,152.912323 L119.604938,179.426713 Z" id="Shape" fill="#00908C" fill-rule="nonzero"></path>
            <path d="M119.604938,179.426713 L130.699905,192.651815 C131.855271,194.029001 133.769468,193.849919 134.730722,192.275031 L154.17284,160.409585 L147.979535,153.02722 C146.979392,151.835059 145.371652,151.784742 144.320323,152.912323 L119.604938,179.426713 Z" id="Shape" fill="#00908C" fill-rule="nonzero"></path>
            <path d="M50.1186364,211.616685 L77.1358025,226.666667 L77.1358025,215.969137 L50.610303,201.193035 C49.3879237,200.512191 48,201.607303 48,203.253014 L48,207.584773 C48,209.321372 48.8283838,210.898106 50.1186364,211.616685 Z" id="Shape" fill="#00908C" fill-rule="nonzero"></path>
            <path d="M189.09124,211.616685 L162.074074,226.666667 L162.074074,215.969137 L188.599574,201.193035 C189.821953,200.512191 191.209877,201.607303 191.209877,203.253014 L191.209877,207.584773 C191.209545,209.321372 190.381162,210.898106 189.09124,211.616685 Z" id="Shape" fill="#00908C" fill-rule="nonzero"></path>
        </g>
    </g>
</svg>