<?xml version="1.0" encoding="UTF-8"?>
<svg width="214px" height="184px" viewBox="0 0 214 184" version="1.1" xmlns="http://www.w3.org/2000/svg" xmlns:xlink="http://www.w3.org/1999/xlink">
    <!-- Generator: Sketch 47.1 (45422) - http://www.bohemiancoding.com/sketch -->
    <title>Shape</title>
    <desc>Created with Sketch.</desc>
    <defs></defs>
    <g id="Page-1" stroke="none" stroke-width="1" fill="none" fill-rule="evenodd">
        <path d="M214,8.839 C214,3.957 210.043,0 205.161,0 L8.839,0 C3.957,0 0,3.957 0,8.839 L0,175.161 C0,180.043 3.957,184 8.839,184 L205.161,184 C210.043,184 214,180.043 214,175.161 L214,8.839 Z M81.505,67.006 C75.407,67.006 70.463,71.949 70.463,78.048 C70.463,79.507 70.756,80.896 71.271,82.171 L62,94.081 L62,17 L102,17 L102,83.635 L92.832,78.332 C92.834,78.237 92.696,78.144 92.696,78.048 C92.696,71.95 87.603,67.006 81.505,67.006 Z M78.635,88.698 C79.553,88.945 80.511,89.089 81.506,89.089 C83.903,89.089 86.415,88.317 88.225,87.019 L102,95.078 L102,166 L62,166 L62,110.066 L78.635,88.698 Z M112,100.952 L120.487,106.261 C120.47,106.513 120.254,106.764 120.254,107.02 C120.254,113.118 125.1,118.062 131.198,118.062 C137.296,118.062 142.191,113.119 142.191,107.02 C142.191,105.487 142.54,104.028 141.976,102.701 L152,90.926 L152,166 L112,166 L112,100.952 Z M134.476,96.322 C133.614,96.106 132.373,95.978 131.443,95.978 C129.211,95.978 127.356,96.645 125.619,97.784 L112,89.508 L112,17 L152,17 L152,75.145 L134.476,96.322 Z M17,17 L53,17 L53,106.694 L37.237,126.406 C36.525,126.262 35.582,126.185 34.827,126.185 C28.729,126.185 23.682,131.128 23.682,137.227 C23.682,143.325 28.574,148.269 34.672,148.269 C40.77,148.269 45.688,143.326 45.688,137.227 C45.688,135.513 45.688,133.898 44.991,132.45 L53.001,122.679 L53.001,166 L17.001,166 L17.001,17 L17,17 Z M197,166 L161,166 L161,78.574 L176.954,58.16 C177.699,58.319 178.333,58.406 179.126,58.406 C185.224,58.406 190.098,53.463 190.098,47.364 C190.098,41.266 185.12,36.322 179.022,36.322 C172.924,36.322 167.963,41.265 167.963,47.364 C167.963,49.038 168.614,50.619 169.281,52.041 L161,62.793 L161,17 L197,17 L197,166 Z" id="Shape" fill="#231F20" fill-rule="nonzero"></path>
    </g>
</svg>